<svg width="255" height="216" viewBox="0 0 255 216" fill="none" xmlns="http://www.w3.org/2000/svg">
<path d="M71.287 118.353C71.287 121.49 71.627 124.033 72.22 125.898C72.9729 127.996 73.8793 130.036 74.932 132.001C75.356 132.679 75.525 133.357 75.525 133.951C75.525 134.798 75.017 135.646 73.915 136.494L68.575 140.054C67.812 140.563 67.049 140.817 66.37 140.817C65.523 140.817 64.675 140.393 63.827 139.63C62.685 138.403 61.6633 137.068 60.776 135.646C59.928 134.206 59.08 132.594 58.148 130.645C51.536 138.443 43.228 142.343 33.226 142.343C26.106 142.343 20.426 140.308 16.272 136.24C12.119 132.17 10 126.745 10 119.964C10 112.759 12.543 106.91 17.714 102.502C22.884 98.094 29.751 95.89 38.482 95.89C41.364 95.89 44.331 96.144 47.467 96.568C50.604 96.992 53.825 97.67 57.216 98.433V92.245C57.216 85.802 55.859 81.31 53.231 78.682C50.519 76.054 45.941 74.782 39.414 74.782C36.447 74.782 33.396 75.122 30.259 75.885C27.123 76.647 24.071 77.58 21.104 78.767C19.748 79.36 18.731 79.699 18.137 79.869C17.544 80.039 17.12 80.123 16.781 80.123C15.594 80.123 15.001 79.275 15.001 77.495V73.341C15.001 71.985 15.171 70.968 15.594 70.375C16.018 69.781 16.781 69.188 17.968 68.595C20.935 67.069 24.495 65.797 28.648 64.78C32.803 63.678 37.211 63.17 41.873 63.17C51.961 63.17 59.336 65.458 64.083 70.036C68.745 74.613 71.119 81.564 71.119 90.889V118.353H71.289H71.287ZM36.871 131.238C39.669 131.238 42.551 130.73 45.602 129.712C48.654 128.695 51.367 126.83 53.655 124.287C55.012 122.677 56.029 120.897 56.537 118.862C57.046 116.828 57.385 114.369 57.385 111.487V107.927C54.8143 107.301 52.2106 106.82 49.586 106.486C46.9432 106.15 44.282 105.98 41.618 105.977C35.938 105.977 31.785 107.079 28.988 109.368C26.19 111.657 24.834 114.878 24.834 119.116C24.834 123.1 25.851 126.067 27.97 128.102C30.005 130.221 32.972 131.238 36.871 131.238ZM104.94 140.393C103.414 140.393 102.397 140.139 101.719 139.545C101.041 139.037 100.447 137.85 99.939 136.24L80.019 70.714C79.509 69.018 79.255 67.916 79.255 67.323C79.255 65.967 79.933 65.203 81.29 65.203H89.597C91.207 65.203 92.31 65.458 92.903 66.051C93.581 66.56 94.09 67.747 94.598 69.357L108.839 125.474L122.063 69.357C122.487 67.662 122.996 66.56 123.673 66.051C124.352 65.543 125.539 65.204 127.065 65.204H133.846C135.456 65.204 136.559 65.458 137.236 66.051C137.915 66.56 138.508 67.747 138.847 69.357L152.241 126.152L166.905 69.357C167.413 67.662 168.007 66.56 168.6 66.051C169.278 65.543 170.38 65.204 171.906 65.204H179.789C181.146 65.204 181.909 65.882 181.909 67.323C181.909 67.747 181.824 68.171 181.739 68.679C181.654 69.188 181.485 69.866 181.146 70.799L160.716 136.324C160.208 138.02 159.615 139.122 158.936 139.63C158.258 140.139 157.156 140.478 155.716 140.478H148.426C146.815 140.478 145.713 140.224 145.034 139.63C144.356 139.037 143.763 137.935 143.424 136.24L130.284 81.564L117.23 136.154C116.807 137.85 116.298 138.952 115.62 139.545C114.942 140.139 113.755 140.393 112.23 140.393H104.939H104.94ZM213.867 142.682C209.459 142.682 205.051 142.173 200.813 141.156C196.574 140.139 193.269 139.036 191.065 137.766C189.708 137.002 188.775 136.155 188.437 135.392C188.107 134.644 187.934 133.836 187.928 133.018V128.695C187.928 126.915 188.606 126.067 189.878 126.067C190.397 126.069 190.912 126.155 191.404 126.322C191.912 126.492 192.675 126.83 193.523 127.169C196.517 128.486 199.643 129.481 202.847 130.136C206.167 130.81 209.547 131.151 212.935 131.153C218.275 131.153 222.429 130.221 225.311 128.356C228.193 126.491 229.719 123.779 229.719 120.303C229.719 117.93 228.956 115.98 227.43 114.369C225.904 112.759 223.022 111.318 218.869 109.961L206.577 106.147C200.389 104.197 195.812 101.315 193.014 97.5C190.217 93.77 188.776 89.617 188.776 85.209C188.776 81.649 189.539 78.512 191.065 75.799C192.59 73.087 194.625 70.714 197.168 68.849C199.711 66.899 202.593 65.458 205.984 64.441C209.374 63.424 212.934 63 216.664 63C218.529 63 220.479 63.085 222.344 63.339C224.294 63.593 226.074 63.932 227.854 64.271C229.549 64.695 231.16 65.119 232.686 65.628C234.212 66.136 235.398 66.645 236.246 67.153C237.433 67.832 238.28 68.51 238.789 69.273C239.298 69.951 239.552 70.883 239.552 72.07V76.054C239.552 77.834 238.874 78.767 237.602 78.767C236.924 78.767 235.822 78.427 234.382 77.749C229.549 75.545 224.124 74.443 218.106 74.443C213.274 74.443 209.459 75.206 206.831 76.817C204.204 78.427 202.847 80.886 202.847 84.361C202.847 86.735 203.695 88.769 205.39 90.38C207.086 91.99 210.222 93.601 214.715 95.042L226.752 98.857C232.855 100.807 237.263 103.519 239.891 106.994C242.519 110.47 243.791 114.454 243.791 118.862C243.791 122.507 243.027 125.813 241.586 128.695C240.061 131.577 238.026 134.12 235.398 136.155C232.77 138.274 229.634 139.8 225.989 140.902C222.174 142.089 218.19 142.682 213.867 142.682Z" fill="#E9ECF4"/>
<path d="M230.426 183.879C202.538 204.478 162.018 215.413 127.179 215.413C78.3524 215.413 34.3584 197.357 1.12937 167.349C-1.49863 164.976 0.874372 161.755 4.01037 163.619C39.9524 184.473 84.2864 197.103 130.146 197.103C161.086 197.103 195.078 190.661 226.358 177.437C231.02 175.317 235.004 180.489 230.426 183.879ZM242.04 170.655C238.48 166.078 218.474 168.451 209.404 169.553C206.691 169.893 206.267 167.519 208.726 165.739C224.662 154.549 250.856 157.771 253.907 161.5C256.959 165.315 253.059 191.508 238.14 204.054C235.852 206.004 233.648 204.987 234.665 202.444C238.055 194.051 245.6 175.148 242.04 170.655Z" fill="#FF9900"/>
<path d="M18.5227 39V9.90909H28.3523C30.6345 9.90909 32.5 10.321 33.9489 11.1449C35.4072 11.9593 36.4867 13.0625 37.1875 14.4545C37.8883 15.8466 38.2386 17.3996 38.2386 19.1136C38.2386 20.8277 37.8883 22.3854 37.1875 23.7869C36.4962 25.1884 35.4261 26.3059 33.9773 27.1392C32.5284 27.9631 30.6723 28.375 28.4091 28.375H21.3636V25.25H28.2955C29.858 25.25 31.1127 24.9801 32.0597 24.4403C33.0066 23.9006 33.6932 23.1714 34.1193 22.2528C34.5549 21.3248 34.7727 20.2784 34.7727 19.1136C34.7727 17.9489 34.5549 16.9072 34.1193 15.9886C33.6932 15.0701 33.0019 14.3504 32.0455 13.8295C31.089 13.2992 29.8201 13.0341 28.2386 13.0341H22.0455V39H18.5227ZM52.0881 39.4545C50.1184 39.4545 48.3902 38.9858 46.9034 38.0483C45.4261 37.1108 44.2708 35.7992 43.4375 34.1136C42.6136 32.428 42.2017 30.4583 42.2017 28.2045C42.2017 25.9318 42.6136 23.9479 43.4375 22.2528C44.2708 20.5578 45.4261 19.2415 46.9034 18.304C48.3902 17.3665 50.1184 16.8977 52.0881 16.8977C54.0578 16.8977 55.7813 17.3665 57.2585 18.304C58.7453 19.2415 59.9006 20.5578 60.7244 22.2528C61.5578 23.9479 61.9744 25.9318 61.9744 28.2045C61.9744 30.4583 61.5578 32.428 60.7244 34.1136C59.9006 35.7992 58.7453 37.1108 57.2585 38.0483C55.7813 38.9858 54.0578 39.4545 52.0881 39.4545ZM52.0881 36.4432C53.5843 36.4432 54.8153 36.0597 55.7812 35.2926C56.7472 34.5256 57.4621 33.517 57.9261 32.267C58.3902 31.017 58.6222 29.6629 58.6222 28.2045C58.6222 26.7462 58.3902 25.3873 57.9261 24.1278C57.4621 22.8684 56.7472 21.8504 55.7812 21.0739C54.8153 20.2973 53.5843 19.9091 52.0881 19.9091C50.5919 19.9091 49.3608 20.2973 48.3949 21.0739C47.429 21.8504 46.714 22.8684 46.25 24.1278C45.786 25.3873 45.554 26.7462 45.554 28.2045C45.554 29.6629 45.786 31.017 46.25 32.267C46.714 33.517 47.429 34.5256 48.3949 35.2926C49.3608 36.0597 50.5919 36.4432 52.0881 36.4432ZM71.2926 39L64.6449 17.1818H68.1676L72.8835 33.8864H73.1108L77.7699 17.1818H81.3494L85.9517 33.8295H86.179L90.8949 17.1818H94.4176L87.7699 39H84.4744L79.7017 22.2386H79.3608L74.5881 39H71.2926ZM107.255 39.4545C105.153 39.4545 103.339 38.9905 101.815 38.0625C100.299 37.125 99.13 35.8182 98.3061 34.142C97.4917 32.4564 97.0845 30.4962 97.0845 28.2614C97.0845 26.0265 97.4917 24.0568 98.3061 22.3523C99.13 20.6383 100.276 19.303 101.744 18.3466C103.221 17.3807 104.944 16.8977 106.914 16.8977C108.05 16.8977 109.173 17.0871 110.281 17.4659C111.388 17.8447 112.397 18.4602 113.306 19.3125C114.215 20.1553 114.94 21.2727 115.479 22.6648C116.019 24.0568 116.289 25.7708 116.289 27.8068V29.2273H99.4709V26.3295H112.88C112.88 25.0985 112.634 24 112.141 23.0341C111.658 22.0682 110.967 21.3059 110.067 20.7472C109.177 20.1884 108.126 19.9091 106.914 19.9091C105.579 19.9091 104.424 20.2405 103.448 20.9034C102.482 21.5568 101.739 22.4091 101.218 23.4602C100.697 24.5114 100.437 25.6383 100.437 26.8409V28.7727C100.437 30.4205 100.721 31.8172 101.289 32.9631C101.867 34.0994 102.667 34.9659 103.69 35.5625C104.712 36.1496 105.901 36.4432 107.255 36.4432C108.136 36.4432 108.931 36.3201 109.641 36.0739C110.361 35.8182 110.981 35.4394 111.502 34.9375C112.023 34.4261 112.425 33.7917 112.71 33.0341L115.948 33.9432C115.607 35.0417 115.034 36.0076 114.229 36.8409C113.424 37.6648 112.43 38.3087 111.246 38.7727C110.063 39.2273 108.732 39.4545 107.255 39.4545ZM121.388 39V17.1818H124.627V20.4773H124.854C125.252 19.3977 125.972 18.5218 127.013 17.8494C128.055 17.1771 129.229 16.8409 130.536 16.8409C130.782 16.8409 131.09 16.8456 131.46 16.8551C131.829 16.8646 132.108 16.8788 132.298 16.8977V20.3068C132.184 20.2784 131.924 20.2358 131.516 20.179C131.119 20.1127 130.697 20.0795 130.252 20.0795C129.192 20.0795 128.245 20.3021 127.411 20.7472C126.587 21.1828 125.934 21.7888 125.451 22.5653C124.978 23.3324 124.741 24.2083 124.741 25.1932V39H121.388ZM144.755 39.4545C142.653 39.4545 140.839 38.9905 139.315 38.0625C137.799 37.125 136.63 35.8182 135.806 34.142C134.992 32.4564 134.585 30.4962 134.585 28.2614C134.585 26.0265 134.992 24.0568 135.806 22.3523C136.63 20.6383 137.776 19.303 139.244 18.3466C140.721 17.3807 142.444 16.8977 144.414 16.8977C145.55 16.8977 146.673 17.0871 147.781 17.4659C148.888 17.8447 149.897 18.4602 150.806 19.3125C151.715 20.1553 152.44 21.2727 152.979 22.6648C153.519 24.0568 153.789 25.7708 153.789 27.8068V29.2273H136.971V26.3295H150.38C150.38 25.0985 150.134 24 149.641 23.0341C149.158 22.0682 148.467 21.3059 147.567 20.7472C146.677 20.1884 145.626 19.9091 144.414 19.9091C143.079 19.9091 141.924 20.2405 140.948 20.9034C139.982 21.5568 139.239 22.4091 138.718 23.4602C138.197 24.5114 137.937 25.6383 137.937 26.8409V28.7727C137.937 30.4205 138.221 31.8172 138.789 32.9631C139.367 34.0994 140.167 34.9659 141.19 35.5625C142.212 36.1496 143.401 36.4432 144.755 36.4432C145.636 36.4432 146.431 36.3201 147.141 36.0739C147.861 35.8182 148.481 35.4394 149.002 34.9375C149.523 34.4261 149.925 33.7917 150.21 33.0341L153.448 33.9432C153.107 35.0417 152.534 36.0076 151.729 36.8409C150.924 37.6648 149.93 38.3087 148.746 38.7727C147.563 39.2273 146.232 39.4545 144.755 39.4545ZM167.127 39.4545C165.309 39.4545 163.704 38.9953 162.312 38.0767C160.92 37.1487 159.831 35.8419 159.045 34.1562C158.259 32.4612 157.866 30.4583 157.866 28.1477C157.866 25.8561 158.259 23.8674 159.045 22.1818C159.831 20.4962 160.924 19.1941 162.326 18.2756C163.728 17.357 165.347 16.8977 167.184 16.8977C168.604 16.8977 169.727 17.1345 170.55 17.608C171.384 18.072 172.018 18.6023 172.454 19.1989C172.899 19.786 173.245 20.2689 173.491 20.6477H173.775V9.90909H177.127V39H173.888V35.6477H173.491C173.245 36.0455 172.894 36.5473 172.44 37.1534C171.985 37.75 171.336 38.285 170.494 38.7585C169.651 39.2225 168.529 39.4545 167.127 39.4545ZM167.582 36.4432C168.926 36.4432 170.063 36.0928 170.991 35.392C171.919 34.6818 172.624 33.7017 173.107 32.4517C173.59 31.1922 173.832 29.7386 173.832 28.0909C173.832 26.4621 173.595 25.0369 173.121 23.8153C172.648 22.5843 171.947 21.6278 171.019 20.946C170.091 20.2547 168.945 19.9091 167.582 19.9091C166.161 19.9091 164.978 20.2737 164.031 21.0028C163.093 21.7225 162.388 22.7027 161.914 23.9432C161.45 25.1742 161.218 26.5568 161.218 28.0909C161.218 29.6439 161.455 31.0549 161.928 32.3239C162.411 33.5833 163.121 34.5871 164.059 35.3352C165.006 36.0739 166.18 36.4432 167.582 36.4432ZM195.437 39V9.90909H198.789V20.6477H199.073C199.319 20.2689 199.66 19.786 200.096 19.1989C200.541 18.6023 201.175 18.072 201.999 17.608C202.833 17.1345 203.96 16.8977 205.38 16.8977C207.217 16.8977 208.836 17.357 210.238 18.2756C211.639 19.1941 212.733 20.4962 213.519 22.1818C214.305 23.8674 214.698 25.8561 214.698 28.1477C214.698 30.4583 214.305 32.4612 213.519 34.1562C212.733 35.8419 211.644 37.1487 210.252 38.0767C208.86 38.9953 207.255 39.4545 205.437 39.4545C204.035 39.4545 202.913 39.2225 202.07 38.7585C201.228 38.285 200.579 37.75 200.124 37.1534C199.67 36.5473 199.319 36.0455 199.073 35.6477H198.675V39H195.437ZM198.732 28.0909C198.732 29.7386 198.974 31.1922 199.457 32.4517C199.94 33.7017 200.645 34.6818 201.573 35.392C202.501 36.0928 203.638 36.4432 204.982 36.4432C206.384 36.4432 207.553 36.0739 208.491 35.3352C209.438 34.5871 210.148 33.5833 210.621 32.3239C211.104 31.0549 211.346 29.6439 211.346 28.0909C211.346 26.5568 211.109 25.1742 210.636 23.9432C210.172 22.7027 209.466 21.7225 208.519 21.0028C207.582 20.2737 206.403 19.9091 204.982 19.9091C203.619 19.9091 202.473 20.2547 201.545 20.946C200.617 21.6278 199.916 22.5843 199.442 23.8153C198.969 25.0369 198.732 26.4621 198.732 28.0909ZM221.204 47.1818C220.636 47.1818 220.129 47.1345 219.684 47.0398C219.239 46.9545 218.931 46.8693 218.761 46.7841L219.613 43.8295C220.427 44.0379 221.147 44.1136 221.772 44.0568C222.397 44 222.951 43.7206 223.434 43.2188C223.926 42.7263 224.376 41.9261 224.783 40.8182L225.408 39.1136L217.34 17.1818H220.977L226.999 34.5682H227.227L233.249 17.1818H236.886L227.624 42.1818C227.208 43.3087 226.692 44.2415 226.076 44.9801C225.46 45.7282 224.746 46.2822 223.931 46.642C223.126 47.0019 222.217 47.1818 221.204 47.1818Z" fill="white"/>
</svg>
