<svg width="1932" height="919" viewBox="0 0 1932 919" fill="none" xmlns="http://www.w3.org/2000/svg">
<g style="mix-blend-mode:color-dodge" opacity="0.4">
<path d="M939.138 873.444C929.421 863.727 913.659 863.735 903.933 873.461C894.206 883.188 894.199 898.949 903.916 908.666C913.633 918.383 929.394 918.375 939.121 908.649C948.847 898.923 948.854 883.161 939.138 873.444Z" fill="#284EAE"/>
<path d="M939.184 777.172C929.467 767.455 913.706 767.463 903.979 777.189C894.253 786.915 894.245 802.677 903.962 812.394C913.679 822.111 929.441 822.103 939.167 812.377C948.893 802.651 948.901 786.889 939.184 777.172Z" fill="#284EAE"/>
<path d="M839.53 873.492C829.813 863.776 814.052 863.783 804.325 873.51C794.599 883.236 794.591 898.998 804.308 908.714C814.025 918.431 829.787 918.424 839.513 908.697C849.239 898.971 849.247 883.209 839.53 873.492Z" fill="#284EAE"/>
<path d="M839.577 777.22C829.86 767.504 814.098 767.511 804.372 777.237C794.646 786.964 794.638 802.725 804.355 812.442C814.072 822.159 829.833 822.151 839.56 812.425C849.286 802.699 849.294 786.937 839.577 777.22Z" fill="#284EAE"/>
<path d="M839.633 680.958C829.916 671.241 814.155 671.249 804.428 680.975C794.702 690.701 794.694 706.463 804.411 716.18C814.128 725.897 829.89 725.889 839.616 716.163C849.342 706.437 849.35 690.675 839.633 680.958Z" fill="#284EAE"/>
<path d="M804.458 619.908C814.176 629.626 829.935 629.618 839.663 619.891C849.39 610.163 849.398 594.404 839.68 584.686C829.962 574.968 814.202 574.975 804.475 584.703C794.747 594.43 794.74 610.19 804.458 619.908Z" fill="#284EAE"/>
<path d="M839.772 392.141C830.055 382.424 814.294 382.432 804.567 392.158C794.841 401.884 794.833 417.646 804.55 427.363C814.267 437.079 830.029 437.072 839.755 427.346C849.481 417.619 849.489 401.858 839.772 392.141Z" fill="#284EAE"/>
<path d="M839.809 295.878C830.092 286.161 814.33 286.169 804.604 295.895C794.878 305.622 794.87 321.383 804.587 331.1C814.304 340.817 830.066 340.809 839.792 331.083C849.518 321.357 849.526 305.595 839.809 295.878Z" fill="#284EAE"/>
<path d="M739.933 873.531C730.216 863.814 714.454 863.822 704.728 873.548C695.001 883.274 694.994 899.036 704.711 908.753C714.428 918.47 730.189 918.462 739.916 908.736C749.642 899.01 749.649 883.248 739.933 873.531Z" fill="#284EAE"/>
<path d="M739.979 777.278C730.262 767.562 714.501 767.569 704.774 777.295C695.048 787.022 695.04 802.783 704.757 812.5C714.474 822.217 730.236 822.209 739.962 812.483C749.688 802.757 749.696 786.995 739.979 777.278Z" fill="#284EAE"/>
<path d="M740.026 681.006C730.309 671.289 714.547 671.297 704.821 681.023C695.095 690.75 695.087 706.511 704.804 716.228C714.521 725.945 730.283 725.937 740.009 716.211C749.735 706.485 749.743 690.723 740.026 681.006Z" fill="#284EAE"/>
<path d="M704.851 619.956C714.569 629.674 730.328 629.666 740.055 619.939C749.783 610.211 749.79 594.452 740.072 584.734C730.354 575.016 714.595 575.024 704.868 584.751C695.14 594.479 695.132 610.238 704.851 619.956Z" fill="#284EAE"/>
<path d="M605.113 908.811C614.831 918.529 630.591 918.521 640.318 908.794C650.046 899.066 650.053 883.307 640.335 873.589C630.617 863.871 614.858 863.879 605.13 873.606C595.403 883.334 595.395 899.093 605.113 908.811Z" fill="#284EAE"/>
<path d="M640.382 777.317C630.665 767.6 614.903 767.608 605.177 777.334C595.451 787.06 595.443 802.822 605.16 812.539C614.877 822.256 630.638 822.248 640.365 812.522C650.091 802.795 650.099 787.034 640.382 777.317Z" fill="#284EAE"/>
<path d="M640.464 584.782C630.747 575.065 614.986 575.072 605.259 584.798C595.533 594.525 595.526 610.287 605.242 620.003C614.959 629.72 630.721 629.713 640.447 619.986C650.173 610.26 650.181 594.498 640.464 584.782Z" fill="#284EAE"/>
<path d="M505.506 908.859C515.224 918.577 530.983 918.57 540.711 908.842C550.438 899.115 550.446 883.355 540.728 873.637C531.01 863.919 515.25 863.927 505.523 873.654C495.795 883.382 495.788 899.141 505.506 908.859Z" fill="#284EAE"/>
<path d="M540.774 777.365C531.058 767.648 515.295 767.656 505.569 777.382C495.843 787.108 495.836 802.87 505.552 812.587C515.269 822.304 531.031 822.296 540.757 812.57C550.484 802.844 550.491 787.082 540.774 777.365Z" fill="#284EAE"/>
<path d="M540.82 681.092C531.103 671.375 515.341 671.383 505.615 681.109C495.889 690.835 495.881 706.597 505.598 716.314C515.315 726.031 531.077 726.023 540.803 716.297C550.529 706.571 550.537 690.809 540.82 681.092Z" fill="#284EAE"/>
<path d="M540.857 584.83C531.14 575.113 515.378 575.12 505.652 584.847C495.926 594.573 495.918 610.335 505.635 620.051C515.352 629.768 531.113 629.761 540.84 620.034C550.566 610.308 550.574 594.546 540.857 584.83Z" fill="#284EAE"/>
<path d="M505.691 523.789C515.409 533.507 531.169 533.499 540.896 523.772C550.624 514.045 550.631 498.285 540.913 488.567C531.195 478.849 515.436 478.857 505.708 488.584C495.981 498.312 495.973 514.071 505.691 523.789Z" fill="#284EAE"/>
<path d="M541.006 296.023C531.29 286.306 515.528 286.314 505.801 296.04C496.075 305.766 496.068 321.528 505.784 331.245C515.501 340.962 531.263 340.954 540.989 331.228C550.716 321.502 550.723 305.74 541.006 296.023Z" fill="#284EAE"/>
<path d="M441.12 873.685C431.404 863.969 415.641 863.976 405.915 873.702C396.189 883.428 396.182 899.19 405.899 908.907C415.615 918.624 431.377 918.617 441.103 908.89C450.83 899.164 450.837 883.402 441.12 873.685Z" fill="#284EAE"/>
<path d="M441.213 681.14C431.496 671.423 415.734 671.431 406.008 681.157C396.282 690.884 396.274 706.645 405.991 716.362C415.708 726.079 431.469 726.071 441.196 716.345C450.922 706.619 450.929 690.857 441.213 681.14Z" fill="#284EAE"/>
<path d="M441.269 584.878C431.552 575.161 415.79 575.169 406.064 584.895C396.338 594.621 396.33 610.383 406.047 620.1C415.764 629.817 431.526 629.809 441.252 620.083C450.978 610.356 450.986 594.595 441.269 584.878Z" fill="#284EAE"/>
<path d="M441.399 296.071C431.682 286.354 415.92 286.362 406.194 296.088C396.468 305.814 396.46 321.576 406.177 331.293C415.894 341.01 431.656 341.002 441.382 331.276C451.108 321.55 451.116 305.788 441.399 296.071Z" fill="#284EAE"/>
<path d="M341.512 873.733C331.795 864.016 316.033 864.023 306.307 873.75C296.581 883.476 296.574 899.238 306.29 908.955C316.007 918.672 331.769 918.664 341.495 908.938C351.221 899.211 351.229 883.45 341.512 873.733Z" fill="#284EAE"/>
<path d="M306.337 812.682C316.055 822.4 331.814 822.393 341.542 812.665C351.269 802.938 351.277 787.179 341.559 777.46C331.841 767.742 316.081 767.75 306.354 777.478C296.626 787.205 296.619 802.964 306.337 812.682Z" fill="#284EAE"/>
<path d="M341.615 681.198C331.898 671.481 316.136 671.489 306.41 681.215C296.684 690.941 296.676 706.703 306.393 716.42C316.11 726.137 331.872 726.129 341.598 716.403C351.324 706.677 351.332 690.915 341.615 681.198Z" fill="#284EAE"/>
<path d="M341.792 296.119C332.075 286.403 316.313 286.41 306.587 296.136C296.861 305.863 296.853 321.624 306.57 331.341C316.287 341.058 332.048 341.05 341.775 331.324C351.501 321.598 351.509 305.836 341.792 296.119Z" fill="#284EAE"/>
<path d="M241.915 873.771C232.198 864.054 216.436 864.062 206.71 873.788C196.983 883.514 196.976 899.276 206.693 908.993C216.41 918.71 232.171 918.702 241.897 908.976C251.624 899.25 251.631 883.488 241.915 873.771Z" fill="#284EAE"/>
<path d="M242.054 584.974C232.337 575.257 216.576 575.265 206.849 584.991C197.123 594.718 197.116 610.479 206.832 620.196C216.549 629.913 232.311 629.905 242.037 620.179C251.763 610.453 251.771 594.691 242.054 584.974Z" fill="#284EAE"/>
<path d="M242.101 488.702C232.384 478.985 216.622 478.993 206.896 488.719C197.17 498.445 197.162 514.207 206.879 523.924C216.596 533.641 232.358 533.633 242.084 523.907C251.81 514.181 251.818 498.419 242.101 488.702Z" fill="#284EAE"/>
<path d="M242.148 392.43C232.431 382.713 216.669 382.721 206.943 392.447C197.216 402.173 197.209 417.935 206.926 427.652C216.642 437.369 232.404 437.361 242.13 427.635C251.857 417.909 251.864 402.147 242.148 392.43Z" fill="#284EAE"/>
<path d="M206.972 331.38C216.69 341.098 232.45 341.09 242.177 331.363C251.905 321.635 251.912 305.876 242.194 296.158C232.476 286.44 216.717 286.447 206.989 296.175C197.262 305.902 197.254 321.662 206.972 331.38Z" fill="#284EAE"/>
<path d="M142.317 873.829C132.6 864.112 116.838 864.12 107.112 873.846C97.3858 883.572 97.3782 899.334 107.095 909.051C116.812 918.768 132.574 918.76 142.3 909.034C152.026 899.308 152.034 883.546 142.317 873.829Z" fill="#284EAE"/>
<path d="M142.363 777.557C132.647 767.84 116.885 767.848 107.159 777.574C97.4324 787.3 97.4247 803.062 107.142 812.779C116.858 822.496 132.62 822.488 142.347 812.762C152.073 803.036 152.08 787.274 142.363 777.557Z" fill="#284EAE"/>
<path d="M142.447 585.022C132.73 575.306 116.968 575.313 107.242 585.04C97.5159 594.766 97.5082 610.527 107.225 620.244C116.942 629.961 132.704 629.954 142.43 620.227C152.156 610.501 152.164 594.739 142.447 585.022Z" fill="#284EAE"/>
<path d="M142.54 392.478C132.823 382.761 117.062 382.769 107.335 392.495C97.6091 402.222 97.6015 417.983 107.318 427.7C117.035 437.417 132.797 437.409 142.523 427.683C152.249 417.957 152.257 402.195 142.54 392.478Z" fill="#284EAE"/>
<path d="M142.643 199.944C132.926 190.227 117.164 190.234 107.438 199.961C97.7119 209.687 97.7043 225.449 107.421 235.166C117.138 244.882 132.9 244.875 142.626 235.148C152.352 225.422 152.36 209.66 142.643 199.944Z" fill="#284EAE"/>
<path d="M142.68 103.681C132.963 93.9644 117.201 93.9719 107.475 103.698C97.7487 113.424 97.7412 129.186 107.458 138.903C117.175 148.62 132.937 148.612 142.663 138.886C152.389 129.16 152.397 113.398 142.68 103.681Z" fill="#284EAE"/>
<path d="M142.726 7.40896C133.009 -2.30789 117.248 -2.30015 107.522 7.42611C97.7953 17.1524 97.7876 32.914 107.504 42.6309C117.221 52.3477 132.983 52.3402 142.709 42.6139C152.436 32.8877 152.443 17.1258 142.726 7.40896Z" fill="#284EAE"/>
<path d="M42.7096 873.877C32.9928 864.16 17.231 864.168 7.50475 873.894C-2.2215 883.621 -2.22913 899.382 7.48772 909.099C17.2046 918.816 32.9663 918.808 42.6926 909.082C52.4188 899.356 52.4265 883.594 42.7096 873.877Z" fill="#284EAE"/>
<path d="M42.7562 777.605C33.0394 767.888 17.2775 767.896 7.55128 777.622C-2.17498 787.348 -2.18252 803.11 7.53433 812.827C17.2512 822.544 33.0129 822.536 42.7392 812.81C52.4655 803.084 52.4731 787.322 42.7562 777.605Z" fill="#284EAE"/>
<path d="M7.6177 620.293C17.3358 630.011 33.0952 630.003 42.8226 620.276C52.5501 610.548 52.5577 594.789 42.8396 585.071C33.1215 575.353 17.3623 575.36 7.63481 585.088C-2.09268 594.815 -2.10038 610.574 7.6177 620.293Z" fill="#284EAE"/>
<path d="M42.8863 488.799C33.1694 479.082 17.4077 479.089 7.68141 488.816C-2.04485 498.542 -2.05247 514.304 7.66438 524.021C17.3812 533.737 33.143 533.73 42.8692 524.003C52.5955 514.277 52.6031 498.515 42.8863 488.799Z" fill="#284EAE"/>
<path d="M42.9425 392.536C33.2257 382.819 17.464 382.827 7.73773 392.553C-1.98853 402.279 -1.99624 418.041 7.72061 427.758C17.4375 437.475 33.1992 437.467 42.9255 427.741C52.6517 418.015 52.6594 402.253 42.9425 392.536Z" fill="#284EAE"/>
<path d="M42.9891 296.264C33.2723 286.547 17.5105 286.555 7.78426 296.281C-1.942 306.007 -1.94965 321.769 7.7672 331.486C17.4841 341.203 33.2457 341.195 42.972 331.469C52.6983 321.742 52.706 305.981 42.9891 296.264Z" fill="#284EAE"/>
<path d="M43.0821 103.72C33.3653 94.0027 17.6036 94.0104 7.87737 103.737C-1.84889 113.463 -1.85662 129.225 7.86023 138.941C17.5771 148.658 33.339 148.651 43.0653 138.925C52.7916 129.198 52.799 113.436 43.0821 103.72Z" fill="#284EAE"/>
<path d="M1924.01 875.243C1914.29 865.526 1898.53 865.534 1888.8 875.26C1879.08 884.987 1879.07 900.748 1888.79 910.465C1898.5 920.182 1914.26 920.174 1923.99 910.448C1933.72 900.722 1933.73 884.96 1924.01 875.243Z" fill="#284EAE"/>
<path d="M1888.88 717.921C1898.6 727.639 1914.36 727.631 1924.08 717.904C1933.81 708.176 1933.82 692.417 1924.1 682.699C1914.38 672.981 1898.62 672.988 1888.9 682.716C1879.17 692.443 1879.16 708.203 1888.88 717.921Z" fill="#284EAE"/>
<path d="M1924.16 586.437C1914.44 576.72 1898.68 576.727 1888.95 586.454C1879.23 596.18 1879.22 611.942 1888.94 621.658C1898.65 631.375 1914.41 631.368 1924.14 621.641C1933.87 611.915 1933.87 596.153 1924.16 586.437Z" fill="#284EAE"/>
<path d="M1924.2 490.164C1914.49 480.447 1898.73 480.455 1889 490.181C1879.27 499.908 1879.27 515.669 1888.98 525.386C1898.7 535.103 1914.46 535.096 1924.19 525.369C1933.91 515.643 1933.92 499.881 1924.2 490.164Z" fill="#284EAE"/>
<path d="M1924.24 393.902C1914.52 384.185 1898.76 384.193 1889.04 393.919C1879.31 403.645 1879.3 419.407 1889.02 429.124C1898.74 438.841 1914.5 438.833 1924.22 429.107C1933.95 419.38 1933.96 403.619 1924.24 393.902Z" fill="#284EAE"/>
<path d="M1924.33 201.358C1914.62 191.641 1898.86 191.648 1889.13 201.375C1879.4 211.101 1879.4 226.863 1889.11 236.58C1898.83 246.296 1914.59 246.289 1924.32 236.563C1934.04 226.836 1934.05 211.075 1924.33 201.358Z" fill="#284EAE"/>
<path d="M1924.38 105.086C1914.66 95.3687 1898.9 95.3763 1889.18 105.103C1879.45 114.829 1879.44 130.591 1889.16 140.308C1898.88 150.024 1914.64 150.017 1924.36 140.29C1934.09 130.564 1934.1 114.802 1924.38 105.086Z" fill="#284EAE"/>
<path d="M1924.44 8.82309C1914.72 -0.893758 1898.96 -0.886152 1889.23 8.84011C1879.51 18.5664 1879.5 34.3281 1889.22 44.045C1898.93 53.7618 1914.69 53.7542 1924.42 44.0279C1934.15 34.3017 1934.15 18.5399 1924.44 8.82309Z" fill="#284EAE"/>
<path d="M1824.4 875.291C1814.68 865.575 1798.92 865.582 1789.2 875.309C1779.47 885.035 1779.46 900.796 1789.18 910.513C1798.9 920.23 1814.66 920.223 1824.38 910.496C1834.11 900.77 1834.12 885.008 1824.4 875.291Z" fill="#284EAE"/>
<path d="M1824.5 682.757C1814.79 673.04 1799.03 673.048 1789.3 682.774C1779.57 692.5 1779.57 708.262 1789.28 717.979C1799 727.696 1814.76 727.688 1824.49 717.962C1834.21 708.235 1834.22 692.474 1824.5 682.757Z" fill="#284EAE"/>
<path d="M1789.33 621.707C1799.05 631.425 1814.81 631.417 1824.53 621.69C1834.26 611.962 1834.27 596.203 1824.55 586.485C1814.83 576.767 1799.07 576.774 1789.35 586.502C1779.62 596.229 1779.61 611.989 1789.33 621.707Z" fill="#284EAE"/>
<path d="M1824.6 490.213C1814.88 480.496 1799.12 480.503 1789.39 490.23C1779.67 499.956 1779.66 515.718 1789.38 525.435C1799.09 535.151 1814.85 535.144 1824.58 525.417C1834.31 515.691 1834.31 499.929 1824.6 490.213Z" fill="#284EAE"/>
<path d="M1824.68 297.678C1814.96 287.961 1799.2 287.969 1789.48 297.695C1779.75 307.421 1779.74 323.183 1789.46 332.9C1799.18 342.617 1814.94 342.609 1824.66 332.883C1834.39 323.157 1834.4 307.395 1824.68 297.678Z" fill="#284EAE"/>
<path d="M1724.8 875.33C1715.09 865.613 1699.32 865.621 1689.6 875.347C1679.87 885.073 1679.86 900.835 1689.58 910.552C1699.3 920.269 1715.06 920.261 1724.79 910.535C1734.51 900.808 1734.52 885.047 1724.8 875.33Z" fill="#284EAE"/>
<path d="M1724.85 779.077C1715.13 769.36 1699.37 769.368 1689.65 779.094C1679.92 788.82 1679.91 804.582 1689.63 814.299C1699.34 824.016 1715.11 824.008 1724.83 814.282C1734.56 804.556 1734.57 788.794 1724.85 779.077Z" fill="#284EAE"/>
<path d="M1689.72 621.755C1699.44 631.473 1715.2 631.465 1724.93 621.738C1734.65 612.01 1734.66 596.251 1724.94 586.533C1715.22 576.815 1699.47 576.823 1689.74 586.55C1680.01 596.278 1680 612.037 1689.72 621.755Z" fill="#284EAE"/>
<path d="M1689.91 236.686C1699.63 246.404 1715.38 246.396 1725.11 236.669C1734.84 226.941 1734.85 211.182 1725.13 201.464C1715.41 191.746 1699.65 191.753 1689.92 201.481C1680.2 211.208 1680.19 226.968 1689.91 236.686Z" fill="#284EAE"/>
<path d="M1725.18 105.192C1715.46 95.4749 1699.7 95.4825 1689.97 105.209C1680.24 114.935 1680.24 130.697 1689.95 140.414C1699.67 150.13 1715.43 150.123 1725.16 140.397C1734.89 130.67 1734.89 114.909 1725.18 105.192Z" fill="#284EAE"/>
<path d="M1725.22 8.91959C1715.51 -0.797263 1699.74 -0.789701 1690.02 8.93656C1680.29 18.6628 1680.28 34.4246 1690 44.1414C1699.72 53.8583 1715.48 53.8507 1725.21 44.1244C1734.93 34.3982 1734.94 18.6364 1725.22 8.91959Z" fill="#284EAE"/>
<path d="M1589.98 910.61C1599.7 920.328 1615.46 920.32 1625.19 910.593C1634.92 900.865 1634.92 885.106 1625.21 875.388C1615.49 865.67 1599.73 865.677 1590 875.405C1580.27 885.132 1580.27 900.892 1589.98 910.61Z" fill="#284EAE"/>
<path d="M1625.25 779.116C1615.54 769.399 1599.77 769.406 1590.05 779.133C1580.32 788.859 1580.31 804.621 1590.03 814.338C1599.75 824.054 1615.51 824.047 1625.24 814.321C1634.96 804.594 1634.97 788.832 1625.25 779.116Z" fill="#284EAE"/>
<path d="M1625.29 682.853C1615.57 673.136 1599.81 673.144 1590.08 682.87C1580.36 692.597 1580.35 708.358 1590.07 718.075C1599.78 727.792 1615.55 727.784 1625.27 718.058C1635 708.332 1635.01 692.57 1625.29 682.853Z" fill="#284EAE"/>
<path d="M1625.34 586.581C1615.62 576.864 1599.86 576.872 1590.13 586.598C1580.4 596.324 1580.4 612.086 1590.11 621.803C1599.83 631.52 1615.59 631.512 1625.32 621.786C1635.04 612.06 1635.05 596.298 1625.34 586.581Z" fill="#284EAE"/>
<path d="M1525.69 682.892C1515.97 673.175 1500.21 673.183 1490.49 682.909C1480.76 692.635 1480.75 708.397 1490.47 718.114C1500.19 727.831 1515.95 727.823 1525.67 718.097C1535.4 708.37 1535.41 692.609 1525.69 682.892Z" fill="#284EAE"/>
<path d="M1425.99 875.484C1416.27 865.767 1400.51 865.775 1390.79 875.501C1381.06 885.227 1381.05 900.989 1390.77 910.706C1400.49 920.423 1416.25 920.415 1425.97 910.689C1435.7 900.963 1435.71 885.201 1425.99 875.484Z" fill="#284EAE"/>
<path d="M1390.82 814.434C1400.53 824.152 1416.29 824.144 1426.02 814.417C1435.75 804.689 1435.76 788.93 1426.04 779.212C1416.32 769.494 1400.56 769.502 1390.83 779.229C1381.11 788.957 1381.1 804.716 1390.82 814.434Z" fill="#284EAE"/>
<path d="M1426.08 682.94C1416.37 673.223 1400.61 673.231 1390.88 682.957C1381.15 692.683 1381.15 708.445 1390.86 718.162C1400.58 727.879 1416.34 727.871 1426.07 718.145C1435.79 708.419 1435.8 692.657 1426.08 682.94Z" fill="#284EAE"/>
<path d="M1426.14 586.678C1416.42 576.961 1400.66 576.968 1390.94 586.695C1381.21 596.421 1381.2 612.183 1390.92 621.899C1400.64 631.616 1416.4 631.609 1426.12 621.882C1435.85 612.156 1435.86 596.394 1426.14 586.678Z" fill="#284EAE"/>
<path d="M1326.38 875.532C1316.67 865.816 1300.91 865.823 1291.18 875.549C1281.45 885.276 1281.44 901.038 1291.16 910.754C1300.88 920.471 1316.64 920.464 1326.37 910.737C1336.09 901.011 1336.1 885.249 1326.38 875.532Z" fill="#284EAE"/>
<path d="M1326.71 201.647C1316.99 191.93 1301.23 191.938 1291.5 201.664C1281.78 211.39 1281.77 227.152 1291.49 236.869C1301.2 246.586 1316.97 246.578 1326.69 236.852C1336.42 227.126 1336.43 211.364 1326.71 201.647Z" fill="#284EAE"/>
<path d="M1326.77 105.384C1317.05 95.6676 1301.29 95.6753 1291.56 105.402C1281.83 115.128 1281.83 130.889 1291.54 140.606C1301.26 150.323 1317.02 150.316 1326.75 140.589C1336.48 130.863 1336.48 115.101 1326.77 105.384Z" fill="#284EAE"/>
<path d="M1291.59 44.3343C1301.31 54.0523 1317.07 54.0447 1326.8 44.3172C1336.52 34.5897 1336.53 18.8304 1326.81 9.11231C1317.09 -0.605766 1301.34 -0.59803 1291.61 9.12946C1281.88 18.857 1281.87 34.6162 1291.59 44.3343Z" fill="#284EAE"/>
<path d="M1226.79 875.571C1217.07 865.854 1201.31 865.862 1191.58 875.588C1181.86 885.314 1181.85 901.076 1191.56 910.793C1201.28 920.51 1217.04 920.502 1226.77 910.776C1236.5 901.049 1236.5 885.288 1226.79 875.571Z" fill="#284EAE"/>
<path d="M1226.93 586.774C1217.21 577.057 1201.45 577.065 1191.72 586.791C1181.99 596.517 1181.99 612.279 1191.7 621.996C1201.42 631.713 1217.18 631.705 1226.91 621.979C1236.64 612.253 1236.64 596.491 1226.93 586.774Z" fill="#284EAE"/>
<path d="M1227.11 201.705C1217.4 191.988 1201.63 191.996 1191.91 201.722C1182.18 211.448 1182.17 227.21 1191.89 236.927C1201.61 246.644 1217.37 246.636 1227.1 236.91C1236.82 227.183 1236.83 211.422 1227.11 201.705Z" fill="#284EAE"/>
<path d="M1227.21 9.16052C1217.49 -0.556332 1201.73 -0.548595 1192 9.17766C1182.27 18.9039 1182.27 34.6656 1191.98 44.3825C1201.7 54.0993 1217.46 54.0917 1227.19 44.3654C1236.91 34.6391 1236.92 18.8774 1227.21 9.16052Z" fill="#284EAE"/>
<path d="M1127.19 875.629C1117.47 865.912 1101.71 865.92 1091.98 875.646C1082.26 885.372 1082.25 901.134 1091.97 910.851C1101.68 920.568 1117.45 920.56 1127.17 910.834C1136.9 901.107 1136.91 885.346 1127.19 875.629Z" fill="#284EAE"/>
<path d="M1127.24 779.357C1117.52 769.64 1101.76 769.647 1092.03 779.374C1082.3 789.1 1082.3 804.862 1092.01 814.579C1101.73 824.295 1117.49 824.288 1127.22 814.561C1136.94 804.835 1136.95 789.074 1127.24 779.357Z" fill="#284EAE"/>
<path d="M1092.05 718.316C1101.77 728.034 1117.53 728.027 1127.25 718.299C1136.98 708.572 1136.99 692.812 1127.27 683.094C1117.55 673.376 1101.79 673.384 1092.07 683.111C1082.34 692.839 1082.33 708.598 1092.05 718.316Z" fill="#284EAE"/>
<path d="M1127.32 586.822C1117.6 577.105 1101.84 577.113 1092.11 586.839C1082.39 596.565 1082.38 612.327 1092.1 622.044C1101.81 631.761 1117.58 631.753 1127.3 622.027C1137.03 612.301 1137.04 596.539 1127.32 586.822Z" fill="#284EAE"/>
<path d="M1127.36 490.55C1117.65 480.833 1101.89 480.841 1092.16 490.567C1082.43 500.293 1082.43 516.055 1092.14 525.772C1101.86 535.489 1117.62 535.481 1127.35 525.755C1137.07 516.029 1137.08 500.267 1127.36 490.55Z" fill="#284EAE"/>
<path d="M1127.41 394.278C1117.69 384.561 1101.93 384.569 1092.21 394.295C1082.48 404.021 1082.47 419.783 1092.19 429.5C1101.91 439.217 1117.67 439.209 1127.39 429.483C1137.12 419.756 1137.13 403.995 1127.41 394.278Z" fill="#284EAE"/>
<path d="M1092.25 333.237C1101.96 342.956 1117.72 342.948 1127.45 333.22C1137.18 323.493 1137.19 307.734 1127.47 298.015C1117.75 288.297 1101.99 288.305 1092.26 298.033C1082.54 307.76 1082.53 323.519 1092.25 333.237Z" fill="#284EAE"/>
<path d="M1127.51 201.743C1117.8 192.027 1102.04 192.034 1092.31 201.76C1082.58 211.487 1082.58 227.248 1092.29 236.965C1102.01 246.682 1117.77 246.674 1127.5 236.948C1137.22 227.222 1137.23 211.46 1127.51 201.743Z" fill="#284EAE"/>
<path d="M1027.58 875.677C1017.86 865.96 1002.1 865.968 992.376 875.694C982.65 885.42 982.642 901.182 992.359 910.899C1002.08 920.616 1017.84 920.608 1027.56 910.882C1037.29 901.156 1037.3 885.394 1027.58 875.677Z" fill="#284EAE"/>
<path d="M1027.76 490.598C1018.04 480.881 1002.28 480.889 992.553 490.615C982.827 500.341 982.819 516.103 992.536 525.82C1002.25 535.537 1018.01 535.529 1027.74 525.803C1037.47 516.077 1037.47 500.315 1027.76 490.598Z" fill="#284EAE"/>
<path d="M1027.86 298.064C1018.14 288.347 1002.38 288.354 992.656 298.081C982.93 307.807 982.921 323.569 992.638 333.286C1002.35 343.003 1018.12 342.995 1027.84 333.268C1037.57 323.542 1037.58 307.781 1027.86 298.064Z" fill="#284EAE"/>
<path d="M1027.99 9.25693C1018.27 -0.459924 1002.51 -0.452362 992.786 9.2739C983.059 19.0002 983.052 34.762 992.769 44.4789C1002.49 54.1957 1018.25 54.188 1027.97 44.4617C1037.7 34.7355 1037.71 18.9738 1027.99 9.25693Z" fill="#284EAE"/>
</g>
</svg>
