<svg width="775" height="1062" viewBox="0 0 775 1062" fill="none" xmlns="http://www.w3.org/2000/svg">
<path d="M734.79 175.266C726.452 183.318 726.227 196.61 734.286 204.956C742.345 213.301 755.637 213.54 763.975 205.488C772.312 197.437 772.538 184.145 764.479 175.799C756.419 167.454 743.127 167.215 734.79 175.266Z" fill="#2548A0"/>
<path d="M653.602 173.81C645.265 181.861 645.039 195.154 653.098 203.499C661.158 211.845 674.45 212.083 682.787 204.032C691.125 195.981 691.35 182.688 683.291 174.343C675.232 165.997 661.94 165.759 653.602 173.81Z" fill="#2548A0"/>
<path d="M733.364 259.268C725.027 267.319 724.801 280.612 732.86 288.957C740.92 297.303 754.212 297.541 762.549 289.49C770.887 281.439 771.112 268.146 763.053 259.801C754.994 251.455 741.702 251.217 733.364 259.268Z" fill="#2548A0"/>
<path d="M652.177 257.812C643.839 265.863 643.614 279.155 651.673 287.501C659.732 295.846 673.024 296.085 681.362 288.034C689.699 279.982 689.925 266.69 681.865 258.344C673.806 249.999 660.514 249.76 652.177 257.812Z" fill="#2548A0"/>
<path d="M570.997 256.347C562.66 264.399 562.434 277.691 570.494 286.036C578.553 294.382 591.845 294.62 600.182 286.569C608.52 278.518 608.745 265.225 600.686 256.88C592.627 248.534 579.335 248.296 570.997 256.347Z" fill="#2548A0"/>
<path d="M518.995 285.112C527.333 277.06 527.559 263.77 519.499 255.423C511.438 247.077 498.148 246.838 489.81 254.891C481.471 262.943 481.246 276.233 489.306 284.58C497.366 292.926 510.656 293.165 518.995 285.112Z" fill="#2548A0"/>
<path d="M327.434 251.978C319.097 260.03 318.871 273.322 326.93 281.668C334.989 290.013 348.281 290.252 356.619 282.2C364.956 274.149 365.182 260.857 357.123 252.511C349.063 244.166 335.771 243.927 327.434 251.978Z" fill="#2548A0"/>
<path d="M246.254 250.531C237.917 258.582 237.691 271.874 245.751 280.22C253.81 288.565 267.102 288.804 275.439 280.752C283.777 272.701 284.002 259.409 275.943 251.063C267.884 242.718 254.592 242.479 246.254 250.531Z" fill="#2548A0"/>
<path d="M731.931 343.261C723.593 351.313 723.367 364.605 731.427 372.951C739.486 381.296 752.778 381.535 761.115 373.483C769.453 365.432 769.678 352.139 761.619 343.794C753.56 335.448 740.268 335.21 731.931 343.261Z" fill="#2548A0"/>
<path d="M650.759 341.805C642.422 349.857 642.196 363.149 650.256 371.494C658.315 379.84 671.607 380.078 679.944 372.027C688.282 363.976 688.507 350.683 680.448 342.338C672.389 333.992 659.097 333.754 650.759 341.805Z" fill="#2548A0"/>
<path d="M569.572 340.349C561.234 348.4 561.009 361.692 569.068 370.038C577.127 378.384 590.419 378.622 598.757 370.571C607.094 362.519 607.32 349.227 599.261 340.881C591.202 332.536 577.909 332.297 569.572 340.349Z" fill="#2548A0"/>
<path d="M517.569 369.114C525.908 361.062 526.133 347.772 518.073 339.425C510.013 331.078 496.723 330.84 488.384 338.892C480.046 346.945 479.82 360.235 487.881 368.581C495.941 376.928 509.231 377.167 517.569 369.114Z" fill="#2548A0"/>
<path d="M759.698 457.477C768.037 449.424 768.262 436.134 760.202 427.787C752.142 419.441 738.852 419.202 730.513 427.255C722.175 435.307 721.949 448.597 730.009 456.944C738.07 465.291 751.36 465.529 759.698 457.477Z" fill="#2548A0"/>
<path d="M649.326 425.798C640.988 433.85 640.763 447.142 648.822 455.488C656.881 463.833 670.173 464.072 678.511 456.02C686.848 447.969 687.074 434.676 679.014 426.331C670.955 417.985 657.663 417.747 649.326 425.798Z" fill="#2548A0"/>
<path d="M486.958 422.895C478.621 430.946 478.395 444.238 486.454 452.584C494.513 460.929 507.805 461.168 516.143 453.116C524.48 445.065 524.706 431.773 516.647 423.427C508.587 415.082 495.295 414.843 486.958 422.895Z" fill="#2548A0"/>
<path d="M758.273 541.478C766.611 533.426 766.837 520.136 758.776 511.789C750.716 503.442 737.426 503.204 729.088 511.256C720.749 519.309 720.524 532.599 728.584 540.946C736.644 549.292 749.934 549.531 758.273 541.478Z" fill="#2548A0"/>
<path d="M647.9 509.8C639.563 517.851 639.337 531.144 647.396 539.489C655.455 547.835 668.748 548.073 677.085 540.022C685.423 531.97 685.648 518.678 677.589 510.333C669.53 501.987 656.238 501.749 647.9 509.8Z" fill="#2548A0"/>
<path d="M566.712 508.344C558.374 516.396 558.149 529.688 566.208 538.034C574.267 546.379 587.559 546.617 595.897 538.566C604.234 530.515 604.46 517.222 596.401 508.877C588.341 500.531 575.049 500.293 566.712 508.344Z" fill="#2548A0"/>
<path d="M485.532 506.896C477.195 514.948 476.969 528.24 485.029 536.586C493.088 544.931 506.38 545.17 514.717 537.118C523.055 529.067 523.28 515.775 515.221 507.429C507.162 499.083 493.87 498.845 485.532 506.896Z" fill="#2548A0"/>
<path d="M433.538 535.654C441.876 527.601 442.102 514.311 434.042 505.964C425.982 497.618 412.692 497.379 404.353 505.432C396.015 513.484 395.789 526.774 403.849 535.121C411.91 543.468 425.199 543.706 433.538 535.654Z" fill="#2548A0"/>
<path d="M241.978 502.519C233.64 510.57 233.415 523.863 241.474 532.208C249.533 540.554 262.825 540.792 271.163 532.741C279.5 524.689 279.726 511.397 271.667 503.051C263.607 494.706 250.315 494.467 241.978 502.519Z" fill="#2548A0"/>
<path d="M727.662 595.258C719.325 603.309 719.099 616.602 727.158 624.948C735.217 633.293 748.51 633.531 756.847 625.48C765.184 617.428 765.41 604.136 757.351 595.791C749.292 587.445 736 587.207 727.662 595.258Z" fill="#2548A0"/>
<path d="M565.286 592.346C556.949 600.397 556.723 613.69 564.782 622.035C572.842 630.381 586.134 630.619 594.471 622.568C602.808 614.516 603.034 601.224 594.975 592.879C586.916 584.533 573.624 584.295 565.286 592.346Z" fill="#2548A0"/>
<path d="M484.107 590.881C475.77 598.933 475.544 612.225 483.603 620.571C491.662 628.916 504.954 629.155 513.292 621.103C521.629 613.052 521.855 599.76 513.796 591.414C505.736 583.068 492.444 582.83 484.107 590.881Z" fill="#2548A0"/>
<path d="M240.552 586.52C232.215 594.572 231.989 607.864 240.048 616.21C248.108 624.555 261.4 624.794 269.737 616.742C278.075 608.691 278.3 595.399 270.241 587.053C262.182 578.708 248.89 578.469 240.552 586.52Z" fill="#2548A0"/>
<path d="M726.236 679.26C717.898 687.312 717.673 700.604 725.732 708.95C733.791 717.295 747.083 717.534 755.421 709.482C763.758 701.431 763.984 688.139 755.925 679.793C747.865 671.448 734.573 671.209 726.236 679.26Z" fill="#2548A0"/>
<path d="M674.233 708.026C682.571 699.973 682.797 686.683 674.737 678.337C666.677 669.99 653.387 669.752 645.048 677.804C636.71 685.856 636.484 699.147 644.544 707.493C652.604 715.84 665.894 716.078 674.233 708.026Z" fill="#2548A0"/>
<path d="M563.869 676.339C555.531 684.391 555.306 697.683 563.365 706.029C571.424 714.374 584.716 714.613 593.054 706.561C601.391 698.51 601.617 685.218 593.558 676.872C585.498 668.527 572.206 668.288 563.869 676.339Z" fill="#2548A0"/>
<path d="M239.127 670.522C230.789 678.573 230.564 691.866 238.623 700.211C246.682 708.557 259.974 708.795 268.312 700.744C276.649 692.692 276.875 679.4 268.815 671.055C260.756 662.709 247.464 662.471 239.127 670.522Z" fill="#2548A0"/>
<path d="M724.802 763.254C716.465 771.305 716.239 784.597 724.298 792.943C732.357 801.288 745.65 801.527 753.987 793.476C762.325 785.424 762.55 772.132 754.491 763.786C746.432 755.441 733.14 755.202 724.802 763.254Z" fill="#2548A0"/>
<path d="M481.256 758.885C472.918 766.936 472.693 780.228 480.752 788.574C488.811 796.919 502.103 797.158 510.441 789.106C518.778 781.055 519.004 767.763 510.944 759.417C502.885 751.072 489.593 750.833 481.256 758.885Z" fill="#2548A0"/>
<path d="M400.068 757.428C391.731 765.48 391.505 778.772 399.564 787.117C407.624 795.463 420.916 795.701 429.253 787.65C437.591 779.599 437.816 766.306 429.757 757.961C421.698 749.615 408.406 749.377 400.068 757.428Z" fill="#2548A0"/>
<path d="M318.881 755.972C310.543 764.023 310.318 777.315 318.377 785.661C326.436 794.007 339.728 794.245 348.066 786.194C356.403 778.142 356.628 764.85 348.569 756.504C340.51 748.159 327.218 747.92 318.881 755.972Z" fill="#2548A0"/>
<path d="M266.878 784.737C275.216 776.685 275.442 763.395 267.382 755.048C259.322 746.701 246.032 746.463 237.693 754.515C229.355 762.568 229.129 775.858 237.189 784.205C245.25 792.551 258.539 792.79 266.878 784.737Z" fill="#2548A0"/>
<path d="M723.385 847.247C715.047 855.299 714.822 868.591 722.881 876.936C730.94 885.282 744.232 885.52 752.57 877.469C760.907 869.418 761.133 856.125 753.074 847.78C745.014 839.434 731.722 839.196 723.385 847.247Z" fill="#2548A0"/>
<path d="M642.197 845.791C633.86 853.842 633.634 867.135 641.693 875.48C649.753 883.826 663.045 884.064 671.382 876.013C679.72 867.961 679.945 854.669 671.886 846.323C663.827 837.978 650.535 837.74 642.197 845.791Z" fill="#2548A0"/>
<path d="M739.4 16.7114C731.063 24.7628 730.837 38.0552 738.896 46.4007C746.956 54.7462 760.248 54.9846 768.585 46.9332C776.923 38.8819 777.148 25.5896 769.089 17.2441C761.03 8.89854 747.738 8.66006 739.4 16.7114Z" fill="#2548A0"/>
<path d="M658.213 15.2551C649.875 23.3064 649.65 36.5987 657.709 44.9442C665.768 53.2897 679.06 53.5282 687.398 45.4768C695.735 37.4254 695.961 24.1331 687.901 15.7876C679.842 7.44208 666.55 7.20367 658.213 15.2551Z" fill="#2548A0"/>
<path d="M606.218 44.0288C614.557 35.9764 614.782 22.6861 606.722 14.3395C598.662 5.99295 585.372 5.75453 577.033 13.8069C568.695 21.8593 568.469 35.1496 576.529 43.4961C584.59 51.8427 597.88 52.0812 606.218 44.0288Z" fill="#2548A0"/>
<path d="M495.846 12.3505C487.508 20.4019 487.283 33.6942 495.342 42.0397C503.401 50.3853 516.693 50.6237 525.03 42.5724C533.368 34.521 533.594 21.2286 525.534 12.8831C517.475 4.53759 504.183 4.29913 495.846 12.3505Z" fill="#2548A0"/>
<path d="M414.658 10.8942C406.321 18.9456 406.095 32.238 414.154 40.5835C422.213 48.929 435.505 49.1673 443.843 41.1159C452.18 33.0646 452.406 19.7723 444.347 11.4268C436.288 3.08126 422.996 2.84281 414.658 10.8942Z" fill="#2548A0"/>
<path d="M333.471 9.43791C325.133 17.4893 324.907 30.7815 332.967 39.1271C341.026 47.4726 354.318 47.7112 362.656 39.6598C370.993 31.6084 371.218 18.3159 363.159 9.97041C355.1 1.62489 341.808 1.38652 333.471 9.43791Z" fill="#2548A0"/>
<path d="M281.477 38.1954C289.815 30.143 290.04 16.8527 281.98 8.50616C273.92 0.159582 260.63 -0.0788346 252.292 7.97357C243.953 16.026 243.728 29.3162 251.788 37.6628C259.848 46.0094 273.138 46.2478 281.477 38.1954Z" fill="#2548A0"/>
<path d="M171.104 6.51694C162.766 14.5683 162.541 27.8605 170.6 36.2061C178.659 44.5516 191.951 44.79 200.289 36.7386C208.626 28.6872 208.852 15.3949 200.792 7.0494C192.733 -1.29613 179.441 -1.53445 171.104 6.51694Z" fill="#2548A0"/>
<path d="M737.975 100.713C729.637 108.764 729.412 122.057 737.471 130.402C745.53 138.748 758.822 138.986 767.16 130.935C775.497 122.883 775.723 109.591 767.663 101.246C759.604 92.9001 746.312 92.6616 737.975 100.713Z" fill="#2548A0"/>
<path d="M413.232 94.8957C404.895 102.947 404.669 116.239 412.729 124.585C420.788 132.931 434.08 133.169 442.417 125.118C450.755 117.066 450.98 103.774 442.921 95.4283C434.862 87.0828 421.57 86.8443 413.232 94.8957Z" fill="#2548A0"/>
<path d="M250.866 91.975C242.528 100.026 242.303 113.318 250.362 121.664C258.421 130.009 271.714 130.249 280.051 122.197C288.388 114.146 288.613 100.853 280.554 92.5074C272.495 84.1619 259.203 83.9236 250.866 91.975Z" fill="#2548A0"/>
<path d="M7.31107 87.614C-1.02638 95.6653 -1.252 108.958 6.80718 117.303C14.8664 125.649 28.1585 125.887 36.496 117.836C44.8334 109.784 45.059 96.4922 36.9998 88.1467C28.9406 79.8012 15.6485 79.5626 7.31107 87.614Z" fill="#2548A0"/>
<path d="M726.235 937.778C717.898 945.829 717.672 959.122 725.731 967.467C733.79 975.813 747.083 976.051 755.42 968C763.757 959.948 763.983 946.656 755.924 938.311C747.865 929.965 734.573 929.727 726.235 937.778Z" fill="#2548A0"/>
<path d="M563.868 934.857C555.531 942.909 555.305 956.201 563.364 964.546C571.424 972.892 584.716 973.13 593.053 965.079C601.391 957.028 601.616 943.735 593.557 935.39C585.498 927.044 572.206 926.806 563.868 934.857Z" fill="#2548A0"/>
<path d="M726.236 1025.78C717.898 1033.83 717.672 1047.12 725.731 1055.47C733.791 1063.81 747.083 1064.05 755.42 1056C763.758 1047.95 763.983 1034.66 755.924 1026.31C747.865 1017.97 734.573 1017.73 726.236 1025.78Z" fill="#2548A0"/>
<path d="M674.233 1054.54C682.571 1046.49 682.797 1033.2 674.737 1024.85C666.676 1016.51 653.386 1016.27 645.048 1024.32C636.709 1032.37 636.484 1045.66 644.544 1054.01C652.604 1062.36 665.894 1062.6 674.233 1054.54Z" fill="#2548A0"/>
</svg>
