<svg width="593" height="814" viewBox="0 0 593 814" fill="none" xmlns="http://www.w3.org/2000/svg">
<g opacity="0.2">
<path d="M562.868 134.763C556.481 140.931 556.308 151.113 562.482 157.507C568.655 163.9 578.838 164.082 585.225 157.915C591.612 151.747 591.784 141.564 585.611 135.171C579.437 128.778 569.254 128.595 562.868 134.763Z" fill="url(#paint0_linear_621_288)"/>
<path d="M500.673 133.647C494.287 139.815 494.114 149.998 500.287 156.391C506.461 162.784 516.644 162.967 523.031 156.799C529.418 150.631 529.59 140.448 523.417 134.055C517.243 127.662 507.06 127.48 500.673 133.647Z" fill="url(#paint1_linear_621_288)"/>
<path d="M561.775 199.113C555.388 205.281 555.216 215.463 561.389 221.856C567.563 228.25 577.746 228.432 584.133 222.264C590.52 216.097 590.692 205.914 584.519 199.521C578.345 193.128 568.162 192.945 561.775 199.113Z" fill="url(#paint2_linear_621_288)"/>
<path d="M499.581 197.997C493.194 204.165 493.022 214.348 499.195 220.741C505.369 227.134 515.552 227.316 521.939 221.149C528.326 214.981 528.498 204.798 522.325 198.405C516.151 192.012 505.968 191.829 499.581 197.997Z" fill="url(#paint3_linear_621_288)"/>
<path d="M437.394 196.875C431.007 203.043 430.834 213.226 437.008 219.619C443.182 226.012 453.364 226.195 459.751 220.027C466.138 213.859 466.311 203.676 460.137 197.283C453.963 190.89 443.781 190.707 437.394 196.875Z" fill="url(#paint4_linear_621_288)"/>
<path d="M397.557 218.911C403.945 212.742 404.117 202.561 397.943 196.167C391.768 189.774 381.588 189.591 375.2 195.759C368.812 201.928 368.639 212.109 374.814 218.503C380.988 224.897 391.169 225.08 397.557 218.911Z" fill="url(#paint5_linear_621_288)"/>
<path d="M250.811 193.529C244.424 199.696 244.251 209.879 250.425 216.272C256.599 222.665 266.781 222.848 273.168 216.68C279.555 210.512 279.728 200.33 273.554 193.937C267.38 187.544 257.198 187.361 250.811 193.529Z" fill="url(#paint6_linear_621_288)"/>
<path d="M188.623 192.419C182.236 198.587 182.063 208.77 188.237 215.163C194.411 221.556 204.593 221.739 210.98 215.571C217.367 209.403 217.54 199.22 211.366 192.827C205.193 186.434 195.01 186.252 188.623 192.419Z" fill="url(#paint7_linear_621_288)"/>
<path d="M560.677 263.456C554.29 269.624 554.117 279.807 560.291 286.2C566.465 292.593 576.647 292.775 583.034 286.608C589.421 280.44 589.594 270.257 583.42 263.864C577.247 257.471 567.064 257.288 560.677 263.456Z" fill="url(#paint8_linear_621_288)"/>
<path d="M498.496 262.341C492.109 268.508 491.936 278.691 498.11 285.084C504.284 291.477 514.466 291.66 520.853 285.492C527.24 279.324 527.413 269.142 521.239 262.749C515.065 256.356 504.883 256.173 498.496 262.341Z" fill="url(#paint9_linear_621_288)"/>
<path d="M436.302 261.225C429.915 267.393 429.742 277.575 435.916 283.968C442.09 290.362 452.272 290.544 458.659 284.376C465.046 278.209 465.219 268.026 459.045 261.633C452.871 255.24 442.689 255.057 436.302 261.225Z" fill="url(#paint10_linear_621_288)"/>
<path d="M396.465 283.261C402.853 277.092 403.025 266.911 396.851 260.517C390.676 254.123 380.495 253.941 374.108 260.109C367.72 266.278 367.547 276.459 373.722 282.853C379.896 289.247 390.077 289.429 396.465 283.261Z" fill="url(#paint11_linear_621_288)"/>
<path d="M581.949 350.951C588.336 344.783 588.509 334.602 582.335 328.208C576.16 321.814 565.979 321.631 559.591 327.8C553.204 333.968 553.031 344.149 559.206 350.543C565.38 356.937 575.561 357.12 581.949 350.951Z" fill="url(#paint12_linear_621_288)"/>
<path d="M497.397 326.684C491.011 332.852 490.838 343.034 497.011 349.427C503.185 355.821 513.368 356.003 519.755 349.835C526.142 343.668 526.314 333.485 520.141 327.092C513.967 320.699 503.784 320.516 497.397 326.684Z" fill="url(#paint13_linear_621_288)"/>
<path d="M373.015 324.459C366.628 330.627 366.455 340.81 372.629 347.203C378.803 353.596 388.985 353.779 395.372 347.611C401.759 341.443 401.932 331.261 395.758 324.868C389.584 318.474 379.402 318.292 373.015 324.459Z" fill="url(#paint14_linear_621_288)"/>
<path d="M580.857 415.301C587.244 409.132 587.417 398.951 581.243 392.557C575.068 386.163 564.887 385.981 558.499 392.149C552.112 398.318 551.939 408.499 558.113 414.893C564.288 421.287 574.469 421.469 580.857 415.301Z" fill="url(#paint15_linear_621_288)"/>
<path d="M496.305 391.034C489.918 397.201 489.745 407.384 495.919 413.777C502.093 420.17 512.276 420.353 518.663 414.185C525.05 408.017 525.222 397.835 519.049 391.442C512.875 385.049 502.692 384.866 496.305 391.034Z" fill="url(#paint16_linear_621_288)"/>
<path d="M434.111 389.919C427.724 396.086 427.551 406.269 433.725 412.662C439.899 419.055 450.081 419.238 456.468 413.07C462.855 406.902 463.028 396.72 456.854 390.327C450.68 383.933 440.498 383.751 434.111 389.919Z" fill="url(#paint17_linear_621_288)"/>
<path d="M371.923 388.809C365.536 394.977 365.363 405.16 371.537 411.553C377.711 417.946 387.893 418.129 394.28 411.961C400.667 405.793 400.84 395.611 394.666 389.217C388.492 382.824 378.31 382.642 371.923 388.809Z" fill="url(#paint18_linear_621_288)"/>
<path d="M332.092 410.839C338.48 404.67 338.653 394.489 332.478 388.095C326.304 381.702 316.123 381.519 309.735 387.687C303.347 393.856 303.175 404.037 309.349 410.431C315.524 416.825 325.705 417.008 332.092 410.839Z" fill="url(#paint19_linear_621_288)"/>
<path d="M185.347 385.456C178.96 391.624 178.787 401.806 184.961 408.2C191.135 414.593 201.317 414.775 207.704 408.608C214.091 402.44 214.264 392.257 208.09 385.864C201.917 379.471 191.734 379.288 185.347 385.456Z" fill="url(#paint20_linear_621_288)"/>
<path d="M557.407 456.499C551.02 462.667 550.847 472.85 557.021 479.243C563.195 485.636 573.378 485.818 579.765 479.651C586.151 473.483 586.324 463.3 580.151 456.907C573.977 450.514 563.794 450.331 557.407 456.499Z" fill="url(#paint21_linear_621_288)"/>
<path d="M433.019 454.268C426.632 460.436 426.459 470.619 432.633 477.012C438.806 483.405 448.989 483.588 455.376 477.42C461.763 471.252 461.935 461.069 455.762 454.676C449.588 448.283 439.406 448.101 433.019 454.268Z" fill="url(#paint22_linear_621_288)"/>
<path d="M370.831 453.146C364.444 459.314 364.271 469.497 370.445 475.89C376.619 482.283 386.801 482.466 393.188 476.298C399.575 470.13 399.748 459.948 393.574 453.554C387.4 447.161 377.218 446.979 370.831 453.146Z" fill="url(#paint23_linear_621_288)"/>
<path d="M184.255 449.806C177.868 455.974 177.695 466.156 183.869 472.549C190.043 478.943 200.225 479.125 206.612 472.957C212.999 466.789 213.172 456.607 206.998 450.214C200.824 443.821 190.642 443.638 184.255 449.806Z" fill="url(#paint24_linear_621_288)"/>
<path d="M556.315 520.849C549.928 527.017 549.755 537.2 555.929 543.593C562.102 549.986 572.285 550.169 578.672 544.001C585.059 537.833 585.232 527.651 579.058 521.257C572.884 514.864 562.702 514.682 556.315 520.849Z" fill="url(#paint25_linear_621_288)"/>
<path d="M516.478 542.885C522.865 536.717 523.038 526.536 516.864 520.142C510.689 513.748 500.508 513.565 494.12 519.734C487.733 525.902 487.56 536.083 493.735 542.477C499.909 548.871 510.09 549.054 516.478 542.885Z" fill="url(#paint26_linear_621_288)"/>
<path d="M431.933 518.612C425.546 524.78 425.373 534.962 431.547 541.355C437.721 547.749 447.903 547.931 454.29 541.763C460.677 535.596 460.85 525.413 454.676 519.02C448.502 512.627 438.32 512.444 431.933 518.612Z" fill="url(#paint27_linear_621_288)"/>
<path d="M183.163 514.155C176.776 520.323 176.603 530.506 182.777 536.899C188.951 543.292 199.133 543.475 205.52 537.307C211.907 531.139 212.08 520.957 205.906 514.563C199.732 508.17 189.55 507.988 183.163 514.155Z" fill="url(#paint28_linear_621_288)"/>
<path d="M555.216 585.193C548.83 591.361 548.657 601.543 554.83 607.936C561.004 614.329 571.187 614.512 577.574 608.344C583.961 602.177 584.133 591.994 577.96 585.601C571.786 579.208 561.603 579.025 555.216 585.193Z" fill="url(#paint29_linear_621_288)"/>
<path d="M368.647 581.846C362.26 588.014 362.087 598.196 368.261 604.589C374.435 610.983 384.617 611.165 391.004 604.997C397.391 598.83 397.564 588.647 391.39 582.254C385.216 575.861 375.034 575.678 368.647 581.846Z" fill="url(#paint30_linear_621_288)"/>
<path d="M306.453 580.73C300.066 586.898 299.893 597.081 306.067 603.474C312.241 609.867 322.423 610.05 328.81 603.882C335.197 597.714 335.37 587.531 329.196 581.138C323.022 574.745 312.84 574.562 306.453 580.73Z" fill="url(#paint31_linear_621_288)"/>
<path d="M244.259 579.614C237.872 585.782 237.699 595.965 243.873 602.358C250.046 608.751 260.229 608.934 266.616 602.766C273.003 596.598 273.176 586.416 267.002 580.022C260.828 573.629 250.646 573.447 244.259 579.614Z" fill="url(#paint32_linear_621_288)"/>
<path d="M204.422 601.65C210.81 595.482 210.983 585.301 204.808 578.907C198.633 572.513 188.452 572.33 182.065 578.499C175.677 584.667 175.504 594.848 181.679 601.242C187.853 607.636 198.034 607.819 204.422 601.65Z" fill="url(#paint33_linear_621_288)"/>
<path d="M554.131 649.536C547.744 655.704 547.571 665.887 553.745 672.28C559.918 678.673 570.101 678.856 576.488 672.688C582.875 666.52 583.048 656.337 576.874 649.944C570.7 643.551 560.518 643.369 554.131 649.536Z" fill="url(#paint34_linear_621_288)"/>
<path d="M491.937 648.421C485.55 654.589 485.377 664.771 491.551 671.164C497.724 677.557 507.907 677.74 514.294 671.572C520.681 665.405 520.854 655.222 514.68 648.829C508.506 642.436 498.324 642.253 491.937 648.421Z" fill="url(#paint35_linear_621_288)"/>
<path d="M566.399 13.3014C560.012 19.4692 559.84 29.6519 566.013 36.0449C572.187 42.4381 582.37 42.6207 588.757 36.4529C595.143 30.2851 595.316 20.1025 589.142 13.7094C582.969 7.31629 572.786 7.13358 566.399 13.3014Z" fill="url(#paint36_linear_621_288)"/>
<path d="M504.205 12.1857C497.818 18.3535 497.646 28.5361 503.819 34.9292C509.993 41.3223 520.176 41.505 526.562 35.3372C532.949 29.1694 533.122 18.9868 526.948 12.5937C520.775 6.20057 510.592 6.01793 504.205 12.1857Z" fill="url(#paint37_linear_621_288)"/>
<path d="M464.375 34.228C470.762 28.0594 470.935 17.8783 464.761 11.4844C458.586 5.09044 448.405 4.90782 442.017 11.0764C435.63 17.245 435.457 27.426 441.631 33.8199C447.806 40.2138 457.987 40.3966 464.375 34.228Z" fill="url(#paint38_linear_621_288)"/>
<path d="M379.823 9.96067C373.436 16.1285 373.264 26.3111 379.437 32.7042C385.611 39.0973 395.794 39.28 402.181 33.1122C408.568 26.9444 408.74 16.7618 402.567 10.3687C396.393 3.97557 386.21 3.79288 379.823 9.96067Z" fill="url(#paint39_linear_621_288)"/>
<path d="M317.629 8.84504C311.242 15.0128 311.07 25.1955 317.243 31.5886C323.417 37.9818 333.6 38.1643 339.987 31.9966C346.373 25.8288 346.546 15.6462 340.373 9.25304C334.199 2.85995 324.016 2.67725 317.629 8.84504Z" fill="url(#paint40_linear_621_288)"/>
<path d="M255.436 7.72946C249.049 13.8973 248.876 24.0798 255.049 30.473C261.223 36.8661 271.406 37.0489 277.793 30.8811C284.18 24.7133 284.352 14.5305 278.179 8.13741C272.005 1.74427 261.822 1.56168 255.436 7.72946Z" fill="url(#paint41_linear_621_288)"/>
<path d="M215.605 29.7593C221.993 23.5907 222.166 13.4096 215.991 7.01572C209.817 0.621787 199.636 0.439159 193.248 6.60773C186.86 12.7763 186.687 22.9573 192.862 29.3512C199.037 35.7452 209.217 35.9279 215.605 29.7593Z" fill="url(#paint42_linear_621_288)"/>
<path d="M131.054 5.49184C124.667 11.6596 124.494 21.8422 130.668 28.2353C136.841 34.6284 147.024 34.8111 153.411 28.6433C159.798 22.4755 159.971 12.2928 153.797 5.89975C147.623 -0.493394 137.441 -0.675941 131.054 5.49184Z" fill="url(#paint43_linear_621_288)"/>
<path d="M565.307 77.6511C558.92 83.8189 558.747 94.0016 564.921 100.395C571.095 106.788 581.278 106.97 587.664 100.803C594.051 94.6349 594.224 84.4523 588.05 78.0591C581.877 71.666 571.694 71.4833 565.307 77.6511Z" fill="url(#paint44_linear_621_288)"/>
<path d="M316.537 73.1947C310.15 79.3625 309.978 89.5452 316.151 95.9383C322.325 102.331 332.508 102.514 338.894 96.3463C345.281 90.1785 345.454 79.9959 339.28 73.6027C333.107 67.2096 322.924 67.0269 316.537 73.1947Z" fill="url(#paint45_linear_621_288)"/>
<path d="M192.156 70.9573C185.769 77.1251 185.596 87.3075 191.77 93.7007C197.943 100.094 208.126 100.277 214.513 94.1091C220.9 87.9413 221.072 77.7583 214.899 71.3652C208.725 64.972 198.543 64.7895 192.156 70.9573Z" fill="url(#paint46_linear_621_288)"/>
<path d="M5.57977 67.6165C-0.807179 73.7843 -0.98002 83.9671 5.19372 90.3602C11.3675 96.7533 21.55 96.9359 27.937 90.7681C34.3239 84.6003 34.4966 74.4177 28.3229 68.0246C22.1491 61.6315 11.9667 61.4487 5.57977 67.6165Z" fill="url(#paint47_linear_621_288)"/>
<path d="M556.314 718.888C549.927 725.056 549.754 735.238 555.928 741.631C562.102 748.025 572.284 748.207 578.671 742.039C585.058 735.871 585.231 725.689 579.057 719.296C572.883 712.903 562.701 712.72 556.314 718.888Z" fill="url(#paint48_linear_621_288)"/>
<path d="M431.932 716.65C425.546 722.818 425.373 733.001 431.546 739.394C437.72 745.787 447.903 745.97 454.29 739.802C460.677 733.634 460.849 723.451 454.676 717.058C448.502 710.665 438.319 710.483 431.932 716.65Z" fill="url(#paint49_linear_621_288)"/>
<path d="M556.314 786.301C549.928 792.468 549.755 802.651 555.928 809.044C562.102 815.437 572.285 815.62 578.672 809.452C585.059 803.284 585.231 793.102 579.058 786.709C572.884 780.316 562.701 780.133 556.314 786.301Z" fill="url(#paint50_linear_621_288)"/>
<path d="M516.477 808.337C522.865 802.168 523.038 791.987 516.863 785.593C510.689 779.199 500.508 779.016 494.12 785.185C487.733 791.354 487.56 801.535 493.734 807.928C499.909 814.322 510.09 814.505 516.477 808.337Z" fill="url(#paint51_linear_621_288)"/>
</g>
<defs>
<linearGradient id="paint0_linear_621_288" x1="748.068" y1="263.36" x2="-582.929" y2="224.555" gradientUnits="userSpaceOnUse">
<stop stop-color="#7A6565"/>
<stop offset="0.530557" stop-color="#43677A" stop-opacity="0"/>
</linearGradient>
<linearGradient id="paint1_linear_621_288" x1="748.068" y1="263.36" x2="-582.929" y2="224.555" gradientUnits="userSpaceOnUse">
<stop stop-color="#7A6565"/>
<stop offset="0.530557" stop-color="#43677A" stop-opacity="0"/>
</linearGradient>
<linearGradient id="paint2_linear_621_288" x1="748.068" y1="263.36" x2="-582.929" y2="224.555" gradientUnits="userSpaceOnUse">
<stop stop-color="#7A6565"/>
<stop offset="0.530557" stop-color="#43677A" stop-opacity="0"/>
</linearGradient>
<linearGradient id="paint3_linear_621_288" x1="748.068" y1="263.36" x2="-582.929" y2="224.555" gradientUnits="userSpaceOnUse">
<stop stop-color="#7A6565"/>
<stop offset="0.530557" stop-color="#43677A" stop-opacity="0"/>
</linearGradient>
<linearGradient id="paint4_linear_621_288" x1="748.068" y1="263.36" x2="-582.929" y2="224.555" gradientUnits="userSpaceOnUse">
<stop stop-color="#7A6565"/>
<stop offset="0.530557" stop-color="#43677A" stop-opacity="0"/>
</linearGradient>
<linearGradient id="paint5_linear_621_288" x1="748.068" y1="263.36" x2="-582.929" y2="224.555" gradientUnits="userSpaceOnUse">
<stop stop-color="#7A6565"/>
<stop offset="0.530557" stop-color="#43677A" stop-opacity="0"/>
</linearGradient>
<linearGradient id="paint6_linear_621_288" x1="748.068" y1="263.36" x2="-582.929" y2="224.555" gradientUnits="userSpaceOnUse">
<stop stop-color="#7A6565"/>
<stop offset="0.530557" stop-color="#43677A" stop-opacity="0"/>
</linearGradient>
<linearGradient id="paint7_linear_621_288" x1="748.068" y1="263.36" x2="-582.929" y2="224.555" gradientUnits="userSpaceOnUse">
<stop stop-color="#7A6565"/>
<stop offset="0.530557" stop-color="#43677A" stop-opacity="0"/>
</linearGradient>
<linearGradient id="paint8_linear_621_288" x1="748.068" y1="263.36" x2="-582.929" y2="224.555" gradientUnits="userSpaceOnUse">
<stop stop-color="#7A6565"/>
<stop offset="0.530557" stop-color="#43677A" stop-opacity="0"/>
</linearGradient>
<linearGradient id="paint9_linear_621_288" x1="748.068" y1="263.36" x2="-582.929" y2="224.555" gradientUnits="userSpaceOnUse">
<stop stop-color="#7A6565"/>
<stop offset="0.530557" stop-color="#43677A" stop-opacity="0"/>
</linearGradient>
<linearGradient id="paint10_linear_621_288" x1="748.068" y1="263.36" x2="-582.929" y2="224.555" gradientUnits="userSpaceOnUse">
<stop stop-color="#7A6565"/>
<stop offset="0.530557" stop-color="#43677A" stop-opacity="0"/>
</linearGradient>
<linearGradient id="paint11_linear_621_288" x1="748.068" y1="263.36" x2="-582.929" y2="224.555" gradientUnits="userSpaceOnUse">
<stop stop-color="#7A6565"/>
<stop offset="0.530557" stop-color="#43677A" stop-opacity="0"/>
</linearGradient>
<linearGradient id="paint12_linear_621_288" x1="748.068" y1="263.36" x2="-582.929" y2="224.555" gradientUnits="userSpaceOnUse">
<stop stop-color="#7A6565"/>
<stop offset="0.530557" stop-color="#43677A" stop-opacity="0"/>
</linearGradient>
<linearGradient id="paint13_linear_621_288" x1="748.068" y1="263.36" x2="-582.929" y2="224.555" gradientUnits="userSpaceOnUse">
<stop stop-color="#7A6565"/>
<stop offset="0.530557" stop-color="#43677A" stop-opacity="0"/>
</linearGradient>
<linearGradient id="paint14_linear_621_288" x1="748.068" y1="263.36" x2="-582.929" y2="224.555" gradientUnits="userSpaceOnUse">
<stop stop-color="#7A6565"/>
<stop offset="0.530557" stop-color="#43677A" stop-opacity="0"/>
</linearGradient>
<linearGradient id="paint15_linear_621_288" x1="748.068" y1="263.36" x2="-582.929" y2="224.555" gradientUnits="userSpaceOnUse">
<stop stop-color="#7A6565"/>
<stop offset="0.530557" stop-color="#43677A" stop-opacity="0"/>
</linearGradient>
<linearGradient id="paint16_linear_621_288" x1="748.068" y1="263.36" x2="-582.929" y2="224.555" gradientUnits="userSpaceOnUse">
<stop stop-color="#7A6565"/>
<stop offset="0.530557" stop-color="#43677A" stop-opacity="0"/>
</linearGradient>
<linearGradient id="paint17_linear_621_288" x1="748.068" y1="263.36" x2="-582.929" y2="224.555" gradientUnits="userSpaceOnUse">
<stop stop-color="#7A6565"/>
<stop offset="0.530557" stop-color="#43677A" stop-opacity="0"/>
</linearGradient>
<linearGradient id="paint18_linear_621_288" x1="748.068" y1="263.36" x2="-582.929" y2="224.555" gradientUnits="userSpaceOnUse">
<stop stop-color="#7A6565"/>
<stop offset="0.530557" stop-color="#43677A" stop-opacity="0"/>
</linearGradient>
<linearGradient id="paint19_linear_621_288" x1="748.068" y1="263.36" x2="-582.929" y2="224.555" gradientUnits="userSpaceOnUse">
<stop stop-color="#7A6565"/>
<stop offset="0.530557" stop-color="#43677A" stop-opacity="0"/>
</linearGradient>
<linearGradient id="paint20_linear_621_288" x1="748.068" y1="263.36" x2="-582.929" y2="224.555" gradientUnits="userSpaceOnUse">
<stop stop-color="#7A6565"/>
<stop offset="0.530557" stop-color="#43677A" stop-opacity="0"/>
</linearGradient>
<linearGradient id="paint21_linear_621_288" x1="748.068" y1="263.36" x2="-582.929" y2="224.555" gradientUnits="userSpaceOnUse">
<stop stop-color="#7A6565"/>
<stop offset="0.530557" stop-color="#43677A" stop-opacity="0"/>
</linearGradient>
<linearGradient id="paint22_linear_621_288" x1="748.068" y1="263.36" x2="-582.929" y2="224.555" gradientUnits="userSpaceOnUse">
<stop stop-color="#7A6565"/>
<stop offset="0.530557" stop-color="#43677A" stop-opacity="0"/>
</linearGradient>
<linearGradient id="paint23_linear_621_288" x1="748.068" y1="263.36" x2="-582.929" y2="224.555" gradientUnits="userSpaceOnUse">
<stop stop-color="#7A6565"/>
<stop offset="0.530557" stop-color="#43677A" stop-opacity="0"/>
</linearGradient>
<linearGradient id="paint24_linear_621_288" x1="748.068" y1="263.36" x2="-582.929" y2="224.555" gradientUnits="userSpaceOnUse">
<stop stop-color="#7A6565"/>
<stop offset="0.530557" stop-color="#43677A" stop-opacity="0"/>
</linearGradient>
<linearGradient id="paint25_linear_621_288" x1="748.068" y1="263.36" x2="-582.929" y2="224.555" gradientUnits="userSpaceOnUse">
<stop stop-color="#7A6565"/>
<stop offset="0.530557" stop-color="#43677A" stop-opacity="0"/>
</linearGradient>
<linearGradient id="paint26_linear_621_288" x1="748.068" y1="263.36" x2="-582.929" y2="224.555" gradientUnits="userSpaceOnUse">
<stop stop-color="#7A6565"/>
<stop offset="0.530557" stop-color="#43677A" stop-opacity="0"/>
</linearGradient>
<linearGradient id="paint27_linear_621_288" x1="748.068" y1="263.36" x2="-582.929" y2="224.555" gradientUnits="userSpaceOnUse">
<stop stop-color="#7A6565"/>
<stop offset="0.530557" stop-color="#43677A" stop-opacity="0"/>
</linearGradient>
<linearGradient id="paint28_linear_621_288" x1="748.068" y1="263.36" x2="-582.929" y2="224.555" gradientUnits="userSpaceOnUse">
<stop stop-color="#7A6565"/>
<stop offset="0.530557" stop-color="#43677A" stop-opacity="0"/>
</linearGradient>
<linearGradient id="paint29_linear_621_288" x1="748.068" y1="263.36" x2="-582.929" y2="224.555" gradientUnits="userSpaceOnUse">
<stop stop-color="#7A6565"/>
<stop offset="0.530557" stop-color="#43677A" stop-opacity="0"/>
</linearGradient>
<linearGradient id="paint30_linear_621_288" x1="748.068" y1="263.36" x2="-582.929" y2="224.555" gradientUnits="userSpaceOnUse">
<stop stop-color="#7A6565"/>
<stop offset="0.530557" stop-color="#43677A" stop-opacity="0"/>
</linearGradient>
<linearGradient id="paint31_linear_621_288" x1="748.068" y1="263.36" x2="-582.929" y2="224.555" gradientUnits="userSpaceOnUse">
<stop stop-color="#7A6565"/>
<stop offset="0.530557" stop-color="#43677A" stop-opacity="0"/>
</linearGradient>
<linearGradient id="paint32_linear_621_288" x1="748.068" y1="263.36" x2="-582.929" y2="224.555" gradientUnits="userSpaceOnUse">
<stop stop-color="#7A6565"/>
<stop offset="0.530557" stop-color="#43677A" stop-opacity="0"/>
</linearGradient>
<linearGradient id="paint33_linear_621_288" x1="748.068" y1="263.36" x2="-582.929" y2="224.555" gradientUnits="userSpaceOnUse">
<stop stop-color="#7A6565"/>
<stop offset="0.530557" stop-color="#43677A" stop-opacity="0"/>
</linearGradient>
<linearGradient id="paint34_linear_621_288" x1="748.068" y1="263.36" x2="-582.929" y2="224.555" gradientUnits="userSpaceOnUse">
<stop stop-color="#7A6565"/>
<stop offset="0.530557" stop-color="#43677A" stop-opacity="0"/>
</linearGradient>
<linearGradient id="paint35_linear_621_288" x1="748.068" y1="263.36" x2="-582.929" y2="224.555" gradientUnits="userSpaceOnUse">
<stop stop-color="#7A6565"/>
<stop offset="0.530557" stop-color="#43677A" stop-opacity="0"/>
</linearGradient>
<linearGradient id="paint36_linear_621_288" x1="748.068" y1="263.36" x2="-582.929" y2="224.555" gradientUnits="userSpaceOnUse">
<stop stop-color="#7A6565"/>
<stop offset="0.530557" stop-color="#43677A" stop-opacity="0"/>
</linearGradient>
<linearGradient id="paint37_linear_621_288" x1="748.068" y1="263.36" x2="-582.929" y2="224.555" gradientUnits="userSpaceOnUse">
<stop stop-color="#7A6565"/>
<stop offset="0.530557" stop-color="#43677A" stop-opacity="0"/>
</linearGradient>
<linearGradient id="paint38_linear_621_288" x1="748.068" y1="263.36" x2="-582.929" y2="224.555" gradientUnits="userSpaceOnUse">
<stop stop-color="#7A6565"/>
<stop offset="0.530557" stop-color="#43677A" stop-opacity="0"/>
</linearGradient>
<linearGradient id="paint39_linear_621_288" x1="748.068" y1="263.36" x2="-582.929" y2="224.555" gradientUnits="userSpaceOnUse">
<stop stop-color="#7A6565"/>
<stop offset="0.530557" stop-color="#43677A" stop-opacity="0"/>
</linearGradient>
<linearGradient id="paint40_linear_621_288" x1="748.068" y1="263.36" x2="-582.929" y2="224.555" gradientUnits="userSpaceOnUse">
<stop stop-color="#7A6565"/>
<stop offset="0.530557" stop-color="#43677A" stop-opacity="0"/>
</linearGradient>
<linearGradient id="paint41_linear_621_288" x1="748.068" y1="263.36" x2="-582.929" y2="224.555" gradientUnits="userSpaceOnUse">
<stop stop-color="#7A6565"/>
<stop offset="0.530557" stop-color="#43677A" stop-opacity="0"/>
</linearGradient>
<linearGradient id="paint42_linear_621_288" x1="748.068" y1="263.36" x2="-582.929" y2="224.555" gradientUnits="userSpaceOnUse">
<stop stop-color="#7A6565"/>
<stop offset="0.530557" stop-color="#43677A" stop-opacity="0"/>
</linearGradient>
<linearGradient id="paint43_linear_621_288" x1="748.068" y1="263.36" x2="-582.929" y2="224.555" gradientUnits="userSpaceOnUse">
<stop stop-color="#7A6565"/>
<stop offset="0.530557" stop-color="#43677A" stop-opacity="0"/>
</linearGradient>
<linearGradient id="paint44_linear_621_288" x1="748.068" y1="263.36" x2="-582.929" y2="224.555" gradientUnits="userSpaceOnUse">
<stop stop-color="#7A6565"/>
<stop offset="0.530557" stop-color="#43677A" stop-opacity="0"/>
</linearGradient>
<linearGradient id="paint45_linear_621_288" x1="748.068" y1="263.36" x2="-582.929" y2="224.555" gradientUnits="userSpaceOnUse">
<stop stop-color="#7A6565"/>
<stop offset="0.530557" stop-color="#43677A" stop-opacity="0"/>
</linearGradient>
<linearGradient id="paint46_linear_621_288" x1="748.068" y1="263.36" x2="-582.929" y2="224.555" gradientUnits="userSpaceOnUse">
<stop stop-color="#7A6565"/>
<stop offset="0.530557" stop-color="#43677A" stop-opacity="0"/>
</linearGradient>
<linearGradient id="paint47_linear_621_288" x1="748.068" y1="263.36" x2="-582.929" y2="224.555" gradientUnits="userSpaceOnUse">
<stop stop-color="#7A6565"/>
<stop offset="0.530557" stop-color="#43677A" stop-opacity="0"/>
</linearGradient>
<linearGradient id="paint48_linear_621_288" x1="748.068" y1="263.36" x2="-582.929" y2="224.555" gradientUnits="userSpaceOnUse">
<stop stop-color="#7A6565"/>
<stop offset="0.530557" stop-color="#43677A" stop-opacity="0"/>
</linearGradient>
<linearGradient id="paint49_linear_621_288" x1="748.068" y1="263.36" x2="-582.929" y2="224.555" gradientUnits="userSpaceOnUse">
<stop stop-color="#7A6565"/>
<stop offset="0.530557" stop-color="#43677A" stop-opacity="0"/>
</linearGradient>
<linearGradient id="paint50_linear_621_288" x1="748.068" y1="263.36" x2="-582.929" y2="224.555" gradientUnits="userSpaceOnUse">
<stop stop-color="#7A6565"/>
<stop offset="0.530557" stop-color="#43677A" stop-opacity="0"/>
</linearGradient>
<linearGradient id="paint51_linear_621_288" x1="748.068" y1="263.36" x2="-582.929" y2="224.555" gradientUnits="userSpaceOnUse">
<stop stop-color="#7A6565"/>
<stop offset="0.530557" stop-color="#43677A" stop-opacity="0"/>
</linearGradient>
</defs>
</svg>
