<svg width="40" height="38" viewBox="0 0 40 38" fill="none" xmlns="http://www.w3.org/2000/svg">
<path d="M14.6128 37.1994C14.0116 37.2036 13.4254 37.0162 12.9434 36.6657L1.11774 27.9909C0.821912 27.7757 0.572846 27.5053 0.384984 27.1955C0.197122 26.8856 0.0742016 26.5425 0.0233524 26.1859C-0.0715043 25.4701 0.124926 24.7465 0.570545 24.1702L3.27165 20.6792C3.49235 20.3907 3.76958 20.1478 4.08727 19.9646C4.40496 19.7813 4.75679 19.6615 5.12235 19.6119C5.85632 19.5194 6.59825 19.7109 7.18913 20.1455L13.3511 24.6733L31.5653 1.08615C31.7859 0.799789 32.0623 0.55874 32.3786 0.376842C32.6949 0.194944 33.045 0.0757801 33.4086 0.0261921C33.7723 -0.0233959 34.1425 -0.00243107 34.4978 0.0878832C34.8532 0.178197 35.1867 0.336082 35.4793 0.552471L38.881 3.06789C39.4643 3.49376 39.8554 4.12379 39.9719 4.82528C40.0245 5.18365 40.0031 5.54864 39.9092 5.89887C39.8152 6.24909 39.6505 6.57749 39.4247 6.86481L16.8399 36.0981C16.4015 36.6739 15.7476 37.0575 15.0206 37.1654H14.6128V37.1994ZM5.48831 22.3346L2.81508 25.829L14.6128 34.446L18.0981 29.8843L37.1627 5.1924L33.7646 2.70757L15.5643 26.3015C15.1241 26.8758 14.4692 27.2573 13.7421 27.363C13.0149 27.4686 12.2744 27.2899 11.6817 26.8658L5.51968 22.3346H5.48831Z" fill="#F1652F"/>
</svg>
