<svg width="1635" height="237" viewBox="0 0 1635 237" fill="none" xmlns="http://www.w3.org/2000/svg">
<rect y="128" width="1635" height="109" fill="#224292"/>
<path d="M666.455 12.2831V147.513H0C0 147.391 0.021806 147.27 0.021806 147.163C0.0436119 126.084 0.0545149 105.005 0.0763208 83.9102C0.0763208 83.439 0.119933 82.9831 0.152642 82.512C0.359798 82.4664 0.468828 82.4208 0.577858 82.4208C3.00922 82.436 5.44059 82.4664 7.87195 82.4816C9.34385 82.4816 10.8267 82.512 12.2986 82.4968C14.7626 82.4816 17.2267 82.436 19.6799 82.4208C19.8216 82.4208 19.9743 82.4208 20.116 82.4664C21.1191 82.664 21.4134 83.0439 21.5661 84.4269C21.6206 84.9436 21.6315 85.4755 21.6315 85.9923C21.6315 88.4087 21.5879 90.8403 21.5879 93.2568C21.5879 100.734 21.5879 108.196 21.5879 115.673C21.5879 116.403 21.5988 117.132 21.686 117.847C21.7951 118.88 22.3075 119.351 23.1361 119.321C23.8448 119.291 24.2373 118.804 24.3245 117.756C24.3682 117.315 24.3463 116.874 24.3463 116.418C24.3354 96.4179 24.3136 76.4329 24.3027 56.4326C24.3027 55.384 24.3027 54.3353 24.3573 53.2867C24.4336 51.7821 24.837 51.159 25.9164 51.0678C26.8976 50.9918 27.8789 51.0526 28.8711 51.0526C34.5188 51.0678 40.1666 51.0982 45.8143 51.0982C46.3595 51.0982 46.9046 50.9918 47.4498 50.9006C48.0712 50.779 48.4528 50.2472 48.551 49.4113C48.6382 48.6666 48.66 47.8915 48.66 47.1316C48.66 44.0161 48.6273 40.9157 48.66 37.8002C48.6709 36.0828 49.0198 35.6269 50.2191 35.6269C52.2471 35.6269 54.275 35.6269 56.303 35.6269C56.7936 35.6269 57.2842 35.6573 57.7749 35.5965C58.7779 35.4901 59.1596 34.9582 59.2686 33.56C59.3013 33.1952 59.2904 32.8305 59.2904 32.4657C59.2904 31.7362 59.2359 31.0068 59.2795 30.2925C59.334 29.1982 59.5957 28.7119 60.3698 28.5903C61.6018 28.3928 62.8448 28.2712 64.0768 28.2256C65.1453 28.18 66.2138 28.2864 67.2932 28.3016C67.5439 28.3016 67.7947 28.2104 68.1218 28.1496C68.1218 27.6329 68.1218 27.1921 68.1218 26.7514C68.0891 25.2164 68.0128 23.6815 68.0237 22.1465C68.0237 17.2224 68.0455 12.2983 68.1 7.37426C68.1109 5.93047 68.209 4.47148 68.3617 3.04289C68.4925 1.81187 69.0267 0.960806 69.9862 0.915213C71.807 0.808829 73.6278 0.763245 75.4486 0.687256C75.5031 0.687256 75.5685 0.702437 75.623 0.717635C76.0919 0.824019 76.4408 1.12798 76.5389 1.81188C76.637 2.48058 76.746 3.16446 76.7569 3.83316C76.7788 5.36813 76.7242 6.9031 76.7242 8.43808C76.7242 14.0916 76.746 19.7452 76.7569 25.3988C76.7569 25.6419 76.7569 25.8851 76.7569 26.1283C76.7897 27.1465 77.1713 27.8152 77.8582 28.0584C78.327 28.2256 78.8285 28.3016 79.3192 28.3016C81.7832 28.2712 84.2364 28.1496 86.7005 28.1496C90.9308 28.1496 95.1612 28.2256 99.3806 28.256C99.6423 28.256 99.904 28.256 100.166 28.3016C100.722 28.3927 100.918 28.6511 101.027 29.4262C101.06 29.6997 101.071 29.9885 101.071 30.2773C101.082 34.0311 101.114 37.785 101.114 41.5388C101.114 51.5541 101.103 61.5695 101.092 71.5848C101.092 72.1167 101.092 72.6334 101.125 73.1502C101.212 74.138 101.583 74.8827 102.303 74.9739C103.033 75.0651 103.796 74.9891 104.538 74.8523C105.105 74.7459 105.454 74.1684 105.53 73.3629C105.595 72.7246 105.661 72.0863 105.661 71.448C105.639 68.4237 105.574 65.3993 105.563 62.3597C105.563 59.6545 105.595 56.9494 105.617 54.2441C105.617 53.5603 105.617 52.8763 105.639 52.1772C105.693 50.2471 106.108 49.7 107.514 49.6696C107.689 49.6696 107.863 49.6696 108.038 49.6696C109.139 49.7 110.24 49.776 111.33 49.776C113.413 49.776 115.495 49.6848 117.589 49.6696C119.246 49.6696 119.638 50.2015 119.66 52.5116C119.671 54.0466 119.66 55.5815 119.66 57.1165C119.627 64.5482 119.584 71.9799 119.562 79.4116C119.562 80.5819 119.562 81.7521 119.638 82.9223C119.736 84.5637 120.271 85.2932 121.448 85.4452C121.732 85.4907 122.026 85.4907 122.32 85.4907C124.207 85.4907 126.082 85.4907 127.968 85.4907C138.479 85.4907 149 85.4907 159.511 85.4907C159.761 85.4907 160.001 85.5515 160.328 85.5971C160.328 86.1899 160.328 86.661 160.328 87.1321C160.328 103.606 160.328 120.096 160.328 136.57C160.328 137.178 160.328 137.786 160.372 138.379C160.415 139.048 160.623 139.625 161.037 140.005C161.746 140.659 163.948 140.339 164.58 139.534C165.136 138.804 165.278 137.877 165.289 136.89C165.289 134.944 165.289 133.014 165.289 131.069C165.289 109.26 165.289 87.4513 165.278 65.6425C165.278 64.5178 165.136 63.3932 165.017 62.2838C164.897 61.2047 164.962 60.2017 165.322 59.229C165.562 58.5907 165.9 58.2563 166.423 58.2715C167.295 58.3019 168.157 58.3627 169.029 58.3171C169.661 58.2867 170.294 58.1196 170.915 57.9676C171.308 57.8764 171.482 57.5573 171.471 56.9493C171.449 56.0223 171.504 55.0952 171.504 54.1681C171.504 53.5754 171.711 53.2411 172.093 53.1347C172.518 53.0283 172.943 52.922 173.379 52.922C178.907 52.8612 184.446 52.8156 189.973 52.77C190.29 52.77 190.617 52.77 190.933 52.8156C191.892 52.9675 192.132 53.3475 192.165 54.6697C192.165 54.8369 192.165 54.9889 192.165 55.156C192.121 57.8308 192.514 58.3475 194.411 58.3475C195.447 58.3475 196.493 58.3627 197.518 58.5603C198.75 58.7883 199.568 59.8521 199.873 61.5391C200.026 62.3901 200.081 63.2868 200.081 64.1683C200.113 69.8219 200.124 75.4754 200.135 81.129C200.135 85.5667 200.124 90.0045 200.102 94.4574C200.102 96.8739 200.037 99.3055 200.037 101.722C200.037 103.014 200.015 104.306 200.146 105.582C200.288 107.011 200.746 107.573 201.76 107.664C202.566 107.725 203.373 107.603 204.18 107.512C204.638 107.467 204.921 107.041 204.987 106.418C205.052 105.825 205.107 105.217 205.107 104.61C205.107 98.272 205.107 91.9346 205.107 85.5819C205.107 84.4117 205.063 83.2415 205.107 82.0712C205.161 80.5059 205.554 79.9739 206.655 79.9131C207.113 79.8828 207.582 79.8828 208.04 79.898C209.664 79.898 211.289 79.898 212.902 79.9436C214.669 79.9892 216.435 80.0804 218.201 80.1411C218.605 80.1563 219.008 80.2019 219.411 80.1563C220.687 80.0195 221.407 79.0773 221.647 77.3296C221.832 75.9466 221.636 74.5939 221.548 73.2261C221.494 72.4207 221.429 71.6152 221.461 70.8097C221.505 69.7003 221.886 69.1227 222.671 68.8948C223.064 68.7884 223.478 68.7276 223.882 68.7276C226.084 68.7276 228.287 68.7276 230.489 68.758C236.224 68.7884 241.959 68.8188 247.694 68.8492C248.184 68.8492 248.675 68.8036 249.166 68.7428C250.016 68.6212 250.507 68.0437 250.594 66.8583C250.67 65.8248 250.67 64.761 250.594 63.7123C250.496 62.4509 249.994 61.8734 249.078 61.843C248.501 61.843 247.923 61.919 247.345 61.9798C246.462 62.071 245.644 61.9038 244.968 61.0071C245.034 60.8855 245.044 60.8248 245.066 60.8248C247.094 60.7944 249.111 60.764 251.139 60.7488C251.521 60.7488 251.717 61.0983 251.772 61.5846C251.804 61.9038 251.804 62.223 251.804 62.5573C251.804 63.9707 251.793 65.3841 251.804 66.7975C251.804 68.1349 252.197 68.682 253.156 68.8036C253.276 68.8036 253.385 68.8188 253.505 68.8188C255.675 68.8036 257.844 68.7732 260.025 68.758C261.333 68.7428 261.77 68.0893 261.759 66.2352C261.759 63.6971 261.759 61.1439 261.759 58.6059C261.759 58.3627 261.715 58.074 261.791 57.8916C261.9 57.6484 262.097 57.4205 262.282 57.3293C262.533 57.2077 262.729 57.4509 262.784 57.8156C262.827 58.0892 262.849 58.3779 262.86 58.6515C262.86 60.916 262.86 63.1804 262.86 65.4297C262.86 65.7944 262.86 66.1592 262.882 66.5239C262.947 67.299 263.285 67.8462 263.808 67.9374C264.364 68.0437 264.964 68.0285 265.52 67.8613C266.131 67.679 266.305 67.2534 266.294 66.3568C266.294 65.7945 266.218 65.2321 266.185 64.6698C266.142 63.8795 266.054 63.0892 266.207 62.2989C267.09 62.6485 267.265 62.9069 267.297 63.9403C267.319 64.8218 267.308 65.7185 267.33 66.5999C267.374 68.4693 267.515 68.6668 268.846 68.7428C269.107 68.758 269.369 68.7884 269.631 68.7732C270.35 68.7124 271.07 68.6516 271.8 68.5756C273.61 68.3933 274.57 69.5027 274.602 71.8736C274.602 72.3903 274.602 72.9222 274.57 73.4541C274.515 74.8219 274.384 76.1897 274.384 77.5575C274.384 90.9619 274.384 104.382 274.384 117.786C274.384 118.196 274.384 118.591 274.395 119.002C274.439 119.914 274.646 120.75 275.038 121.464C275.682 122.634 276.739 122.999 277.862 122.421C278.746 121.965 278.942 121.479 278.931 119.747C278.909 111.874 278.898 104.002 278.876 96.114C278.876 94.0927 278.833 92.0714 278.844 90.0653C278.855 87.7704 278.865 85.4603 278.953 83.1655C279.018 81.6305 279.476 81.129 280.588 81.129C281.024 81.129 281.449 81.2202 281.886 81.2658C282.812 81.3418 283.706 81.1898 284.317 80.0651C284.622 79.5028 284.971 79.3813 285.429 79.3813C288.264 79.3813 291.11 79.3812 293.944 79.3508C294.577 79.3508 295.089 79.5788 295.383 80.4147C295.591 81.0074 295.929 81.1594 296.376 81.1594C298.807 81.1594 301.238 81.1594 303.67 81.1594C304.487 81.1594 305.218 80.825 305.774 79.9587C306.079 79.4876 306.428 79.366 306.853 79.366C307.747 79.366 308.652 79.3053 309.546 79.3205C311.4 79.3205 313.253 79.3509 315.107 79.3813C315.827 79.3813 316.492 79.6396 316.939 80.5059C317.255 81.0986 317.691 81.1746 318.171 81.1746C320.602 81.1442 323.033 81.129 325.465 81.1138C325.519 81.1138 325.585 81.1138 325.639 81.1138C326.849 81.1442 327.318 81.7369 327.373 83.4543C327.416 84.8676 327.384 86.281 327.384 87.6944C327.384 97.9073 327.384 108.135 327.384 118.348C327.384 120.886 327.34 123.44 327.384 125.978C327.405 127.953 328.071 128.728 329.488 128.622C330.142 128.576 330.426 128.257 330.546 127.345C330.589 126.996 330.6 126.616 330.6 126.266C330.6 124.929 330.567 123.607 330.567 122.269C330.567 104.944 330.567 87.6184 330.567 70.293C330.567 69.8067 330.567 69.3203 330.6 68.834C330.731 67.299 331.243 66.2656 332.355 65.7184C334.482 64.6698 336.564 63.4692 338.679 62.375C340.489 61.4327 342.223 60.1713 344.152 59.7001C344.621 59.5786 345.047 59.153 345.494 58.8794C345.832 58.6819 346.18 58.4083 346.54 58.3323C347.859 58.074 349.168 57.7245 350.498 57.6789C353.246 57.5725 355.993 57.5877 358.752 57.6637C360.256 57.694 360.649 57.6028 360.638 55.08C360.616 46.6453 360.649 38.1953 360.66 29.7605C360.66 28.1496 360.594 26.5386 360.594 24.9277C360.594 22.4656 360.561 20.0036 360.66 17.5416C360.736 15.3075 361.706 13.9093 363.276 13.4837C363.592 13.3926 363.909 13.3166 364.214 13.195C365.086 12.8454 365.468 12.2376 365.511 10.9457C365.533 10.1403 365.424 9.33474 365.424 8.52926C365.424 7.86056 365.424 7.16148 365.511 6.50798C365.61 5.82408 366.002 5.39856 366.493 5.29218C366.994 5.17059 367.518 5.10977 368.052 5.44412C368.052 6.02163 368.041 6.58399 368.052 7.1463C368.106 8.66608 368.084 10.2162 368.248 11.7208C368.379 13.0126 368.902 13.4685 369.84 13.4685C371.29 13.4685 372.729 13.4686 374.179 13.4534C378.584 13.4382 382.989 13.423 387.383 13.4078C387.688 13.4078 387.993 13.4685 388.31 13.5141C388.331 13.8789 388.342 14.1221 388.353 14.3652C388.386 19.4565 388.462 24.5477 388.451 29.6238C388.429 54.3353 388.397 79.0621 388.375 103.774C388.364 116.494 388.375 129.215 388.375 141.935C388.375 142.346 388.375 142.756 388.419 143.136C388.56 144.23 389.04 144.701 389.934 144.625C390.752 144.549 391.068 144.154 391.101 142.953C391.133 141.738 391.133 140.537 391.133 139.321C391.155 127.528 391.166 115.734 391.188 103.941C391.188 103.591 391.21 103.227 391.232 102.786C391.526 102.755 391.777 102.71 392.038 102.71C395.167 102.71 398.297 102.695 401.426 102.679C402.832 102.679 403.007 102.436 403.007 100.43C403.007 93.6519 403.007 86.8585 403.007 80.0803C403.007 79.442 403.007 78.7885 403.061 78.1502C403.138 77.2231 403.41 76.904 404.075 76.8128C404.217 76.7976 404.37 76.8128 404.511 76.8128C413.517 76.8128 422.523 76.8128 431.529 76.8128C431.845 76.8128 432.15 76.8584 432.51 76.8888C432.543 77.2991 432.587 77.6031 432.587 77.9222C432.587 84.4269 432.587 90.9315 432.587 97.4362C432.587 98.4392 432.51 99.4575 432.532 100.461C432.554 101.631 433.11 102.026 433.829 101.464C434.004 101.327 434.167 101.16 434.342 101.008C436.882 98.7432 439.423 96.4939 441.952 94.2142C442.704 93.5303 443.424 92.7857 444.165 92.0866C444.689 91.585 445.19 91.0379 445.736 90.6124C446.619 89.9133 447.109 88.895 447.186 87.512C447.251 86.2658 447.316 85.0196 447.316 83.7582C447.306 79.9587 447.229 76.1745 447.218 72.3751C447.196 67.1622 447.218 61.9494 447.218 56.7366C447.218 55.156 447.295 53.5906 447.284 52.0101C447.284 50.7335 447.665 49.8216 448.407 49.0617C449.53 47.9219 450.598 46.6757 451.656 45.4143C452.604 44.2896 453.498 43.0738 454.425 41.9187C455.025 41.1741 455.755 40.7789 456.54 40.627C457.086 40.5206 457.631 40.4446 458.187 40.4446C463.954 40.4446 469.711 40.4446 475.479 40.4446C475.708 40.4446 475.948 40.4446 476.166 40.5054C476.787 40.6725 477.082 41.0829 477.158 41.9492C477.212 42.6331 477.212 43.317 477.212 44.0009C477.212 45.1711 477.18 46.3413 477.169 47.5116C477.147 51.9189 477.136 56.3111 477.136 60.7184C477.136 61.3871 477.191 62.1166 477.387 62.7245C477.594 63.3932 477.649 64.0315 477.649 64.7154C477.649 69.1987 477.649 73.6821 477.649 78.1654C477.649 79.442 477.79 80.6579 478.215 81.7977C479.011 83.9406 480.963 85.202 482.555 84.5333C482.566 84.2445 482.598 83.9254 482.609 83.6062C482.62 80.7339 482.642 77.8767 482.642 75.0043C482.642 70.521 482.62 66.0376 482.631 61.5543C482.631 59.6697 483.1 59.0163 484.452 58.9555C484.572 58.9555 484.681 58.9555 484.801 58.9555C489.173 58.9555 493.545 58.9555 497.917 58.9555C498.408 58.9555 498.898 58.8795 499.389 58.8187C500.861 58.6211 501.461 57.8156 501.57 55.7639C501.635 54.5937 501.613 53.4235 501.624 52.2532C501.635 50.8247 501.842 50.5055 502.867 50.3687C503.096 50.3383 503.325 50.3383 503.565 50.3383C504.873 50.3383 506.171 50.3535 507.479 50.3383C508.7 50.3383 509.027 49.928 509.224 48.3018C509.354 47.2076 509.769 46.7668 510.717 46.7365C510.761 47.2836 510.804 47.8459 510.848 48.393C510.881 48.7881 510.881 49.1985 510.946 49.5936C511.099 50.4903 511.361 50.6727 512.015 50.5055C512.385 50.4143 512.756 50.3535 513.127 50.3231C513.585 50.2927 514.054 50.3231 514.511 50.2927C515.427 50.2471 515.667 49.928 515.754 48.621C515.776 48.3018 515.765 47.9675 515.798 47.6483C515.863 46.9492 516.049 46.706 516.507 46.6756C516.997 46.6453 517.292 46.9188 517.379 47.5723C517.444 48.0434 517.433 48.545 517.499 49.0161C517.63 49.9432 517.88 50.2168 518.567 50.2623C518.829 50.2623 519.091 50.2623 519.352 50.2623C523.67 50.2623 527.988 50.2623 532.294 50.2927C532.818 50.2927 533.33 50.3535 533.842 50.4599C534.529 50.5967 534.922 51.2046 535.031 52.1469C535.107 52.8611 535.162 53.5906 535.162 54.3201C535.162 59.001 535.14 63.682 535.14 68.3629C535.14 74.0165 535.129 79.67 535.151 85.3235C535.151 87.6336 535.685 88.1655 537.266 87.4664C540.297 86.1442 543.317 84.7157 546.359 83.4087C547.657 82.8463 548.66 81.8281 549.466 80.3083C551.287 76.8584 553.173 73.4845 555.016 70.065C556.248 67.7702 557.469 65.4601 558.679 63.15C559.552 61.4935 560.696 60.6576 562.179 60.7488C562.321 60.7488 562.474 60.7488 562.615 60.7488C567.304 60.7488 572.003 60.764 576.691 60.764C577.149 60.764 577.618 60.764 578.076 60.7032C580.027 60.4752 581.118 59.0922 581.521 56.4022C581.576 56.0071 581.619 55.5968 581.75 55.2472C581.925 54.7609 582.263 54.6241 582.633 54.7153C582.982 54.8065 583.211 55.08 583.211 55.6272C583.211 56.0375 583.233 56.4326 583.222 56.843C583.222 57.3293 583.189 57.8156 583.2 58.3019C583.233 60.0649 583.822 60.8704 585.097 60.8552C585.468 60.8552 585.85 60.764 586.22 60.7184C587.42 60.5664 588.521 60.9768 589.48 61.995C589.982 62.5269 590.483 63.1045 590.898 63.758C591.825 65.2018 592.686 66.7215 593.613 68.1653C594.594 69.7003 595.586 71.22 596.6 72.7094C597.396 73.8796 598.214 74.9891 599.031 76.1289C599.097 76.2201 599.151 76.3113 599.184 76.4177C599.609 77.7399 600.285 78.7733 601.136 79.594C601.299 79.746 601.441 79.9739 601.55 80.2019C602.346 81.9041 603.512 82.4968 604.908 82.4056C605.224 82.3904 605.54 82.36 605.868 82.3448C607.601 82.3296 609.346 82.2992 611.079 82.2992C611.668 82.2992 611.908 82.6336 611.995 83.439C612.017 83.6366 612.006 83.8494 612.006 84.0469C612.006 90.0653 612.028 96.0836 612.006 102.102C611.995 111.388 611.973 120.674 611.94 129.975C611.94 130.658 612.159 131.084 612.562 131.449C613.249 132.072 613.947 131.89 614.655 131.616C615.484 131.297 615.746 130.826 615.724 129.61C615.713 128.804 615.637 127.999 615.637 127.193C615.626 119.929 615.615 112.649 615.604 105.385C615.593 92.7401 615.571 80.0955 615.56 67.4662C615.56 66.6303 615.615 65.7641 615.724 64.9434C615.887 63.6212 616.247 63.1652 617.174 63.1652C619.725 63.1652 622.266 63.2564 624.817 63.2868C625.34 63.2868 625.853 63.2564 626.376 63.1804C626.954 63.0893 627.335 62.5725 627.445 61.7974C627.543 61.0983 627.575 60.3536 627.575 59.6393C627.575 57.2229 627.543 54.7913 627.532 52.3748C627.532 51.9797 627.532 51.5541 627.586 51.1742C627.695 50.3079 627.99 49.9128 628.622 49.8064C629.047 49.7304 629.483 49.7152 629.919 49.7152C632.907 49.6848 635.883 49.6696 638.871 49.6392C639.034 49.6392 639.209 49.7 639.416 49.7456C639.667 50.9311 639.809 52.1165 639.809 53.3323C639.809 56.0831 639.787 58.8187 639.798 61.5695C639.798 63.2868 640.19 63.8491 641.4 63.8643C643.341 63.8643 645.282 63.8491 647.223 63.8491C648.008 63.8491 648.716 63.53 649.327 62.8765C651.9 60.1865 654.451 57.4661 657.024 54.7761C657.428 54.3505 657.624 53.8186 657.613 53.1195C657.613 52.4356 657.613 51.7517 657.613 51.0526C657.613 38.6056 657.613 26.1739 657.613 13.7269C657.613 13.2254 657.635 12.7239 657.646 12.1615H666.455V12.2831ZM285.037 81.5241C285.68 81.4633 286.203 81.4178 286.792 81.3722C286.65 80.6427 286.334 80.2931 285.898 80.3083C285.429 80.3083 285.298 80.9162 285.037 81.5241Z" fill="#224292"/>
<path d="M1635 12.2831V147.513H968.543C968.543 147.391 968.565 147.27 968.565 147.163C968.587 126.084 968.597 105.005 968.619 83.9102C968.619 83.439 968.663 82.9831 968.696 82.512C968.903 82.4664 969.012 82.4208 969.121 82.4208C971.552 82.436 973.984 82.4664 976.415 82.4816C977.887 82.4816 979.37 82.512 980.842 82.4968C983.306 82.4816 985.77 82.436 988.223 82.4208C988.365 82.4208 988.517 82.4208 988.659 82.4664C989.662 82.664 989.956 83.0439 990.109 84.4269C990.164 84.9436 990.174 85.4755 990.174 85.9923C990.174 88.4087 990.131 90.8403 990.131 93.2568C990.131 100.734 990.131 108.196 990.131 115.673C990.131 116.403 990.142 117.132 990.229 117.847C990.338 118.88 990.85 119.351 991.679 119.321C992.388 119.291 992.78 118.804 992.868 117.756C992.911 117.315 992.889 116.874 992.889 116.418C992.878 96.4179 992.857 76.4329 992.846 56.4326C992.846 55.384 992.846 54.3353 992.9 53.2867C992.977 51.7821 993.38 51.159 994.459 51.0678C995.441 50.9918 996.422 51.0526 997.414 51.0526C1003.06 51.0678 1008.71 51.0982 1014.36 51.0982C1014.9 51.0982 1015.45 50.9918 1015.99 50.9006C1016.61 50.779 1017 50.2472 1017.09 49.4113C1017.18 48.6666 1017.2 47.8915 1017.2 47.1316C1017.2 44.0161 1017.17 40.9157 1017.2 37.8002C1017.21 36.0828 1017.56 35.6269 1018.76 35.6269C1020.79 35.6269 1022.82 35.6269 1024.85 35.6269C1025.34 35.6269 1025.83 35.6573 1026.32 35.5965C1027.32 35.4901 1027.7 34.9582 1027.81 33.56C1027.84 33.1952 1027.83 32.8305 1027.83 32.4657C1027.83 31.7362 1027.78 31.0068 1027.82 30.2925C1027.88 29.1982 1028.14 28.7119 1028.91 28.5903C1030.14 28.3928 1031.39 28.2712 1032.62 28.2256C1033.69 28.18 1034.76 28.2864 1035.84 28.3016C1036.09 28.3016 1036.34 28.2104 1036.66 28.1496C1036.66 27.6329 1036.66 27.1921 1036.66 26.7514C1036.63 25.2164 1036.56 23.6815 1036.57 22.1465C1036.57 17.2224 1036.59 12.2983 1036.64 7.37426C1036.65 5.93047 1036.75 4.47148 1036.9 3.04289C1037.04 1.81187 1037.57 0.960806 1038.53 0.915213C1040.35 0.808829 1042.17 0.763245 1043.99 0.687256C1044.05 0.687256 1044.11 0.702437 1044.17 0.717635C1044.63 0.824019 1044.98 1.12798 1045.08 1.81188C1045.18 2.48058 1045.29 3.16446 1045.3 3.83316C1045.32 5.36813 1045.27 6.9031 1045.27 8.43808C1045.27 14.0916 1045.29 19.7452 1045.3 25.3988C1045.3 25.6419 1045.3 25.8851 1045.3 26.1283C1045.33 27.1465 1045.71 27.8152 1046.4 28.0584C1046.87 28.2256 1047.37 28.3016 1047.86 28.3016C1050.33 28.2712 1052.78 28.1496 1055.24 28.1496C1059.47 28.1496 1063.7 28.2256 1067.92 28.256C1068.19 28.256 1068.45 28.256 1068.71 28.3016C1069.26 28.3927 1069.46 28.6511 1069.57 29.4262C1069.6 29.6997 1069.61 29.9885 1069.61 30.2773C1069.62 34.0311 1069.66 37.785 1069.66 41.5388C1069.66 51.5541 1069.65 61.5695 1069.64 71.5848C1069.64 72.1167 1069.64 72.6334 1069.67 73.1502C1069.76 74.138 1070.13 74.8827 1070.85 74.9739C1071.58 75.0651 1072.34 74.9891 1073.08 74.8523C1073.65 74.7459 1074 74.1684 1074.07 73.3629C1074.14 72.7246 1074.2 72.0863 1074.2 71.448C1074.18 68.4237 1074.12 65.3993 1074.11 62.3597C1074.11 59.6545 1074.14 56.9494 1074.16 54.2441C1074.16 53.5603 1074.16 52.8763 1074.18 52.1772C1074.24 50.2471 1074.65 49.7 1076.06 49.6696C1076.23 49.6696 1076.41 49.6696 1076.58 49.6696C1077.68 49.7 1078.78 49.776 1079.87 49.776C1081.96 49.776 1084.04 49.6848 1086.13 49.6696C1087.79 49.6696 1088.18 50.2015 1088.2 52.5116C1088.21 54.0466 1088.2 55.5815 1088.2 57.1165C1088.17 64.5482 1088.13 71.9799 1088.11 79.4116C1088.11 80.5819 1088.11 81.7521 1088.18 82.9223C1088.28 84.5637 1088.81 85.2932 1089.99 85.4452C1090.27 85.4907 1090.57 85.4907 1090.86 85.4907C1092.75 85.4907 1094.62 85.4907 1096.51 85.4907C1107.02 85.4907 1117.54 85.4907 1128.05 85.4907C1128.3 85.4907 1128.54 85.5515 1128.87 85.5971C1128.87 86.1899 1128.87 86.661 1128.87 87.1321C1128.87 103.606 1128.87 120.096 1128.87 136.57C1128.87 137.178 1128.87 137.786 1128.91 138.379C1128.96 139.048 1129.17 139.625 1129.58 140.005C1130.29 140.659 1132.49 140.339 1133.12 139.534C1133.68 138.804 1133.82 137.877 1133.83 136.89C1133.83 134.944 1133.83 133.014 1133.83 131.069C1133.83 109.26 1133.83 87.4513 1133.82 65.6425C1133.82 64.5178 1133.68 63.3932 1133.56 62.2838C1133.44 61.2047 1133.51 60.2017 1133.86 59.229C1134.1 58.5907 1134.44 58.2563 1134.97 58.2715C1135.84 58.3019 1136.7 58.3627 1137.57 58.3171C1138.2 58.2867 1138.84 58.1196 1139.46 57.9676C1139.85 57.8764 1140.02 57.5573 1140.01 56.9493C1139.99 56.0223 1140.05 55.0952 1140.05 54.1681C1140.05 53.5754 1140.25 53.2411 1140.64 53.1347C1141.06 53.0283 1141.49 52.922 1141.92 52.922C1147.45 52.8612 1152.99 52.8156 1158.52 52.77C1158.83 52.77 1159.16 52.77 1159.48 52.8156C1160.44 52.9675 1160.68 53.3475 1160.71 54.6697C1160.71 54.8369 1160.71 54.9889 1160.71 55.156C1160.66 57.8308 1161.06 58.3475 1162.95 58.3475C1163.99 58.3475 1165.04 58.3627 1166.06 58.5603C1167.29 58.7883 1168.11 59.8521 1168.42 61.5391C1168.57 62.3901 1168.62 63.2868 1168.62 64.1683C1168.66 69.8219 1168.67 75.4754 1168.68 81.129C1168.68 85.5667 1168.67 90.0045 1168.65 94.4574C1168.65 96.8739 1168.58 99.3055 1168.58 101.722C1168.58 103.014 1168.56 104.306 1168.69 105.582C1168.83 107.011 1169.29 107.573 1170.3 107.664C1171.11 107.725 1171.92 107.603 1172.72 107.512C1173.18 107.467 1173.46 107.041 1173.53 106.418C1173.6 105.825 1173.65 105.217 1173.65 104.61C1173.65 98.272 1173.65 91.9346 1173.65 85.5819C1173.65 84.4117 1173.61 83.2415 1173.65 82.0712C1173.7 80.5059 1174.1 79.9739 1175.2 79.9131C1175.66 79.8828 1176.12 79.8828 1176.58 79.898C1178.21 79.898 1179.83 79.898 1181.45 79.9436C1183.21 79.9892 1184.98 80.0804 1186.74 80.1411C1187.15 80.1563 1187.55 80.2019 1187.95 80.1563C1189.23 80.0195 1189.95 79.0773 1190.19 77.3296C1190.37 75.9466 1190.18 74.5939 1190.09 73.2261C1190.04 72.4207 1189.97 71.6152 1190 70.8097C1190.05 69.7003 1190.43 69.1227 1191.21 68.8948C1191.61 68.7884 1192.02 68.7276 1192.42 68.7276C1194.63 68.7276 1196.83 68.7276 1199.03 68.758C1204.77 68.7884 1210.5 68.8188 1216.24 68.8492C1216.73 68.8492 1217.22 68.8036 1217.71 68.7428C1218.56 68.6212 1219.05 68.0437 1219.14 66.8583C1219.21 65.8248 1219.21 64.761 1219.14 63.7123C1219.04 62.4509 1218.54 61.8734 1217.62 61.843C1217.04 61.843 1216.47 61.919 1215.89 61.9798C1215 62.071 1214.19 61.9038 1213.51 61.0071C1213.58 60.8855 1213.59 60.8248 1213.61 60.8248C1215.64 60.7944 1217.65 60.764 1219.68 60.7488C1220.06 60.7488 1220.26 61.0983 1220.31 61.5846C1220.35 61.9038 1220.35 62.223 1220.35 62.5573C1220.35 63.9707 1220.34 65.3841 1220.35 66.7975C1220.35 68.1349 1220.74 68.682 1221.7 68.8036C1221.82 68.8036 1221.93 68.8188 1222.05 68.8188C1224.22 68.8036 1226.39 68.7732 1228.57 68.758C1229.88 68.7428 1230.31 68.0893 1230.3 66.2352C1230.3 63.6971 1230.3 61.1439 1230.3 58.6059C1230.3 58.3627 1230.26 58.074 1230.33 57.8916C1230.44 57.6484 1230.64 57.4205 1230.82 57.3293C1231.08 57.2077 1231.27 57.4509 1231.33 57.8156C1231.37 58.0892 1231.39 58.3779 1231.4 58.6515C1231.4 60.916 1231.4 63.1804 1231.4 65.4297C1231.4 65.7944 1231.4 66.1592 1231.42 66.5239C1231.49 67.299 1231.83 67.8462 1232.35 67.9374C1232.91 68.0437 1233.51 68.0285 1234.06 67.8613C1234.67 67.679 1234.85 67.2534 1234.84 66.3568C1234.84 65.7945 1234.76 65.2321 1234.73 64.6698C1234.68 63.8795 1234.6 63.0892 1234.75 62.2989C1235.63 62.6485 1235.81 62.9069 1235.84 63.9403C1235.86 64.8218 1235.85 65.7185 1235.87 66.5999C1235.92 68.4693 1236.06 68.6668 1237.39 68.7428C1237.65 68.758 1237.91 68.7884 1238.17 68.7732C1238.89 68.7124 1239.61 68.6516 1240.34 68.5756C1242.15 68.3933 1243.11 69.5027 1243.15 71.8736C1243.15 72.3903 1243.15 72.9222 1243.11 73.4541C1243.06 74.8219 1242.93 76.1897 1242.93 77.5575C1242.93 90.9619 1242.93 104.382 1242.93 117.786C1242.93 118.196 1242.93 118.591 1242.94 119.002C1242.98 119.914 1243.19 120.75 1243.58 121.464C1244.22 122.634 1245.28 122.999 1246.41 122.421C1247.29 121.965 1247.48 121.479 1247.47 119.747C1247.45 111.874 1247.44 104.002 1247.42 96.114C1247.42 94.0927 1247.38 92.0714 1247.39 90.0653C1247.4 87.7704 1247.41 85.4603 1247.5 83.1655C1247.56 81.6305 1248.02 81.129 1249.13 81.129C1249.57 81.129 1249.99 81.2202 1250.43 81.2658C1251.36 81.3418 1252.25 81.1898 1252.86 80.0651C1253.17 79.5028 1253.51 79.3813 1253.97 79.3813C1256.81 79.3813 1259.65 79.3812 1262.49 79.3508C1263.12 79.3508 1263.63 79.5788 1263.93 80.4147C1264.13 81.0074 1264.47 81.1594 1264.92 81.1594C1267.35 81.1594 1269.78 81.1594 1272.21 81.1594C1273.03 81.1594 1273.76 80.825 1274.32 79.9587C1274.62 79.4876 1274.97 79.366 1275.4 79.366C1276.29 79.366 1277.2 79.3053 1278.09 79.3205C1279.94 79.3205 1281.8 79.3509 1283.65 79.3813C1284.37 79.3813 1285.03 79.6396 1285.48 80.5059C1285.8 81.0986 1286.23 81.1746 1286.71 81.1746C1289.15 81.1442 1291.58 81.129 1294.01 81.1138C1294.06 81.1138 1294.13 81.1138 1294.18 81.1138C1295.39 81.1442 1295.86 81.7369 1295.92 83.4543C1295.96 84.8676 1295.93 86.281 1295.93 87.6944C1295.93 97.9073 1295.93 108.135 1295.93 118.348C1295.93 120.886 1295.88 123.44 1295.93 125.978C1295.95 127.953 1296.61 128.728 1298.03 128.622C1298.69 128.576 1298.97 128.257 1299.09 127.345C1299.13 126.996 1299.14 126.616 1299.14 126.266C1299.14 124.929 1299.11 123.607 1299.11 122.269C1299.11 104.944 1299.11 87.6184 1299.11 70.293C1299.11 69.8067 1299.11 69.3203 1299.14 68.834C1299.27 67.299 1299.79 66.2656 1300.9 65.7184C1303.02 64.6698 1305.11 63.4692 1307.22 62.375C1309.03 61.4327 1310.77 60.1713 1312.7 59.7001C1313.16 59.5786 1313.59 59.153 1314.04 58.8794C1314.37 58.6819 1314.72 58.4083 1315.08 58.3323C1316.4 58.074 1317.71 57.7245 1319.04 57.6789C1321.79 57.5725 1324.54 57.5877 1327.29 57.6637C1328.8 57.694 1329.19 57.6028 1329.18 55.08C1329.16 46.6453 1329.19 38.1953 1329.2 29.7605C1329.2 28.1496 1329.14 26.5386 1329.14 24.9277C1329.14 22.4656 1329.1 20.0036 1329.2 17.5416C1329.28 15.3075 1330.25 13.9093 1331.82 13.4837C1332.14 13.3926 1332.45 13.3166 1332.76 13.195C1333.63 12.8454 1334.01 12.2376 1334.05 10.9457C1334.08 10.1403 1333.97 9.33474 1333.97 8.52926C1333.97 7.86056 1333.97 7.16148 1334.05 6.50798C1334.15 5.82408 1334.54 5.39856 1335.04 5.29218C1335.54 5.17059 1336.06 5.10977 1336.59 5.44412C1336.59 6.02163 1336.58 6.58399 1336.59 7.1463C1336.65 8.66608 1336.63 10.2162 1336.79 11.7208C1336.92 13.0126 1337.45 13.4685 1338.38 13.4685C1339.83 13.4685 1341.27 13.4686 1342.72 13.4534C1347.13 13.4382 1351.53 13.423 1355.93 13.4078C1356.23 13.4078 1356.54 13.4685 1356.85 13.5141C1356.87 13.8789 1356.89 14.1221 1356.9 14.3652C1356.93 19.4565 1357.01 24.5477 1356.99 29.6238C1356.97 54.3353 1356.94 79.0621 1356.92 103.774C1356.91 116.494 1356.92 129.215 1356.92 141.935C1356.92 142.346 1356.92 142.756 1356.96 143.136C1357.1 144.23 1357.58 144.701 1358.48 144.625C1359.29 144.549 1359.61 144.154 1359.64 142.953C1359.68 141.738 1359.68 140.537 1359.68 139.321C1359.7 127.528 1359.71 115.734 1359.73 103.941C1359.73 103.591 1359.75 103.227 1359.77 102.786C1360.07 102.755 1360.32 102.71 1360.58 102.71C1363.71 102.71 1366.84 102.695 1369.97 102.679C1371.38 102.679 1371.55 102.436 1371.55 100.43C1371.55 93.6519 1371.55 86.8585 1371.55 80.0803C1371.55 79.442 1371.55 78.7885 1371.6 78.1502C1371.68 77.2231 1371.95 76.904 1372.62 76.8128C1372.76 76.7976 1372.91 76.8128 1373.05 76.8128C1382.06 76.8128 1391.07 76.8128 1400.07 76.8128C1400.39 76.8128 1400.69 76.8584 1401.05 76.8888C1401.09 77.2991 1401.13 77.6031 1401.13 77.9222C1401.13 84.4269 1401.13 90.9315 1401.13 97.4362C1401.13 98.4392 1401.05 99.4575 1401.07 100.461C1401.1 101.631 1401.65 102.026 1402.37 101.464C1402.55 101.327 1402.71 101.16 1402.88 101.008C1405.43 98.7432 1407.97 96.4939 1410.5 94.2142C1411.25 93.5303 1411.97 92.7857 1412.71 92.0866C1413.23 91.585 1413.73 91.0379 1414.28 90.6124C1415.16 89.9133 1415.65 88.895 1415.73 87.512C1415.79 86.2658 1415.86 85.0196 1415.86 83.7582C1415.85 79.9587 1415.77 76.1745 1415.76 72.3751C1415.74 67.1622 1415.76 61.9494 1415.76 56.7366C1415.76 55.156 1415.84 53.5906 1415.83 52.0101C1415.83 50.7335 1416.21 49.8216 1416.95 49.0617C1418.07 47.9219 1419.14 46.6757 1420.2 45.4143C1421.15 44.2896 1422.04 43.0738 1422.97 41.9187C1423.57 41.1741 1424.3 40.7789 1425.08 40.627C1425.63 40.5206 1426.17 40.4446 1426.73 40.4446C1432.5 40.4446 1438.25 40.4446 1444.02 40.4446C1444.25 40.4446 1444.49 40.4446 1444.71 40.5054C1445.33 40.6725 1445.62 41.0829 1445.7 41.9492C1445.76 42.6331 1445.76 43.317 1445.76 44.0009C1445.76 45.1711 1445.72 46.3413 1445.71 47.5116C1445.69 51.9189 1445.68 56.3111 1445.68 60.7184C1445.68 61.3871 1445.73 62.1166 1445.93 62.7245C1446.14 63.3932 1446.19 64.0315 1446.19 64.7154C1446.19 69.1987 1446.19 73.6821 1446.19 78.1654C1446.19 79.442 1446.33 80.6579 1446.76 81.7977C1447.55 83.9406 1449.51 85.202 1451.1 84.5333C1451.11 84.2445 1451.14 83.9254 1451.15 83.6062C1451.16 80.7339 1451.19 77.8767 1451.19 75.0043C1451.19 70.521 1451.16 66.0376 1451.17 61.5543C1451.17 59.6697 1451.64 59.0163 1452.99 58.9555C1453.11 58.9555 1453.22 58.9555 1453.34 58.9555C1457.72 58.9555 1462.09 58.9555 1466.46 58.9555C1466.95 58.9555 1467.44 58.8795 1467.93 58.8187C1469.4 58.6211 1470 57.8156 1470.11 55.7639C1470.18 54.5937 1470.16 53.4235 1470.17 52.2532C1470.18 50.8247 1470.39 50.5055 1471.41 50.3687C1471.64 50.3383 1471.87 50.3383 1472.11 50.3383C1473.42 50.3383 1474.71 50.3535 1476.02 50.3383C1477.24 50.3383 1477.57 49.928 1477.77 48.3018C1477.9 47.2076 1478.31 46.7668 1479.26 46.7365C1479.3 47.2836 1479.35 47.8459 1479.39 48.393C1479.42 48.7881 1479.42 49.1985 1479.49 49.5936C1479.64 50.4903 1479.9 50.6727 1480.56 50.5055C1480.93 50.4143 1481.3 50.3535 1481.67 50.3231C1482.13 50.2927 1482.6 50.3231 1483.05 50.2927C1483.97 50.2471 1484.21 49.928 1484.3 48.621C1484.32 48.3018 1484.31 47.9675 1484.34 47.6483C1484.41 46.9492 1484.59 46.706 1485.05 46.6756C1485.54 46.6453 1485.83 46.9188 1485.92 47.5723C1485.99 48.0434 1485.98 48.545 1486.04 49.0161C1486.17 49.9432 1486.42 50.2168 1487.11 50.2623C1487.37 50.2623 1487.63 50.2623 1487.9 50.2623C1492.21 50.2623 1496.53 50.2623 1500.84 50.2927C1501.36 50.2927 1501.87 50.3535 1502.39 50.4599C1503.07 50.5967 1503.46 51.2046 1503.57 52.1469C1503.65 52.8611 1503.7 53.5906 1503.7 54.3201C1503.7 59.001 1503.68 63.682 1503.68 68.3629C1503.68 74.0165 1503.67 79.67 1503.69 85.3235C1503.69 87.6336 1504.23 88.1655 1505.81 87.4664C1508.84 86.1442 1511.86 84.7157 1514.9 83.4087C1516.2 82.8463 1517.2 81.8281 1518.01 80.3083C1519.83 76.8584 1521.72 73.4845 1523.56 70.065C1524.79 67.7702 1526.01 65.4601 1527.22 63.15C1528.09 61.4935 1529.24 60.6576 1530.72 60.7488C1530.86 60.7488 1531.02 60.7488 1531.16 60.7488C1535.85 60.7488 1540.55 60.764 1545.23 60.764C1545.69 60.764 1546.16 60.764 1546.62 60.7032C1548.57 60.4752 1549.66 59.0922 1550.06 56.4022C1550.12 56.0071 1550.16 55.5968 1550.29 55.2472C1550.47 54.7609 1550.81 54.6241 1551.18 54.7153C1551.53 54.8065 1551.75 55.08 1551.75 55.6272C1551.75 56.0375 1551.78 56.4326 1551.76 56.843C1551.76 57.3293 1551.73 57.8156 1551.74 58.3019C1551.78 60.0649 1552.36 60.8704 1553.64 60.8552C1554.01 60.8552 1554.39 60.764 1554.76 60.7184C1555.96 60.5664 1557.06 60.9768 1558.02 61.995C1558.52 62.5269 1559.03 63.1045 1559.44 63.758C1560.37 65.2018 1561.23 66.7215 1562.16 68.1653C1563.14 69.7003 1564.13 71.22 1565.14 72.7094C1565.94 73.8796 1566.76 74.9891 1567.57 76.1289C1567.64 76.2201 1567.69 76.3113 1567.73 76.4177C1568.15 77.7399 1568.83 78.7733 1569.68 79.594C1569.84 79.746 1569.98 79.9739 1570.09 80.2019C1570.89 81.9041 1572.06 82.4968 1573.45 82.4056C1573.77 82.3904 1574.08 82.36 1574.41 82.3448C1576.14 82.3296 1577.89 82.2992 1579.62 82.2992C1580.21 82.2992 1580.45 82.6336 1580.54 83.439C1580.56 83.6366 1580.55 83.8494 1580.55 84.0469C1580.55 90.0653 1580.57 96.0836 1580.55 102.102C1580.54 111.388 1580.52 120.674 1580.48 129.975C1580.48 130.658 1580.7 131.084 1581.1 131.449C1581.79 132.072 1582.49 131.89 1583.2 131.616C1584.03 131.297 1584.29 130.826 1584.27 129.61C1584.26 128.804 1584.18 127.999 1584.18 127.193C1584.17 119.929 1584.16 112.649 1584.15 105.385C1584.14 92.7401 1584.11 80.0955 1584.1 67.4662C1584.1 66.6303 1584.16 65.7641 1584.27 64.9434C1584.43 63.6212 1584.79 63.1652 1585.72 63.1652C1588.27 63.1652 1590.81 63.2564 1593.36 63.2868C1593.88 63.2868 1594.4 63.2564 1594.92 63.1804C1595.5 63.0893 1595.88 62.5725 1595.99 61.7974C1596.09 61.0983 1596.12 60.3536 1596.12 59.6393C1596.12 57.2229 1596.09 54.7913 1596.07 52.3748C1596.07 51.9797 1596.07 51.5541 1596.13 51.1742C1596.24 50.3079 1596.53 49.9128 1597.16 49.8064C1597.59 49.7304 1598.03 49.7152 1598.46 49.7152C1601.45 49.6848 1604.43 49.6696 1607.41 49.6392C1607.58 49.6392 1607.75 49.7 1607.96 49.7456C1608.21 50.9311 1608.35 52.1165 1608.35 53.3323C1608.35 56.0831 1608.33 58.8187 1608.34 61.5695C1608.34 63.2868 1608.73 63.8491 1609.94 63.8643C1611.88 63.8643 1613.82 63.8491 1615.77 63.8491C1616.55 63.8491 1617.26 63.53 1617.87 62.8765C1620.44 60.1865 1622.99 57.4661 1625.57 54.7761C1625.97 54.3505 1626.17 53.8186 1626.16 53.1195C1626.16 52.4356 1626.16 51.7517 1626.16 51.0526C1626.16 38.6056 1626.16 26.1739 1626.16 13.7269C1626.16 13.2254 1626.18 12.7239 1626.19 12.1615H1635V12.2831ZM1253.58 81.5241C1254.22 81.4633 1254.75 81.4178 1255.33 81.3722C1255.19 80.6427 1254.88 80.2931 1254.44 80.3083C1253.97 80.3083 1253.84 80.9162 1253.58 81.5241Z" fill="#224292"/>
<path d="M1215.79 12.2831V147.513H549.338C549.338 147.391 549.36 147.27 549.36 147.163C549.382 126.084 549.392 105.005 549.414 83.9102C549.414 83.439 549.458 82.9831 549.491 82.512C549.698 82.4664 549.807 82.4208 549.916 82.4208C552.347 82.436 554.778 82.4664 557.21 82.4816C558.682 82.4816 560.165 82.512 561.636 82.4968C564.101 82.4816 566.565 82.436 569.018 82.4208C569.16 82.4208 569.312 82.4208 569.454 82.4664C570.457 82.664 570.751 83.0439 570.904 84.4269C570.958 84.9436 570.969 85.4755 570.969 85.9923C570.969 88.4087 570.926 90.8403 570.926 93.2568C570.926 100.734 570.926 108.196 570.926 115.673C570.926 116.403 570.937 117.132 571.024 117.847C571.133 118.88 571.645 119.351 572.474 119.321C573.183 119.291 573.575 118.804 573.662 117.756C573.706 117.315 573.684 116.874 573.684 116.418C573.673 96.4179 573.652 76.4329 573.641 56.4326C573.641 55.384 573.641 54.3353 573.695 53.2867C573.771 51.7821 574.175 51.159 575.254 51.0678C576.236 50.9918 577.217 51.0526 578.209 51.0526C583.857 51.0678 589.504 51.0982 595.152 51.0982C595.697 51.0982 596.242 50.9918 596.788 50.9006C597.409 50.779 597.791 50.2472 597.889 49.4113C597.976 48.6666 597.998 47.8915 597.998 47.1316C597.998 44.0161 597.965 40.9157 597.998 37.8002C598.009 36.0828 598.358 35.6269 599.557 35.6269C601.585 35.6269 603.613 35.6269 605.641 35.6269C606.132 35.6269 606.622 35.6573 607.113 35.5965C608.116 35.4901 608.497 34.9582 608.606 33.56C608.639 33.1952 608.628 32.8305 608.628 32.4657C608.628 31.7362 608.574 31.0068 608.617 30.2925C608.672 29.1982 608.934 28.7119 609.708 28.5903C610.94 28.3928 612.183 28.2712 613.415 28.2256C614.483 28.18 615.552 28.2864 616.631 28.3016C616.882 28.3016 617.133 28.2104 617.46 28.1496C617.46 27.6329 617.46 27.1921 617.46 26.7514C617.427 25.2164 617.351 23.6815 617.362 22.1465C617.362 17.2224 617.383 12.2983 617.438 7.37426C617.449 5.93047 617.547 4.47148 617.7 3.04289C617.83 1.81187 618.365 0.960806 619.324 0.915213C621.145 0.808829 622.966 0.763245 624.786 0.687256C624.841 0.687256 624.906 0.702437 624.961 0.717635C625.43 0.824019 625.779 1.12798 625.877 1.81188C625.975 2.48058 626.084 3.16446 626.095 3.83316C626.117 5.36813 626.062 6.9031 626.062 8.43808C626.062 14.0916 626.084 19.7452 626.095 25.3988C626.095 25.6419 626.095 25.8851 626.095 26.1283C626.128 27.1465 626.509 27.8152 627.196 28.0584C627.665 28.2256 628.166 28.3016 628.657 28.3016C631.121 28.2712 633.574 28.1496 636.038 28.1496C640.269 28.1496 644.499 28.2256 648.719 28.256C648.98 28.256 649.242 28.256 649.504 28.3016C650.06 28.3927 650.256 28.6511 650.365 29.4262C650.398 29.6997 650.408 29.9885 650.408 30.2773C650.419 34.0311 650.452 37.785 650.452 41.5388C650.452 51.5541 650.441 61.5695 650.43 71.5848C650.43 72.1167 650.43 72.6334 650.463 73.1502C650.55 74.138 650.921 74.8827 651.641 74.9739C652.371 75.0651 653.134 74.9891 653.876 74.8523C654.443 74.7459 654.791 74.1684 654.868 73.3629C654.933 72.7246 654.999 72.0863 654.999 71.448C654.977 68.4237 654.911 65.3993 654.901 62.3597C654.901 59.6545 654.933 56.9494 654.955 54.2441C654.955 53.5603 654.955 52.8763 654.977 52.1772C655.031 50.2471 655.446 49.7 656.852 49.6696C657.027 49.6696 657.201 49.6696 657.375 49.6696C658.477 49.7 659.578 49.776 660.668 49.776C662.751 49.776 664.833 49.6848 666.926 49.6696C668.584 49.6696 668.976 50.2015 668.998 52.5116C669.009 54.0466 668.998 55.5815 668.998 57.1165C668.965 64.5482 668.922 71.9799 668.9 79.4116C668.9 80.5819 668.9 81.7521 668.976 82.9223C669.074 84.5637 669.609 85.2932 670.786 85.4452C671.07 85.4907 671.364 85.4907 671.658 85.4907C673.545 85.4907 675.42 85.4907 677.306 85.4907C687.817 85.4907 698.338 85.4907 708.848 85.4907C709.099 85.4907 709.339 85.5515 709.666 85.5971C709.666 86.1899 709.666 86.661 709.666 87.1321C709.666 103.606 709.666 120.096 709.666 136.57C709.666 137.178 709.666 137.786 709.71 138.379C709.753 139.048 709.961 139.625 710.375 140.005C711.084 140.659 713.286 140.339 713.918 139.534C714.474 138.804 714.616 137.877 714.627 136.89C714.627 134.944 714.627 133.014 714.627 131.069C714.627 109.26 714.627 87.4513 714.616 65.6425C714.616 64.5178 714.474 63.3932 714.354 62.2838C714.235 61.2047 714.3 60.2017 714.66 59.229C714.9 58.5907 715.238 58.2563 715.761 58.2715C716.633 58.3019 717.495 58.3627 718.367 58.3171C718.999 58.2867 719.631 58.1196 720.253 57.9676C720.645 57.8764 720.82 57.5573 720.809 56.9493C720.787 56.0223 720.842 55.0952 720.842 54.1681C720.842 53.5754 721.049 53.2411 721.43 53.1347C721.856 53.0283 722.281 52.922 722.717 52.922C728.245 52.8612 733.784 52.8156 739.311 52.77C739.628 52.77 739.955 52.77 740.271 52.8156C741.23 52.9675 741.47 53.3475 741.503 54.6697C741.503 54.8369 741.503 54.9889 741.503 55.156C741.459 57.8308 741.852 58.3475 743.749 58.3475C744.785 58.3475 745.831 58.3627 746.856 58.5603C748.088 58.7883 748.906 59.8521 749.211 61.5391C749.364 62.3901 749.418 63.2868 749.418 64.1683C749.451 69.8219 749.462 75.4754 749.473 81.129C749.473 85.5667 749.462 90.0045 749.44 94.4574C749.44 96.8739 749.375 99.3055 749.375 101.722C749.375 103.014 749.353 104.306 749.484 105.582C749.626 107.011 750.084 107.573 751.097 107.664C751.904 107.725 752.711 107.603 753.518 107.512C753.976 107.467 754.259 107.041 754.325 106.418C754.39 105.825 754.445 105.217 754.445 104.61C754.445 98.272 754.445 91.9346 754.445 85.5819C754.445 84.4117 754.401 83.2415 754.445 82.0712C754.499 80.5059 754.892 79.9739 755.993 79.9131C756.451 79.8828 756.92 79.8828 757.378 79.898C759.002 79.898 760.627 79.898 762.24 79.9436C764.007 79.9892 765.773 80.0804 767.539 80.1411C767.943 80.1563 768.346 80.2019 768.749 80.1563C770.025 80.0195 770.745 79.0773 770.985 77.3296C771.17 75.9466 770.974 74.5939 770.886 73.2261C770.832 72.4207 770.766 71.6152 770.799 70.8097C770.843 69.7003 771.224 69.1227 772.009 68.8948C772.402 68.7884 772.816 68.7276 773.22 68.7276C775.422 68.7276 777.624 68.7276 779.827 68.758C785.562 68.7884 791.297 68.8188 797.032 68.8492C797.522 68.8492 798.013 68.8036 798.504 68.7428C799.354 68.6212 799.845 68.0437 799.932 66.8583C800.008 65.8248 800.008 64.761 799.932 63.7123C799.834 62.4509 799.332 61.8734 798.416 61.843C797.839 61.843 797.261 61.919 796.683 61.9798C795.8 62.071 794.982 61.9038 794.306 61.0071C794.371 60.8855 794.382 60.8248 794.404 60.8248C796.432 60.7944 798.449 60.764 800.477 60.7488C800.859 60.7488 801.055 61.0983 801.109 61.5846C801.142 61.9038 801.142 62.223 801.142 62.5573C801.142 63.9707 801.131 65.3841 801.142 66.7975C801.142 68.1349 801.535 68.682 802.494 68.8036C802.614 68.8036 802.723 68.8188 802.843 68.8188C805.013 68.8036 807.182 68.7732 809.363 68.758C810.671 68.7428 811.107 68.0893 811.097 66.2352C811.097 63.6971 811.097 61.1439 811.097 58.6059C811.097 58.3627 811.053 58.074 811.129 57.8916C811.238 57.6484 811.435 57.4205 811.62 57.3293C811.871 57.2077 812.067 57.4509 812.121 57.8156C812.165 58.0892 812.187 58.3779 812.198 58.6515C812.198 60.916 812.198 63.1804 812.198 65.4297C812.198 65.7944 812.198 66.1592 812.22 66.5239C812.285 67.299 812.623 67.8462 813.146 67.9374C813.702 68.0437 814.302 68.0285 814.858 67.8613C815.469 67.679 815.643 67.2534 815.632 66.3568C815.632 65.7945 815.556 65.2321 815.523 64.6698C815.48 63.8795 815.392 63.0892 815.545 62.2989C816.428 62.6485 816.603 62.9069 816.635 63.9403C816.657 64.8218 816.646 65.7185 816.668 66.5999C816.712 68.4693 816.853 68.6668 818.183 68.7428C818.445 68.758 818.707 68.7884 818.969 68.7732C819.688 68.7124 820.408 68.6516 821.138 68.5756C822.948 68.3933 823.908 69.5027 823.94 71.8736C823.94 72.3903 823.94 72.9222 823.908 73.4541C823.853 74.8219 823.722 76.1897 823.722 77.5575C823.722 90.9619 823.722 104.382 823.722 117.786C823.722 118.196 823.722 118.591 823.733 119.002C823.777 119.914 823.984 120.75 824.376 121.464C825.02 122.634 826.077 122.999 827.2 122.421C828.083 121.965 828.28 121.479 828.269 119.747C828.247 111.874 828.236 104.002 828.214 96.114C828.214 94.0927 828.171 92.0714 828.182 90.0653C828.192 87.7704 828.203 85.4603 828.291 83.1655C828.356 81.6305 828.814 81.129 829.926 81.129C830.362 81.129 830.787 81.2202 831.223 81.2658C832.15 81.3418 833.044 81.1898 833.655 80.0651C833.96 79.5028 834.309 79.3813 834.767 79.3813C837.602 79.3813 840.447 79.3812 843.282 79.3508C843.915 79.3508 844.427 79.5788 844.721 80.4147C844.928 81.0074 845.266 81.1594 845.713 81.1594C848.145 81.1594 850.576 81.1594 853.008 81.1594C853.825 81.1594 854.556 80.825 855.112 79.9587C855.417 79.4876 855.766 79.366 856.191 79.366C857.085 79.366 857.99 79.3053 858.884 79.3205C860.738 79.3205 862.591 79.3509 864.445 79.3813C865.164 79.3813 865.83 79.6396 866.277 80.5059C866.593 81.0986 867.029 81.1746 867.509 81.1746C869.94 81.1442 872.371 81.129 874.803 81.1138C874.857 81.1138 874.923 81.1138 874.977 81.1138C876.187 81.1442 876.656 81.7369 876.711 83.4543C876.754 84.8676 876.722 86.281 876.722 87.6944C876.722 97.9073 876.722 108.135 876.722 118.348C876.722 120.886 876.678 123.44 876.722 125.978C876.743 127.953 877.408 128.728 878.826 128.622C879.48 128.576 879.763 128.257 879.883 127.345C879.927 126.996 879.938 126.616 879.938 126.266C879.938 124.929 879.905 123.607 879.905 122.269C879.905 104.944 879.905 87.6184 879.905 70.293C879.905 69.8067 879.905 69.3203 879.938 68.834C880.069 67.299 880.581 66.2656 881.693 65.7184C883.819 64.6698 885.902 63.4692 888.017 62.375C889.827 61.4327 891.561 60.1713 893.49 59.7001C893.959 59.5786 894.384 59.153 894.831 58.8794C895.169 58.6819 895.518 58.4083 895.878 58.3323C897.197 58.074 898.506 57.7245 899.836 57.6789C902.583 57.5725 905.331 57.5877 908.089 57.6637C909.594 57.694 909.987 57.6028 909.976 55.08C909.954 46.6453 909.987 38.1953 909.997 29.7605C909.997 28.1496 909.932 26.5386 909.932 24.9277C909.932 22.4656 909.899 20.0036 909.997 17.5416C910.074 15.3075 911.044 13.9093 912.614 13.4837C912.93 13.3926 913.247 13.3166 913.552 13.195C914.424 12.8454 914.806 12.2376 914.849 10.9457C914.871 10.1403 914.762 9.33474 914.762 8.52926C914.762 7.86056 914.762 7.16148 914.849 6.50798C914.947 5.82408 915.34 5.39856 915.831 5.29218C916.332 5.17059 916.855 5.10977 917.39 5.44412C917.39 6.02163 917.379 6.58399 917.39 7.1463C917.444 8.66608 917.422 10.2162 917.586 11.7208C917.717 13.0126 918.24 13.4685 919.178 13.4685C920.628 13.4685 922.067 13.4686 923.517 13.4534C927.922 13.4382 932.327 13.423 936.721 13.4078C937.026 13.4078 937.331 13.4685 937.647 13.5141C937.669 13.8789 937.68 14.1221 937.691 14.3652C937.724 19.4565 937.8 24.5477 937.789 29.6238C937.767 54.3353 937.735 79.0621 937.713 103.774C937.702 116.494 937.713 129.215 937.713 141.935C937.713 142.346 937.713 142.756 937.756 143.136C937.898 144.23 938.378 144.701 939.272 144.625C940.09 144.549 940.406 144.154 940.439 142.953C940.471 141.738 940.471 140.537 940.471 139.321C940.493 127.528 940.504 115.734 940.526 103.941C940.526 103.591 940.548 103.227 940.569 102.786C940.864 102.755 941.115 102.71 941.376 102.71C944.505 102.71 947.635 102.695 950.764 102.679C952.17 102.679 952.345 102.436 952.345 100.43C952.345 93.6519 952.345 86.8585 952.345 80.0803C952.345 79.442 952.345 78.7885 952.399 78.1502C952.475 77.2231 952.748 76.904 953.413 76.8128C953.555 76.7976 953.708 76.8128 953.849 76.8128C962.855 76.8128 971.861 76.8128 980.867 76.8128C981.183 76.8128 981.488 76.8584 981.848 76.8888C981.881 77.2991 981.924 77.6031 981.924 77.9222C981.924 84.4269 981.924 90.9315 981.924 97.4362C981.924 98.4392 981.848 99.4575 981.87 100.461C981.892 101.631 982.448 102.026 983.167 101.464C983.342 101.327 983.505 101.16 983.68 101.008C986.22 98.7432 988.761 96.4939 991.29 94.2142C992.042 93.5303 992.762 92.7857 993.503 92.0866C994.027 91.585 994.528 91.0379 995.073 90.6124C995.957 89.9133 996.447 88.895 996.523 87.512C996.589 86.2658 996.654 85.0196 996.654 83.7582C996.643 79.9587 996.567 76.1745 996.556 72.3751C996.534 67.1622 996.556 61.9494 996.556 56.7366C996.556 55.156 996.632 53.5906 996.622 52.0101C996.622 50.7335 997.003 49.8216 997.745 49.0617C998.868 47.9219 999.936 46.6757 1000.99 45.4143C1001.94 44.2896 1002.84 43.0738 1003.76 41.9187C1004.36 41.1741 1005.09 40.7789 1005.88 40.627C1006.42 40.5206 1006.97 40.4446 1007.52 40.4446C1013.29 40.4446 1019.05 40.4446 1024.82 40.4446C1025.05 40.4446 1025.29 40.4446 1025.5 40.5054C1026.13 40.6725 1026.42 41.0829 1026.5 41.9492C1026.55 42.6331 1026.55 43.317 1026.55 44.0009C1026.55 45.1711 1026.52 46.3413 1026.51 47.5116C1026.48 51.9189 1026.47 56.3111 1026.47 60.7184C1026.47 61.3871 1026.53 62.1166 1026.72 62.7245C1026.93 63.3932 1026.99 64.0315 1026.99 64.7154C1026.99 69.1987 1026.99 73.6821 1026.99 78.1654C1026.99 79.442 1027.13 80.6579 1027.55 81.7977C1028.35 83.9406 1030.3 85.202 1031.89 84.5333C1031.9 84.2445 1031.94 83.9254 1031.95 83.6062C1031.96 80.7339 1031.98 77.8767 1031.98 75.0043C1031.98 70.521 1031.96 66.0376 1031.97 61.5543C1031.97 59.6697 1032.44 59.0163 1033.79 58.9555C1033.91 58.9555 1034.02 58.9555 1034.14 58.9555C1038.51 58.9555 1042.88 58.9555 1047.26 58.9555C1047.75 58.9555 1048.24 58.8795 1048.73 58.8187C1050.2 58.6211 1050.8 57.8156 1050.91 55.7639C1050.97 54.5937 1050.95 53.4235 1050.96 52.2532C1050.97 50.8247 1051.18 50.5055 1052.2 50.3687C1052.43 50.3383 1052.66 50.3383 1052.9 50.3383C1054.21 50.3383 1055.51 50.3535 1056.82 50.3383C1058.04 50.3383 1058.37 49.928 1058.56 48.3018C1058.69 47.2076 1059.11 46.7668 1060.06 46.7365C1060.1 47.2836 1060.14 47.8459 1060.19 48.393C1060.22 48.7881 1060.22 49.1985 1060.28 49.5936C1060.44 50.4903 1060.7 50.6727 1061.35 50.5055C1061.72 50.4143 1062.09 50.3535 1062.46 50.3231C1062.92 50.2927 1063.39 50.3231 1063.85 50.2927C1064.77 50.2471 1065.01 49.928 1065.09 48.621C1065.11 48.3018 1065.1 47.9675 1065.14 47.6483C1065.2 46.9492 1065.39 46.706 1065.84 46.6756C1066.34 46.6453 1066.63 46.9188 1066.72 47.5723C1066.78 48.0434 1066.77 48.545 1066.84 49.0161C1066.97 49.9432 1067.22 50.2168 1067.91 50.2623C1068.17 50.2623 1068.43 50.2623 1068.69 50.2623C1073.01 50.2623 1077.33 50.2623 1081.63 50.2927C1082.16 50.2927 1082.67 50.3535 1083.18 50.4599C1083.87 50.5967 1084.26 51.2046 1084.37 52.1469C1084.45 52.8611 1084.5 53.5906 1084.5 54.3201C1084.5 59.001 1084.48 63.682 1084.48 68.3629C1084.48 74.0165 1084.47 79.67 1084.49 85.3235C1084.49 87.6336 1085.02 88.1655 1086.6 87.4664C1089.63 86.1442 1092.66 84.7157 1095.7 83.4087C1096.99 82.8463 1098 81.8281 1098.8 80.3083C1100.63 76.8584 1102.51 73.4845 1104.35 70.065C1105.59 67.7702 1106.81 65.4601 1108.02 63.15C1108.89 61.4935 1110.03 60.6576 1111.52 60.7488C1111.66 60.7488 1111.81 60.7488 1111.95 60.7488C1116.64 60.7488 1121.34 60.764 1126.03 60.764C1126.49 60.764 1126.96 60.764 1127.41 60.7032C1129.37 60.4752 1130.46 59.0922 1130.86 56.4022C1130.91 56.0071 1130.96 55.5968 1131.09 55.2472C1131.26 54.7609 1131.6 54.6241 1131.97 54.7153C1132.32 54.8065 1132.55 55.08 1132.55 55.6272C1132.55 56.0375 1132.57 56.4326 1132.56 56.843C1132.56 57.3293 1132.53 57.8156 1132.54 58.3019C1132.57 60.0649 1133.16 60.8704 1134.44 60.8552C1134.81 60.8552 1135.19 60.764 1135.56 60.7184C1136.76 60.5664 1137.86 60.9768 1138.82 61.995C1139.32 62.5269 1139.82 63.1045 1140.24 63.758C1141.16 65.2018 1142.02 66.7215 1142.95 68.1653C1143.93 69.7003 1144.92 71.22 1145.94 72.7094C1146.73 73.8796 1147.55 74.9891 1148.37 76.1289C1148.43 76.2201 1148.49 76.3113 1148.52 76.4177C1148.95 77.7399 1149.62 78.7733 1150.47 79.594C1150.64 79.746 1150.78 79.9739 1150.89 80.2019C1151.68 81.9041 1152.85 82.4968 1154.25 82.4056C1154.56 82.3904 1154.88 82.36 1155.21 82.3448C1156.94 82.3296 1158.68 82.2992 1160.42 82.2992C1161.01 82.2992 1161.25 82.6336 1161.33 83.439C1161.35 83.6366 1161.34 83.8494 1161.34 84.0469C1161.34 90.0653 1161.37 96.0836 1161.34 102.102C1161.33 111.388 1161.31 120.674 1161.28 129.975C1161.28 130.658 1161.5 131.084 1161.9 131.449C1162.59 132.072 1163.28 131.89 1163.99 131.616C1164.82 131.297 1165.08 130.826 1165.06 129.61C1165.05 128.804 1164.97 127.999 1164.97 127.193C1164.96 119.929 1164.95 112.649 1164.94 105.385C1164.93 92.7401 1164.91 80.0955 1164.9 67.4662C1164.9 66.6303 1164.95 65.7641 1165.06 64.9434C1165.23 63.6212 1165.59 63.1652 1166.51 63.1652C1169.06 63.1652 1171.6 63.2564 1174.15 63.2868C1174.68 63.2868 1175.19 63.2564 1175.71 63.1804C1176.29 63.0893 1176.67 62.5725 1176.78 61.7974C1176.88 61.0983 1176.91 60.3536 1176.91 59.6393C1176.91 57.2229 1176.88 54.7913 1176.87 52.3748C1176.87 51.9797 1176.87 51.5541 1176.92 51.1742C1177.03 50.3079 1177.33 49.9128 1177.96 49.8064C1178.39 49.7304 1178.82 49.7152 1179.26 49.7152C1182.24 49.6848 1185.22 49.6696 1188.21 49.6392C1188.37 49.6392 1188.55 49.7 1188.75 49.7456C1189 50.9311 1189.15 52.1165 1189.15 53.3323C1189.15 56.0831 1189.12 58.8187 1189.14 61.5695C1189.14 63.2868 1189.53 63.8491 1190.74 63.8643C1192.68 63.8643 1194.62 63.8491 1196.56 63.8491C1197.35 63.8491 1198.05 63.53 1198.66 62.8765C1201.24 60.1865 1203.79 57.4661 1206.36 54.7761C1206.77 54.3505 1206.96 53.8186 1206.95 53.1195C1206.95 52.4356 1206.95 51.7517 1206.95 51.0526C1206.95 38.6056 1206.95 26.1739 1206.95 13.7269C1206.95 13.2254 1206.97 12.7239 1206.98 12.1615H1215.79V12.2831ZM834.374 81.5241C835.018 81.4633 835.541 81.4178 836.13 81.3722C835.988 80.6427 835.672 80.2931 835.236 80.3083C834.767 80.3083 834.636 80.9162 834.374 81.5241Z" fill="#224292"/>
</svg>
