<svg width="331" height="72" viewBox="0 0 331 72" fill="none" xmlns="http://www.w3.org/2000/svg">
<path d="M136.975 25.3485H122.815C122.409 25.3654 122.02 25.5145 121.712 25.7717C121.404 26.029 121.194 26.3794 121.115 26.7668L120.191 33.0008C120.151 33.2375 120.165 33.4799 120.232 33.7107C120.3 33.9415 120.419 34.1548 120.582 34.3356C120.744 34.5163 120.946 34.6599 121.172 34.7561C121.398 34.8523 121.644 34.8986 121.891 34.8919H133.443C133.69 34.8853 133.936 34.9317 134.162 35.0278C134.389 35.124 134.591 35.2675 134.753 35.4481C134.916 35.6287 135.036 35.8421 135.104 36.0728C135.172 36.3035 135.187 36.546 135.147 36.7829L134.904 38.4336C134.825 38.8216 134.615 39.1726 134.305 39.4299C133.996 39.6872 133.607 39.8359 133.2 39.8519H120.699C120.289 39.8606 119.896 40.0067 119.585 40.2652C119.275 40.5238 119.066 40.8789 118.995 41.2702L117.39 51.9955C117.321 52.3785 117.12 52.7276 116.82 52.9853C116.52 53.243 116.139 53.3941 115.739 53.4137H113.367C113.123 53.4176 112.881 53.3688 112.658 53.2709C112.436 53.173 112.239 53.0284 112.081 52.8475C111.923 52.6666 111.808 52.4539 111.745 52.2248C111.682 51.9957 111.672 51.7559 111.716 51.5227L116.144 21.7587C116.211 21.375 116.411 21.0252 116.711 20.7672C117.012 20.5092 117.393 20.3587 117.794 20.3404H137.186C137.432 20.3339 137.677 20.3803 137.903 20.4762C138.13 20.5721 138.331 20.7152 138.494 20.8954C138.657 21.0756 138.776 21.2884 138.845 21.5186C138.913 21.7488 138.928 21.9909 138.89 22.2275L138.597 23.9302C138.538 24.3129 138.345 24.6638 138.049 24.9227C137.753 25.1816 137.373 25.3322 136.975 25.3485Z" fill="white"/>
<path d="M154.833 51.856C154.882 51.3833 154.202 51.1469 153.814 51.3833C151.751 52.8937 149.094 53.6509 145.975 53.6509C140.38 53.6509 137.413 50.2935 138.045 45.8544C138.725 41.271 142.715 38.3423 148.941 38.2942H156.368C156.474 38.2892 156.575 38.2492 156.655 38.1807C156.734 38.1122 156.787 38.0194 156.805 37.9176L156.855 37.537C157.341 34.3719 155.538 32.4808 151.454 32.4808C149.391 32.4808 147.221 33.0497 144.885 34.2316C144.511 34.4166 144.076 34.4509 143.675 34.3272C143.275 34.2035 142.94 33.9318 142.744 33.5706L142.331 32.625C142.162 32.2402 142.148 31.8075 142.292 31.4131C142.437 31.0187 142.729 30.6918 143.111 30.4976C146.321 28.9391 148.999 28.0938 153.282 28.0938C159.945 28.0938 163.208 31.3991 162.429 36.928L160.238 52.0003C160.17 52.384 159.97 52.7338 159.67 52.9918C159.37 53.2498 158.988 53.4003 158.587 53.4186H156.157C155.958 53.4179 155.762 53.3747 155.582 53.2919C155.402 53.2091 155.243 53.0888 155.117 52.9396C154.99 52.7903 154.899 52.6159 154.85 52.4286C154.801 52.2413 154.795 52.0458 154.833 51.856ZM155.807 44.7686L155.856 44.4842L156.001 43.3984C156.028 43.256 156.022 43.1094 155.983 42.9696C155.944 42.8298 155.873 42.7004 155.774 42.5913C155.676 42.4821 155.554 42.396 155.417 42.3394C155.279 42.2828 155.13 42.2572 154.981 42.2646H149.205C145.558 42.2646 143.71 43.2061 143.367 45.618C143.029 47.8857 144.683 49.352 147.794 49.352C151.672 49.352 154.981 47.4129 155.807 44.7686Z" fill="white"/>
<path d="M186.754 29.9332C187.435 30.3098 187.484 31.0189 187.043 31.68L185.78 33.5711C185.566 33.8202 185.272 33.9926 184.945 34.0608C184.619 34.1291 184.278 34.0892 183.977 33.9477C182.14 32.9712 180.088 32.4368 177.995 32.3891C175.804 32.3891 174.104 33.0983 173.811 34.8932C173.13 39.5246 187.286 37.0206 185.875 46.1393C185.099 51.2876 180.037 53.6033 174.83 53.6033C171.529 53.6033 168.167 52.6578 165.881 50.911C165.196 50.3901 165.246 49.681 165.683 49.0199L166.756 47.3653C166.95 47.1052 167.239 46.9265 167.564 46.8655C167.888 46.8045 168.225 46.8657 168.505 47.0367C170.606 48.5056 173.12 49.3138 175.709 49.3525C178.094 49.3525 180.087 48.5512 180.379 46.6561C181.11 41.5078 167.094 44.3885 168.46 35.3179C169.235 30.2136 174.104 28.0422 179.063 28.0422C181.857 28.0301 184.662 28.7032 186.754 29.9332Z" fill="white"/>
<path d="M204.706 48.4999L205.098 50.6273C205.152 50.9758 205.092 51.3318 204.926 51.6452C204.76 51.9586 204.497 52.2135 204.174 52.3741C202.454 53.1707 200.58 53.6062 198.674 53.6522C194.784 53.6522 191.763 51.4766 192.543 46.3283L194.194 35.0342C194.23 34.8168 194.216 34.5945 194.155 34.3827C194.093 34.1709 193.984 33.9748 193.836 33.8083C193.687 33.6418 193.503 33.5088 193.296 33.4188C193.089 33.3288 192.865 33.2839 192.638 33.2873C192.41 33.295 192.183 33.253 191.974 33.1644C191.765 33.0759 191.578 32.943 191.429 32.7755C191.279 32.608 191.17 32.4102 191.11 32.1966C191.049 31.9829 191.038 31.7587 191.079 31.5405L191.178 30.6431C191.263 30.2585 191.476 29.9117 191.784 29.6556C192.092 29.3996 192.477 29.2482 192.882 29.2248H193.562C193.971 29.2152 194.363 29.0687 194.673 28.8102C194.983 28.5517 195.191 28.1971 195.262 27.8065L195.848 23.744C195.934 23.3594 196.147 23.0126 196.454 22.7565C196.762 22.5004 197.148 22.3491 197.552 22.3257H199.644C199.891 22.3198 200.136 22.3667 200.362 22.463C200.588 22.5594 200.79 22.7029 200.952 22.8834C201.115 23.0639 201.235 23.2769 201.303 23.5073C201.371 23.7377 201.387 23.9799 201.348 24.2167L200.906 27.3338C200.858 27.5676 200.864 27.8091 200.925 28.0401C200.986 28.2712 201.101 28.4858 201.259 28.6678C201.418 28.8498 201.618 28.9945 201.842 29.0909C202.067 29.1874 202.311 29.2332 202.557 29.2248H206.27C206.517 29.218 206.762 29.2644 206.989 29.3606C207.215 29.4568 207.417 29.6004 207.579 29.7811C207.742 29.9618 207.861 30.1752 207.928 30.406C207.996 30.6368 208.01 30.8792 207.97 31.1159L207.875 31.8691C207.795 32.2564 207.584 32.6066 207.275 32.8637C206.966 33.1208 206.577 33.27 206.171 33.2873H201.496C201.088 33.2976 200.695 33.4442 200.385 33.7025C200.075 33.9608 199.865 34.3151 199.792 34.7056L198.237 45.3348C197.845 47.9349 198.724 48.7362 200.473 48.7362C201.588 48.7069 202.683 48.4489 203.687 47.979C203.789 47.9433 203.898 47.9286 204.006 47.9359C204.114 47.9432 204.219 47.9722 204.315 48.0212C204.411 48.0702 204.495 48.1381 204.563 48.2205C204.63 48.3029 204.679 48.3981 204.706 48.4999Z" fill="white"/>
<path d="M236.771 22.6568C236.965 22.7543 237.134 22.8912 237.269 23.0582C237.403 23.2251 237.499 23.4182 237.549 23.6243C237.6 23.8303 237.604 24.0445 237.561 24.2523C237.519 24.4601 237.431 24.6565 237.303 24.8283L235.942 26.9557C235.504 27.709 234.291 27.9453 233.512 27.5206C230.591 26.0102 227.735 25.3492 225.532 25.3492C222.174 25.3492 219.789 26.5751 219.451 28.7987C218.378 36.0103 237.353 32.1521 235.542 44.0593C234.667 49.9648 228.73 53.6027 221.237 53.6027C216.777 53.6443 212.456 52.1011 209.086 49.2637C208.8 49.0171 208.616 48.6766 208.571 48.3072C208.526 47.9377 208.623 47.5651 208.843 47.2605L210.155 45.3213C210.691 44.4719 212.218 44.4239 213.043 45.0369C215.816 47.1643 219.174 48.3462 222.141 48.3462C226.13 48.3462 228.742 46.8798 229.155 44.3398C230.227 36.9719 211.253 41.0825 212.952 29.3156C213.831 23.6464 219.376 20.1007 226.774 20.1007C230.279 20.0887 233.726 20.9701 236.771 22.6568Z" fill="white"/>
<path d="M265.087 41.6C265.026 41.9705 264.831 42.3077 264.537 42.5508C264.242 42.7939 263.868 42.927 263.482 42.9261H247.135C245.897 42.9261 245.237 43.443 245.576 44.5768C246.454 47.4615 248.876 49.2083 252.388 49.2083C254.726 49.2015 257.004 48.4919 258.911 47.177C259.492 46.8004 260.561 46.8445 261.002 47.4134L261.634 48.1706C261.785 48.3107 261.903 48.4813 261.978 48.6704C262.054 48.8596 262.087 49.0626 262.073 49.2651C262.059 49.4676 262 49.6648 261.899 49.8426C261.798 50.0204 261.658 50.1745 261.489 50.294C258.569 52.4933 254.964 53.6606 251.269 53.6034C243.29 53.6034 238.813 48.451 239.931 40.8949C241.05 33.3387 247.23 28.1383 254.921 28.0742C263.581 28.0902 266.548 33.2866 265.087 41.6ZM247.915 38.9558H259.01C260.033 38.9558 260.66 38.483 260.615 37.4934C260.375 34.3243 258.036 32.4373 254.339 32.4373C252.743 32.4188 251.173 32.8336 249.806 33.6349C248.439 34.4362 247.33 35.5921 246.603 36.9726C245.968 38.1064 246.632 38.9558 247.915 38.9558Z" fill="white"/>
<path d="M296.229 37.7744L294.087 51.9973C294.02 52.381 293.82 52.7309 293.52 52.9888C293.219 53.2468 292.837 53.3974 292.437 53.4156H290.25C290.006 53.4195 289.764 53.3707 289.542 53.2728C289.319 53.1749 289.122 53.0302 288.964 52.8493C288.806 52.6684 288.692 52.4558 288.629 52.2267C288.566 51.9976 288.556 51.7578 288.6 51.5246L290.399 39.2888C290.981 35.5067 288.988 33.191 285.097 33.191C280.909 33.2391 277.844 35.9956 276.775 39.7616C276.775 39.7616 276.726 40.0901 276.726 40.1382L274.927 51.9973C274.858 52.3804 274.657 52.7294 274.357 52.9872C274.058 53.2449 273.676 53.3959 273.276 53.4156H271.086C270.841 53.4195 270.599 53.3707 270.377 53.2728C270.155 53.1749 269.957 53.0302 269.8 52.8493C269.642 52.6684 269.527 52.4558 269.464 52.2267C269.401 51.9976 269.391 51.7578 269.435 51.5246L272.649 29.6974C272.728 29.31 272.938 28.9596 273.246 28.7023C273.555 28.445 273.943 28.296 274.349 28.2791H276.49C276.738 28.2725 276.983 28.3189 277.21 28.415C277.436 28.5112 277.638 28.6547 277.801 28.8354C277.963 29.016 278.083 29.2293 278.151 29.46C278.219 29.6908 278.234 29.9332 278.194 30.1702L278.05 31.0195C278.001 31.4923 278.776 31.7768 279.119 31.4442C281.404 29.1285 284.42 28.0908 288.022 28.0908C294.038 28.0908 297.103 31.7768 296.229 37.7744Z" fill="white"/>
<path d="M330.97 20.2453L326.262 51.9964C326.195 52.3801 325.995 52.73 325.695 52.9879C325.394 53.2459 325.013 53.3965 324.612 53.4147H322.425C322.181 53.4186 321.939 53.3698 321.717 53.2719C321.494 53.174 321.297 53.0293 321.139 52.8484C320.981 52.6675 320.867 52.4549 320.804 52.2258C320.741 51.9967 320.731 51.7569 320.775 51.5237L320.87 50.9107C320.919 50.486 320.189 50.2015 319.801 50.51C317.66 52.5413 314.739 53.6311 311.335 53.6311C303.908 53.6311 299.708 48.3866 300.872 40.7303C301.973 33.1901 307.696 28.0298 315.011 28.0298C318.469 28.0298 321.047 29.1637 322.652 31.1949C322.941 31.5715 323.721 31.4794 323.77 31.0066L325.474 19.7605C325.542 19.3771 325.743 19.0277 326.043 18.7698C326.343 18.512 326.725 18.3612 327.125 18.3422H329.312C329.558 18.3368 329.802 18.3849 330.026 18.4829C330.251 18.581 330.45 18.7266 330.609 18.9091C330.768 19.0916 330.883 19.3062 330.945 19.5374C331.008 19.7686 331.016 20.0105 330.97 20.2453ZM322.306 40.9386C323.036 36.0748 320.263 32.6733 315.593 32.6733C310.922 32.6733 307.176 36.1228 306.396 40.9386C305.716 45.7103 308.439 49.1158 313.159 49.1158C317.879 49.1158 321.58 45.7103 322.31 40.9386H322.306Z" fill="white"/>
<path d="M49.07 48.5745H55.5394H65.9201C66.4892 48.5978 67.0458 48.4086 67.4756 48.0457C67.825 47.7616 68.0781 47.3818 68.2018 46.9559L69.4395 42.2844L69.8521 40.77C69.9511 40.4366 69.9653 40.0849 69.8934 39.745C69.8215 39.4052 69.6658 39.0873 69.4395 38.8188C69.2228 38.5506 68.9468 38.3332 68.6318 38.1827C68.3168 38.0322 67.971 37.9525 67.62 37.9494H55.9107C55.9107 37.9494 53.9839 37.9494 53.3774 37.9494C52.9088 37.9586 52.4439 37.8671 52.016 37.6815C51.588 37.4959 51.2076 37.2207 50.9019 36.8757C50.5205 36.4399 50.2597 35.917 50.1442 35.3562C50.0287 34.7954 50.0623 34.2152 50.2418 33.6705L50.9019 31.1945L53.9344 19.8362C54.6812 17.0317 57.2352 17.0317 57.2352 17.0317H61.4889H77.9471H80.2741C81.0704 17.0317 82.0317 16.9836 82.9642 17.8691C83.3393 18.2276 83.6124 18.6744 83.757 19.1658C83.9017 19.6573 83.9128 20.1767 83.7893 20.6736C83.608 21.4493 83.1622 22.1429 82.5242 22.6417C81.8861 23.1406 81.0932 23.4156 80.2741 23.422H62.8381C62.507 23.4248 62.1841 23.5224 61.9098 23.7025C61.5834 23.9186 61.3477 24.2413 61.2455 24.6119C60.573 27.116 60.2347 28.366 59.917 29.624C59.8636 29.8486 59.8622 30.0818 59.9129 30.307C59.9635 30.5322 60.065 30.7436 60.2099 30.9261C60.3647 31.1215 60.5633 31.28 60.7907 31.3897C61.018 31.4994 61.2681 31.5573 61.522 31.5591H64.6824L72.3029 31.5791H76.6227C77.1226 31.5793 77.616 31.6898 78.0656 31.9021C78.5151 32.1145 78.9091 32.4233 79.2178 32.8051C79.5281 33.199 79.7437 33.6553 79.8486 34.1406C79.9536 34.6259 79.9453 35.1279 79.8244 35.6096C79.6511 36.2707 79.189 37.9454 79.189 37.9454L76.3545 48.5545C76.3545 48.5545 75.5953 51.359 75.29 52.5249C75.1186 53.2199 74.7063 53.8366 74.1224 54.2717C73.547 54.7195 72.8298 54.9602 72.0925 54.9528C71.9027 54.9528 71.8862 54.9528 71.3292 54.9528H48.5089C48.0509 54.9467 47.5998 54.8435 47.1872 54.6504C46.7745 54.4574 46.4103 54.1791 46.12 53.835C45.807 53.4428 45.5988 52.9815 45.5138 52.4921C45.4289 52.0028 45.4699 51.5007 45.6332 51.0305C45.869 50.3232 46.3276 49.7057 46.9443 49.265C47.5609 48.8244 48.3045 48.5829 49.07 48.5745Z" fill="white"/>
<path d="M35.0535 7.3879C34.3628 6.76821 33.4605 6.41859 32.5202 6.40634H25.073C24.5964 6.41159 24.1243 6.31653 23.6891 6.12772C23.2539 5.93891 22.866 5.66081 22.5521 5.31256C22.0324 4.72344 21.7406 3.97677 21.7269 3.20118C21.7298 2.71674 21.8447 2.23911 22.0633 1.80361C22.2818 1.36811 22.5983 0.985859 22.9894 0.685112C23.5718 0.249361 24.2842 0.00893862 25.0194 0H47.5756H96.6364C97.8957 0.0178634 99.1154 0.429526 100.115 1.17389C100.958 1.79932 101.589 2.65629 101.926 3.63386C102.136 4.2666 102.237 4.92839 102.227 5.59302C102.2 6.72707 101.805 7.82379 101.097 8.72607C100.342 9.70657 99.2693 10.4121 98.0516 10.7293C96.9115 11.0145 95.7085 10.9516 94.6065 10.549C93.3729 10.0849 92.3493 9.21024 91.7184 8.08104C91.3915 7.56613 90.9344 7.14087 90.3907 6.84567C89.8469 6.55047 89.2345 6.39511 88.6116 6.39431H48.7226C47.9304 6.39686 47.1598 6.64535 46.5235 7.10346C46.2204 7.32073 45.9544 7.58303 45.7354 7.88071C45.4682 8.2439 45.2711 8.65114 45.1537 9.08265C45.0423 9.51134 44.6709 10.8976 44.6709 10.8976L31.7239 59.3396C31.7239 59.3396 31.5919 59.8725 31.3113 60.9422C31.1972 61.4077 31.1514 61.8865 31.1752 62.3645C31.2348 62.936 31.4343 63.4855 31.7569 63.967C32.0584 64.4058 32.4538 64.7762 32.9163 65.0528C33.5118 65.4063 34.1989 65.5869 34.8967 65.5736H41.1186C41.6349 65.5664 42.1455 65.6791 42.608 65.9022C43.2094 66.1909 43.7059 66.6506 44.0314 67.2203C44.2586 67.6125 44.3991 68.0465 44.444 68.4944C44.4911 69.0211 44.4032 69.551 44.1882 70.0368C43.9284 70.6072 43.5079 71.0947 42.9752 71.4431C42.4991 71.7926 41.9216 71.9875 41.3249 72H12.9099C12.4378 71.9939 11.9725 71.8896 11.5454 71.694C11.1183 71.4984 10.7395 71.2161 10.4344 70.8662C9.91675 70.2852 9.63123 69.543 9.62982 68.7748C9.63133 67.9714 9.9435 67.1978 10.5045 66.6073C10.813 66.2822 11.1874 66.0225 11.6041 65.8446C12.0209 65.6667 12.4711 65.5744 12.9264 65.5736H18.6449C19.4773 65.5771 20.2858 65.3027 20.9347 64.7964C21.5241 64.3497 21.9565 63.7366 22.1725 63.0416L23.2081 59.1633C23.3401 58.6165 23.3401 58.0475 23.2081 57.5006C23.0522 56.9567 22.781 56.4504 22.4118 56.0142C22.0659 55.6307 21.6396 55.3232 21.1614 55.1125C20.6833 54.9018 20.1643 54.7926 19.6392 54.7923H7.26157C6.79417 54.7937 6.33178 54.6987 5.90502 54.5136C5.47826 54.3285 5.09686 54.0575 4.78604 53.7185C4.25744 53.1283 3.96462 52.3734 3.96086 51.5911C3.96745 50.8365 4.24298 50.1074 4.74064 49.5278C5.05188 49.1746 5.43773 48.8906 5.87198 48.6949C6.30623 48.4993 6.77874 48.3967 7.25744 48.394H23.303C24.0572 48.3678 24.7871 48.1283 25.4031 47.7049C26.0714 47.2406 26.5573 46.5696 26.7811 45.8018C27.0369 44.8763 27.2185 44.1271 27.4 43.454C27.607 42.723 27.5621 41.9463 27.2721 41.2424C27.092 40.82 26.8379 40.4309 26.5212 40.0926C26.1668 39.74 25.7468 39.4559 25.2834 39.2553C24.8287 39.0609 24.3362 38.9639 23.8394 38.9708H19.8249C19.0608 38.9835 18.3178 38.7274 17.7331 38.2496C17.3596 37.9515 17.0581 37.5774 16.8499 37.1537C16.6417 36.73 16.5319 36.2671 16.5283 35.7977C16.5285 35.0806 16.7721 34.3836 17.2214 33.8145C17.5285 33.428 17.923 33.1153 18.3745 32.9006C18.8259 32.686 19.3222 32.575 19.8249 32.5765C22.5562 32.5765 24.5779 32.5765 27.4536 32.5765C28.1549 32.5781 28.8414 32.3819 29.4299 32.0116C30.2056 31.5136 30.7686 30.759 31.0143 29.8882C31.2536 28.9787 31.5465 27.949 31.7858 27.0436C31.9216 26.5247 31.9358 25.9828 31.8272 25.4579C31.7187 24.933 31.4902 24.4384 31.1587 24.0107C30.8025 23.5602 30.3438 23.1959 29.8184 22.9463C29.293 22.6968 28.7151 22.5688 28.1303 22.5724C25.8239 22.5724 5.47506 22.5724 3.41624 22.5724C2.62633 22.5952 1.85392 22.3437 1.23776 21.8632C0.85563 21.5607 0.546685 21.1803 0.332785 20.749C0.118886 20.3177 0.0052643 19.8459 0 19.3672C0.0107164 18.5728 0.313644 17.8083 0.854061 17.2117C1.16145 16.8896 1.53427 16.6329 1.94899 16.4577C2.36371 16.2826 2.81134 16.1928 3.26359 16.1941H31.7322C32.5125 16.2191 33.28 15.9969 33.9189 15.5611C34.6154 15.0968 35.1255 14.4132 35.363 13.626C35.5527 12.9128 35.9158 11.5787 36.1221 10.8214C36.3262 10.022 36.2296 9.17806 35.8498 8.4416C35.6448 8.05087 35.3759 7.69501 35.0535 7.3879Z" fill="white"/>
</svg>
