<svg width="55" height="56" viewBox="0 0 55 56" fill="none" xmlns="http://www.w3.org/2000/svg">
<path d="M27.5 0.5C12.3114 0.5 0 12.8114 0 28C0 43.1886 12.3114 55.5 27.5 55.5C42.6886 55.5 55 43.1886 55 28C55 12.8114 42.6871 0.5 27.5 0.5ZM34.779 17.0351H31.9313C30.358 17.0351 28.708 18.0088 28.708 19.7339V24.3818H34.5551L33.5813 30.528H28.7095V45.7445H22.114V30.528H16.5675V24.3818H22.114V19.8091C22.114 15.2363 24.8129 11.4149 29.6847 11.7139L34.782 11.9393V17.0365L34.779 17.0351Z" fill="white"/>
</svg>
