<svg width="181" height="41" viewBox="0 0 181 41" fill="none" xmlns="http://www.w3.org/2000/svg">
<path d="M27.3719 27.6718H31.0111H36.2843C36.2843 27.6718 36.7017 27.6718 36.8542 27.6718C37.1416 27.6792 37.4234 27.5927 37.6555 27.4258C37.8876 27.2589 38.0569 27.0211 38.1371 26.7495L38.8382 24.087L39.0664 23.2227C39.1227 23.0331 39.1314 22.8328 39.0916 22.6391C39.0519 22.4454 38.9649 22.2641 38.8382 22.1108C38.7162 21.9581 38.5608 21.8344 38.3835 21.7488C38.2063 21.6632 38.0117 21.618 37.8143 21.6164H31.2334C31.2334 21.6164 30.1504 21.6059 29.8075 21.6083C29.5451 21.6125 29.285 21.5597 29.0457 21.4538C28.8064 21.3478 28.5938 21.1913 28.423 20.9953C27.8614 20.3079 27.9181 19.6728 28.0505 19.1691L28.423 17.7559L30.1291 11.284C30.5441 9.69165 31.9771 9.69165 31.9771 9.69165L34.3701 9.6998L43.6278 9.69165H44.9355C45.3848 9.69165 45.9239 9.6649 46.4501 10.1686C46.6613 10.3737 46.815 10.6291 46.8962 10.91C46.9775 11.1908 46.9834 11.4876 46.9136 11.7714C46.7457 12.403 46.1569 13.337 44.9355 13.337H35.1351C34.9489 13.338 34.7671 13.393 34.6125 13.4952C34.4296 13.6191 34.2976 13.803 34.2401 14.014C33.8629 15.4423 33.6714 16.1542 33.4917 16.8707C33.462 16.9988 33.4615 17.1317 33.4901 17.26C33.5187 17.3882 33.5758 17.5087 33.6572 17.6128C33.7442 17.7238 33.8557 17.8138 33.9834 17.8761C34.111 17.9383 34.2513 17.9712 34.3938 17.9722C34.6303 17.9722 35.8256 17.9722 36.1673 17.9722L40.4533 17.985C40.4533 17.985 42.1653 17.985 42.8842 17.985C43.165 17.9854 43.442 18.0485 43.6945 18.1693C43.947 18.2902 44.1684 18.4658 44.342 18.6829C44.7771 19.1842 44.7842 19.8949 44.6837 20.2834C44.5832 20.6719 44.329 21.6141 44.329 21.6141L42.7364 27.6625C42.7364 27.6625 42.3084 29.2689 42.1357 29.9249C42.0362 30.3199 41.8052 30.6707 41.4795 30.9216C41.1538 31.1724 40.7522 31.3088 40.3386 31.3091C40.231 31.3091 40.2203 31.3091 39.9106 31.3091H27.0562C26.7987 31.3058 26.545 31.2472 26.313 31.1373C26.081 31.0274 25.8762 30.8688 25.7131 30.6728C25.5342 30.4477 25.4156 30.1821 25.3679 29.9003C25.3202 29.6185 25.3449 29.3295 25.4399 29.0595C25.6338 28.5035 26.2416 27.6718 27.3719 27.6718Z" fill="white"/>
<path d="M19.567 4.20613C19.182 3.85298 18.6789 3.65345 18.1544 3.64593H13.9906C13.7246 3.6499 13.4608 3.5962 13.2179 3.4886C12.9749 3.381 12.7585 3.22209 12.584 3.02297C12.2932 2.68833 12.1305 2.26288 12.1244 1.82122C12.1261 1.5454 12.1901 1.27346 12.3118 1.02545C12.4336 0.777428 12.6099 0.559658 12.8278 0.388186C13.1536 0.141088 13.5512 0.00493438 13.9613 0C17.1053 0 26.5383 0.00697313 26.5383 0.00697313H53.8983C54.6001 0.0169184 55.28 0.250855 55.8372 0.674095C56.306 1.02967 56.658 1.51499 56.8488 2.06878C56.9688 2.42823 57.0286 2.80475 57.0258 3.18336C57.0114 3.82941 56.7911 4.45435 56.3963 4.96856C55.9729 5.52277 55.3752 5.92113 54.6977 6.10057C54.0618 6.263 53.3909 6.22687 52.7765 5.99713C52.0854 5.73519 51.5114 5.23734 51.1576 4.59315C50.9738 4.30081 50.7178 4.05984 50.4137 3.89306C50.1097 3.72628 49.7678 3.63922 49.4203 3.64012H27.1771C26.7359 3.64266 26.3069 3.78431 25.9522 4.04458C25.7826 4.16863 25.6338 4.31847 25.5114 4.48855C25.3635 4.69449 25.2543 4.92521 25.189 5.16962C25.1269 5.41485 24.9182 6.20285 24.9182 6.20285L17.6996 33.7908C17.6996 33.7908 17.6246 34.0942 17.4652 34.7113C17.4005 34.9775 17.3749 35.2515 17.389 35.5249C17.4227 35.8348 17.5279 36.1329 17.6964 36.3961C17.8649 36.6593 18.0922 36.8806 18.3607 37.0428C18.6922 37.2453 19.0757 37.3487 19.465 37.3403H22.9336C23.2221 37.3362 23.5074 37.4004 23.7659 37.5274C24.0492 37.6659 24.2917 37.8746 24.4699 38.1331C24.6482 38.3917 24.7561 38.6914 24.7834 39.0034C24.8106 39.3031 24.7618 39.6047 24.6416 39.8809C24.4978 40.207 24.2626 40.4854 23.964 40.6829C23.5725 40.9293 23.3345 40.999 23.0509 40.999H7.20105C6.7117 40.999 6.24239 40.8063 5.89637 40.4632C5.55035 40.1201 5.35595 39.6548 5.35595 39.1697C5.35595 38.6845 5.55035 38.2192 5.89637 37.8761C6.24239 37.533 6.7117 37.3403 7.20105 37.3403H10.3907C10.8315 37.3387 11.2604 37.198 11.6153 36.9387C11.9702 36.6795 12.2327 36.3149 12.3648 35.898L12.9415 33.6897C13.0131 33.3773 13.0107 33.0527 12.9345 32.7413C12.8476 32.432 12.6963 32.1441 12.4902 31.8964C12.2978 31.6775 12.0604 31.502 11.7939 31.3817C11.5274 31.2614 11.238 31.1991 10.9452 31.199H4.04891C3.39363 31.199 2.98569 30.8957 2.67739 30.5889C2.44096 30.3268 2.28615 30.0024 2.2317 29.655C2.17724 29.3075 2.22547 28.9518 2.37054 28.631C2.51561 28.3101 2.75132 28.0378 3.04917 27.8469C3.34702 27.6561 3.69426 27.5548 4.04891 27.5554H12.9966C13.4175 27.5411 13.825 27.405 14.1688 27.1638C14.5417 26.8996 14.8128 26.5177 14.9378 26.0806C15.0785 25.5541 15.1793 25.1275 15.2813 24.744C15.3972 24.3272 15.3721 23.8842 15.2098 23.483C15.1086 23.2436 14.9675 23.0228 14.7925 22.8298C14.5958 22.6289 14.3622 22.4672 14.1044 22.3533C13.8507 22.2426 13.5761 22.1871 13.299 22.1906H11.0577C10.6319 22.1978 10.2178 22.0517 9.89251 21.7791C9.38258 21.3967 9.22081 20.7715 9.22081 20.3844C9.22078 19.9761 9.35631 19.5791 9.60648 19.2547C9.95815 18.8584 10.3837 18.5504 11.0577 18.5504C12.5816 18.5504 13.7093 18.5423 15.3129 18.5504C15.7036 18.5512 16.086 18.4394 16.4137 18.2285C16.8472 17.945 17.1621 17.5151 17.2999 17.0186C17.4312 16.5026 17.5965 15.9156 17.7289 15.3985C17.8041 15.103 17.8116 14.7946 17.7507 14.4959C17.6899 14.1972 17.5622 13.9159 17.3772 13.6725C17.1776 13.4171 16.9212 13.2109 16.628 13.0698C16.3348 12.9286 16.0128 12.8565 15.6869 12.859C14.3974 12.859 3.05368 12.8671 1.90606 12.859C1.46558 12.8721 1.03473 12.7296 0.690447 12.4568C0.477 12.2843 0.304485 12.0673 0.185156 11.8213C0.0658263 11.5752 0.00261112 11.3061 0 11.0331C0.00760006 10.5723 0.185262 10.1303 0.499373 9.79067C0.670135 9.6064 0.877835 9.45952 1.10917 9.35945C1.3405 9.25939 1.59037 9.20833 1.84276 9.20955H17.7066C18.1421 9.22405 18.5704 9.09757 18.9269 8.84926C19.315 8.58484 19.5991 8.19563 19.7311 7.74746C19.8366 7.34184 20.0394 6.58522 20.1543 6.14241C20.269 5.6873 20.2153 5.20649 20.0031 4.78725C19.8905 4.57137 19.7432 4.37509 19.567 4.20613Z" fill="white"/>
<path d="M73.7055 6.16951L73.8676 5.20254C73.9487 4.61161 73.5163 4.12813 72.9217 4.12813H62.1382C61.7057 4.12813 61.2733 4.50417 61.2193 4.93394L58.7599 21.8559C58.6788 22.4468 59.0842 22.9303 59.6788 22.9303H60.976C61.4085 22.9303 61.8409 22.5542 61.8949 22.1245L62.7868 16.0272C62.8409 15.5974 63.2733 15.2214 63.7327 15.2214H70.6785C71.138 15.2214 71.5434 14.8454 71.6244 14.4156L71.7596 13.4755C71.8406 12.8846 71.4082 12.4011 70.8136 12.4011H64.4084C63.8138 12.4011 63.3814 11.9176 63.4625 11.3267L63.976 7.78112C64.057 7.35136 64.4624 6.97531 64.9219 6.97531H72.7866C73.219 6.97531 73.6514 6.62613 73.7055 6.16951Z" fill="white"/>
<path d="M83.4673 22.9303H84.8186C85.251 22.9303 85.6834 22.5542 85.7375 22.1245L86.9537 13.5561C87.3861 10.4134 85.5753 8.53321 81.8727 8.53321C79.4944 8.53321 78.0079 9.01669 76.2242 9.90308C75.7918 10.1448 75.5756 10.682 75.7918 11.1118L76.008 11.649C76.1972 12.0788 76.7918 12.2399 77.1971 12.025C78.4944 11.3535 79.7106 11.0312 80.8457 11.0312C83.1159 11.0312 84.1159 12.1056 83.8456 13.9053L83.8186 14.1201C83.8186 14.2276 83.6835 14.335 83.5754 14.335H79.4403C75.981 14.3619 73.7648 16.0272 73.3864 18.6327C73.0351 21.1575 74.6837 23.0646 77.7917 23.0646C79.5214 23.0646 81.0079 22.6348 82.143 21.7753C82.3592 21.641 82.7376 21.7753 82.7105 22.0439C82.6295 22.5274 82.9808 22.9303 83.4673 22.9303ZM78.7917 20.6203C77.062 20.6203 76.1431 19.7876 76.3323 18.4984C76.5215 17.1285 77.5485 16.5913 79.5755 16.5913H82.7916C83.17 16.5913 83.4132 16.8867 83.3592 17.2359L83.2781 17.8537L83.2511 18.0149C82.7916 19.519 80.9538 20.6203 78.7917 20.6203Z" fill="white"/>
<path d="M96.168 8.50635C93.4113 8.50635 90.7087 9.74192 90.2762 12.6428C89.5195 17.8 97.3031 16.1615 96.8977 19.0893C96.7355 20.1637 95.6275 20.6203 94.3032 20.6203C92.9789 20.6203 91.4113 20.1368 90.3033 19.3042C90.006 19.0893 89.5465 19.1967 89.3303 19.4922L88.7357 20.4323C88.4925 20.8083 88.4655 21.2112 88.8438 21.5067C90.1141 22.5005 91.9789 23.0377 93.8167 23.0377C96.7085 23.0377 99.5193 21.7216 99.9517 18.7938C100.735 13.6098 92.8708 15.0334 93.2491 12.4011C93.4113 11.3804 94.3572 10.9775 95.5734 10.9775C96.6274 10.9775 97.8436 11.2998 98.8977 11.8639C99.1949 12.025 99.7084 11.9445 99.8976 11.649L100.6 10.5746C100.844 10.1985 100.817 9.79564 100.438 9.58076C99.276 8.88239 97.7085 8.50635 96.168 8.50635Z" fill="white"/>
<path d="M109.836 19.8414C109.16 20.1368 108.593 20.2711 108.052 20.2711C107.079 20.2711 106.593 19.8145 106.809 18.3372L107.674 12.2936C107.728 11.8639 108.16 11.4878 108.62 11.4878H111.214C111.674 11.4878 112.079 11.1118 112.16 10.682L112.214 10.2523C112.295 9.66134 111.863 9.17785 111.268 9.17785H109.214C108.62 9.17785 108.187 8.69437 108.295 8.10344L108.539 6.33067C108.62 5.73974 108.187 5.25626 107.593 5.25626H106.431C105.998 5.25626 105.566 5.6323 105.485 6.06207L105.16 8.37205C105.106 8.80181 104.674 9.17785 104.214 9.17785H103.836C103.404 9.17785 102.971 9.5539 102.89 9.98366L102.836 10.494C102.755 11.0312 103.133 11.4878 103.701 11.4878C104.241 11.4878 104.647 11.9445 104.566 12.4817L103.647 18.9013C103.214 21.829 104.89 23.0646 107.052 23.0646C108.052 23.0646 109.079 22.796 110.106 22.3394C110.458 22.1782 110.701 21.7216 110.62 21.3455L110.404 20.1368C110.349 19.8951 110.079 19.7608 109.836 19.8414Z" fill="white"/>
<path d="M122.653 3.99383C118.545 3.99383 115.464 6.00835 114.977 9.23157C114.031 15.9198 124.571 13.5829 123.977 17.7731C123.761 19.2236 122.301 20.0562 120.085 20.0562C118.436 20.0562 116.572 19.3847 115.031 18.176C114.572 17.8268 113.734 17.8537 113.437 18.3372L112.707 19.4385C112.464 19.8145 112.518 20.2711 112.842 20.5666C114.545 22.0708 116.923 23.0377 119.599 23.0377C123.761 23.0377 127.058 20.9695 127.544 17.612C128.544 10.8432 118.004 13.0457 118.599 8.93611C118.788 7.67368 120.112 6.97531 121.977 6.97531C123.193 6.97531 124.788 7.35136 126.409 8.21088C126.842 8.45263 127.517 8.31833 127.761 7.88856L128.517 6.67985C128.815 6.22323 128.679 5.71288 128.22 5.44428C126.707 4.55789 124.734 3.99383 122.653 3.99383Z" fill="white"/>
<path d="M138.303 8.53321C134.033 8.56007 130.6 11.4878 129.979 15.8123C129.357 20.11 131.843 23.0377 136.276 23.0377C138.465 23.0377 140.411 22.3662 141.951 21.1575C142.357 20.8352 142.384 20.3517 142.032 19.9488L141.681 19.519C141.438 19.1967 140.843 19.1699 140.519 19.3847C139.438 20.1368 138.195 20.5397 136.897 20.5397C134.951 20.5397 133.6 19.5459 133.114 17.9074C132.925 17.2628 133.303 16.9673 133.979 16.9673H143.059C143.492 16.9673 143.897 16.645 143.951 16.2152C144.762 11.4878 143.113 8.53321 138.303 8.53321ZM133.681 13.5829C134.546 11.9713 136.114 11.0043 137.978 11.0043C140.032 11.0043 141.33 12.0788 141.465 13.8784C141.492 14.4425 141.141 14.7111 140.573 14.7111H134.411C133.708 14.7111 133.33 14.2276 133.681 13.5829Z" fill="white"/>
<path d="M156.678 8.53321C154.678 8.53321 153.002 9.12413 151.732 10.4403C151.543 10.6283 151.11 10.4671 151.137 10.1985L151.218 9.71506C151.3 9.12413 150.867 8.64065 150.273 8.64065H149.083C148.624 8.64065 148.218 9.01669 148.137 9.44645L146.354 21.8559C146.273 22.4468 146.678 22.9303 147.273 22.9303H148.489C148.921 22.9303 149.354 22.5542 149.408 22.1245L150.408 15.3826C150.408 15.3557 150.435 15.1677 150.435 15.1677C151.029 13.0189 152.732 11.461 155.056 11.4341C157.218 11.4341 158.326 12.7503 158.002 14.8991L157.002 21.8559C156.921 22.4468 157.326 22.9303 157.921 22.9303H159.137C159.57 22.9303 160.002 22.5542 160.056 22.1245L161.245 14.0396C161.732 10.6283 160.029 8.53321 156.678 8.53321Z" fill="white"/>
<path d="M179.625 3H178.409C177.977 3 177.544 3.37604 177.49 3.80581L176.544 10.1985C176.517 10.4671 176.085 10.5209 175.923 10.306C175.031 9.15099 173.599 8.50635 171.68 8.50635C167.626 8.50635 164.437 11.4341 163.815 15.7318C163.166 20.0831 165.491 23.0646 169.626 23.0646C171.518 23.0646 173.139 22.4468 174.328 21.2918C174.545 21.1038 174.95 21.265 174.923 21.5067L174.869 21.8559C174.788 22.4468 175.193 22.9303 175.788 22.9303H177.004C177.436 22.9303 177.869 22.5542 177.923 22.1245L180.544 4.07441C180.625 3.48348 180.22 3 179.625 3ZM170.653 20.486C168.031 20.486 166.518 18.5521 166.896 15.8392C167.328 13.0994 169.41 11.1387 172.004 11.1387C174.599 11.1387 176.139 13.0726 175.734 15.8392C175.328 18.5521 173.247 20.486 170.653 20.486Z" fill="white"/>
<path d="M56.5547 35.072C56.5547 35.2188 56.6138 35.3364 56.7419 35.4441C57.3528 35.9435 58.1115 36.1981 59.0279 36.1981C60.7424 36.1981 61.5109 35.2972 61.5109 34.2298C61.5109 33.368 61.0084 32.8588 60.3876 32.614C60.0822 32.4867 59.6782 32.3496 59.1855 32.2222C58.1903 31.9774 57.7075 31.8208 57.6583 31.243C57.6583 30.6946 58.1706 30.3224 58.9688 30.3224C59.5304 30.3224 60.1019 30.4889 60.5453 30.8415C60.634 30.9002 60.7227 30.9296 60.8212 30.9296C61.0675 30.9296 61.2843 30.724 61.2843 30.4596C61.2843 30.2931 61.2153 30.1756 61.0774 30.0874C60.4566 29.6565 59.8359 29.4509 59.0476 29.4509C57.6189 29.4509 56.6434 30.2343 56.6434 31.3115C56.6434 32.1341 57.1459 32.614 57.7371 32.8588C58.0425 32.9763 58.4367 33.0938 58.9195 33.2211C59.9541 33.4953 60.4468 33.6422 60.5059 34.3179C60.5059 34.8663 60.0428 35.3266 59.0673 35.3266C58.4268 35.3266 57.8455 35.1209 57.3233 34.6998C57.2346 34.6313 57.136 34.6019 57.0276 34.6019C56.7813 34.6019 56.5547 34.8076 56.5547 35.072Z" fill="white"/>
<path d="M64.7216 31.2332C63.3618 31.2038 62.3075 32.3691 62.3371 33.7108C62.3371 35.1797 63.3815 36.1981 64.8004 36.1981C65.4409 36.1981 66.0025 36.0316 66.4656 35.6889C66.574 35.6203 66.6233 35.5224 66.6233 35.3951C66.6233 35.1993 66.4656 35.0426 66.2686 35.0426C66.1799 35.0426 66.1109 35.0622 66.0715 35.0915C65.7168 35.3462 65.3226 35.4735 64.8891 35.4735C63.9727 35.4735 63.3421 34.8369 63.2731 34.0045H66.5149C66.8401 34.0045 67.0371 33.8479 67.0371 33.5835C67.0371 32.33 66.1109 31.2332 64.7216 31.2332ZM63.2633 33.368C63.3224 32.6923 63.7954 31.9578 64.7216 31.9578C65.6872 31.9578 66.1503 32.6923 66.17 33.368H63.2633Z" fill="white"/>
<path d="M72.2453 32.7609C72.2453 31.7522 71.7133 31.2332 70.7181 31.2332C70.048 31.2332 69.3977 31.5857 69.0331 32.0068V31.7424C69.0331 31.4976 68.8262 31.3017 68.5799 31.3017C68.3434 31.3017 68.1463 31.4976 68.1463 31.7424V35.6889C68.1463 35.9337 68.3434 36.1296 68.5897 36.1296C68.8262 36.1296 69.0331 35.9337 69.0331 35.6889V32.7021C69.309 32.3202 69.8214 32.0166 70.3436 32.0166C71.0038 32.0166 71.3585 32.3104 71.3585 33.0546V35.6889C71.3585 35.9337 71.5556 36.1296 71.7921 36.1296C72.0384 36.1296 72.2453 35.9337 72.2453 35.6889V32.7609Z" fill="white"/>
<path d="M77.9267 29.9405C77.9267 29.6957 77.7297 29.4999 77.4833 29.4999C77.2468 29.4999 77.0399 29.6957 77.0399 29.9405V32.0362C76.6556 31.5172 76.1039 31.2332 75.4831 31.2332C74.2416 31.2332 73.3548 32.2223 73.3548 33.7205C73.3548 35.258 74.2416 36.1981 75.4831 36.1981C76.1039 36.1981 76.6754 35.9043 77.0399 35.4049V35.6889C77.0399 35.9337 77.2468 36.1296 77.4833 36.1296C77.7297 36.1296 77.9267 35.9337 77.9267 35.6889V29.9405ZM77.0399 34.7292C76.7936 35.1209 76.2418 35.4147 75.7196 35.4147C74.8426 35.4147 74.281 34.7096 74.281 33.7205C74.281 32.7119 74.8426 32.0166 75.7196 32.0166C76.2418 32.0166 76.7936 32.3202 77.0399 32.7119V34.7292Z" fill="white"/>
<path d="M82.0744 37.2068C81.8478 37.2068 81.6605 37.3733 81.6605 37.5985C81.6605 37.8041 81.8182 37.9608 82.0251 37.9902C82.0744 38 82.1335 38 82.2025 38C82.9218 37.9902 83.4342 37.6964 83.7199 36.9815L85.8285 31.9187C85.8581 31.8403 85.8679 31.7816 85.8679 31.7424C85.8679 31.4976 85.6709 31.3017 85.4245 31.3017C85.2373 31.3017 85.0797 31.4192 85.0107 31.5759L83.6214 35.0622L82.232 31.5759C82.1631 31.4192 82.0054 31.3017 81.8182 31.3017C81.5719 31.3017 81.3846 31.4976 81.3846 31.7424C81.3846 31.811 81.3945 31.8697 81.4044 31.9089L83.1484 36.1296L82.8725 36.7563C82.7247 37.0991 82.5276 37.2166 82.1828 37.2166L82.0744 37.2068Z" fill="white"/>
<path d="M86.4894 33.7108C86.4894 35.0915 87.4452 36.1981 88.8936 36.1981C90.3421 36.1981 91.2978 35.0915 91.2978 33.7108C91.2978 32.3398 90.3421 31.2332 88.8936 31.2332C87.4452 31.2332 86.4894 32.3398 86.4894 33.7108ZM90.3716 33.7108C90.3716 34.6313 89.8297 35.4147 88.8936 35.4147C87.9772 35.4147 87.4156 34.6313 87.4156 33.7108C87.4156 32.8098 87.9772 32.0166 88.8936 32.0166C89.8297 32.0166 90.3716 32.8 90.3716 33.7108Z" fill="white"/>
<path d="M96.5227 31.7424C96.5227 31.4976 96.3158 31.3017 96.0695 31.3017C95.833 31.3017 95.6359 31.4976 95.6359 31.7424V34.7488C95.3502 35.1307 94.8378 35.4147 94.3156 35.4147C93.6554 35.4147 93.3105 35.1405 93.3105 34.3963V31.7424C93.3105 31.4976 93.1036 31.3017 92.8671 31.3017C92.6208 31.3017 92.4237 31.4976 92.4237 31.7424V34.69C92.4237 35.6987 92.9263 36.1981 93.9412 36.1981C94.621 36.1981 95.2418 35.8652 95.6359 35.4343V35.6889C95.6359 35.9337 95.833 36.1296 96.0793 36.1296C96.3158 36.1296 96.5227 35.9337 96.5227 35.6889V31.7424Z" fill="white"/>
<path d="M100.431 31.6934C100.431 31.4584 100.302 31.2724 100.056 31.2724C100.007 31.2724 99.9181 31.2919 99.7999 31.3213C99.455 31.429 99.0806 31.7228 98.8146 32.0754V31.7424C98.8146 31.4976 98.6076 31.3017 98.3613 31.3017C98.1248 31.3017 97.9278 31.4976 97.9278 31.7424V35.6889C97.9278 35.9337 98.1248 36.1296 98.3712 36.1296C98.6076 36.1296 98.8146 35.9337 98.8146 35.6889V32.7902C98.9131 32.6238 99.0806 32.4671 99.3072 32.3398C99.5437 32.2125 99.7605 32.1341 99.9674 32.1145C100.273 32.0754 100.431 31.8991 100.431 31.6934Z" fill="white"/>
<path d="M110.468 32.6629C110.468 31.7228 109.995 31.2332 109.118 31.2332C108.458 31.2332 107.818 31.6347 107.512 32.1145C107.355 31.5759 106.921 31.2332 106.221 31.2332C105.896 31.2332 105.591 31.3213 105.295 31.4878C105.009 31.6543 104.802 31.8305 104.684 32.0166V31.7424C104.684 31.4976 104.477 31.3017 104.231 31.3017C103.995 31.3017 103.797 31.4976 103.797 31.7424V35.6889C103.797 35.9337 103.995 36.1296 104.241 36.1296C104.477 36.1296 104.684 35.9337 104.684 35.6889V32.7021C104.95 32.3202 105.413 32.0166 105.847 32.0166C106.409 32.0166 106.684 32.3202 106.684 32.9273V35.6889C106.684 35.9337 106.891 36.1296 107.128 36.1296C107.374 36.1296 107.571 35.9337 107.571 35.6889V32.6923C107.818 32.33 108.291 32.0166 108.754 32.0166C109.315 32.0166 109.581 32.3496 109.581 32.9273V35.6889C109.581 35.9337 109.778 36.1296 110.015 36.1296C110.261 36.1296 110.468 35.9337 110.468 35.6889V32.6629Z" fill="white"/>
<path d="M111.585 33.7108C111.585 35.0915 112.54 36.1981 113.989 36.1981C115.437 36.1981 116.393 35.0915 116.393 33.7108C116.393 32.3398 115.437 31.2332 113.989 31.2332C112.54 31.2332 111.585 32.3398 111.585 33.7108ZM115.467 33.7108C115.467 34.6313 114.925 35.4147 113.989 35.4147C113.073 35.4147 112.511 34.6313 112.511 33.7108C112.511 32.8098 113.073 32.0166 113.989 32.0166C114.925 32.0166 115.467 32.8 115.467 33.7108Z" fill="white"/>
<path d="M121.618 32.7609C121.618 31.7522 121.086 31.2332 120.091 31.2332C119.421 31.2332 118.77 31.5857 118.406 32.0068V31.7424C118.406 31.4976 118.199 31.3017 117.953 31.3017C117.716 31.3017 117.519 31.4976 117.519 31.7424V35.6889C117.519 35.9337 117.716 36.1296 117.962 36.1296C118.199 36.1296 118.406 35.9337 118.406 35.6889V32.7021C118.682 32.3202 119.194 32.0166 119.716 32.0166C120.377 32.0166 120.731 32.3104 120.731 33.0546V35.6889C120.731 35.9337 120.928 36.1296 121.165 36.1296C121.411 36.1296 121.618 35.9337 121.618 35.6889V32.7609Z" fill="white"/>
<path d="M125.112 31.2332C123.752 31.2038 122.698 32.3691 122.727 33.7108C122.727 35.1797 123.772 36.1981 125.191 36.1981C125.831 36.1981 126.393 36.0316 126.856 35.6889C126.964 35.6203 127.014 35.5224 127.014 35.3951C127.014 35.1993 126.856 35.0426 126.659 35.0426C126.57 35.0426 126.501 35.0622 126.462 35.0915C126.107 35.3462 125.713 35.4735 125.279 35.4735C124.363 35.4735 123.733 34.8369 123.664 34.0045H126.905C127.23 34.0045 127.428 33.8479 127.428 33.5835C127.428 32.33 126.501 31.2332 125.112 31.2332ZM123.654 33.368C123.713 32.6923 124.186 31.9578 125.112 31.9578C126.078 31.9578 126.541 32.6923 126.56 33.368H123.654Z" fill="white"/>
<path d="M128.724 37.2068C128.497 37.2068 128.31 37.3733 128.31 37.5985C128.31 37.8041 128.468 37.9608 128.675 37.9902C128.724 38 128.783 38 128.852 38C129.571 37.9902 130.084 37.6964 130.369 36.9815L132.478 31.9187C132.508 31.8403 132.517 31.7816 132.517 31.7424C132.517 31.4976 132.32 31.3017 132.074 31.3017C131.887 31.3017 131.729 31.4192 131.66 31.5759L130.271 35.0622L128.882 31.5759C128.813 31.4192 128.655 31.3017 128.468 31.3017C128.221 31.3017 128.034 31.4976 128.034 31.7424C128.034 31.811 128.044 31.8697 128.054 31.9089L129.798 36.1296L129.522 36.7563C129.374 37.0991 129.177 37.2166 128.832 37.2166L128.724 37.2068Z" fill="white"/>
<path d="M137.078 31.0373C137.078 30.4791 137.344 30.1756 137.788 30.1756C137.877 30.1756 137.955 30.2049 138.034 30.2049C138.261 30.2049 138.389 30.058 138.389 29.8524C138.389 29.6957 138.271 29.5586 138.113 29.5097C137.965 29.4705 137.808 29.4509 137.64 29.4509C136.773 29.4509 136.192 30.0483 136.192 31.0373V31.3507H135.748C135.541 31.3507 135.354 31.527 135.354 31.7326C135.354 31.9383 135.541 32.1243 135.748 32.1243H136.192V35.6889C136.192 35.9337 136.399 36.1296 136.645 36.1296C136.881 36.1296 137.078 35.9337 137.078 35.6889V32.1243H137.709C137.916 32.1243 138.103 31.9383 138.103 31.7326C138.103 31.527 137.916 31.3507 137.709 31.3507H137.078V31.0373Z" fill="white"/>
<path d="M142.714 32.8882C142.714 31.7522 141.935 31.2332 140.802 31.2332C140.142 31.2332 139.56 31.429 139.068 31.8207C138.969 31.8893 138.92 31.9774 138.92 32.1047C138.92 32.3006 139.078 32.4671 139.275 32.4671C139.344 32.4671 139.423 32.4475 139.492 32.3985C139.846 32.1243 140.24 31.9872 140.664 31.9872C141.364 31.9872 141.827 32.3496 141.827 32.9273V33.7108C141.472 33.2897 140.93 33.084 140.27 33.084C139.423 33.084 138.615 33.603 138.615 34.6313C138.615 35.6301 139.442 36.1981 140.27 36.1981C140.91 36.1981 141.462 35.9729 141.827 35.5518V35.6889C141.827 35.9337 142.034 36.1296 142.27 36.1296C142.507 36.1296 142.714 35.9337 142.714 35.6889V32.8882ZM141.827 35.0426C141.561 35.3951 141.107 35.5812 140.605 35.5812C139.964 35.5812 139.511 35.1993 139.511 34.6411C139.511 34.0829 139.964 33.701 140.605 33.701C141.107 33.701 141.561 33.887 141.827 34.2396V35.0426Z" fill="white"/>
<path d="M143.8 35.3559C143.8 35.4833 143.859 35.591 143.967 35.6693C144.44 36.0219 145.021 36.1981 145.701 36.1981C146.913 36.1981 147.623 35.6008 147.623 34.7488C147.623 34.0829 147.219 33.701 146.736 33.5149C146.499 33.4268 146.194 33.3386 145.81 33.2505C145.071 33.084 144.706 32.9273 144.706 32.565C144.706 32.1831 145.081 31.9481 145.682 31.9481C146.135 31.9481 146.529 32.0656 146.854 32.3104C146.913 32.3594 146.982 32.3789 147.051 32.3789C147.248 32.3789 147.416 32.2125 147.416 32.0166C147.416 31.8991 147.367 31.8012 147.258 31.7228C146.815 31.3997 146.283 31.2332 145.672 31.2332C144.539 31.2332 143.859 31.8697 143.859 32.6335C143.859 33.2603 144.243 33.6128 144.706 33.7989C144.943 33.887 145.248 33.9654 145.613 34.0535C146.362 34.22 146.766 34.3963 146.766 34.8173C146.766 35.2384 146.401 35.493 145.741 35.493C145.258 35.493 144.785 35.3168 144.401 35.0426C144.332 34.9936 144.263 34.974 144.184 34.974C143.977 34.974 143.8 35.1307 143.8 35.3559Z" fill="white"/>
<path d="M150.961 35.7281C150.961 35.5028 150.813 35.3559 150.586 35.3559C150.537 35.3559 150.399 35.4147 150.271 35.4147C149.966 35.4147 149.808 35.1797 149.808 34.8369V32.1243H150.429C150.655 32.1243 150.823 31.9383 150.823 31.7326C150.823 31.527 150.636 31.3507 150.429 31.3507H149.808V30.4498C149.808 30.2049 149.601 30.0091 149.365 30.0091C149.118 30.0091 148.921 30.2049 148.921 30.4498V31.3507H148.468C148.261 31.3507 148.074 31.527 148.074 31.7326C148.074 31.9383 148.261 32.1243 148.468 32.1243H148.921V35.0328C148.921 35.777 149.305 36.1981 150.054 36.1981C150.311 36.1981 150.537 36.1492 150.734 36.061C150.882 36.0121 150.961 35.8945 150.961 35.7281Z" fill="white"/>
<path d="M152.209 34.9642C151.884 34.9642 151.598 35.2286 151.598 35.5714C151.598 35.9141 151.884 36.1883 152.209 36.1883C152.554 36.1883 152.83 35.8946 152.83 35.5714C152.83 35.2482 152.554 34.9642 152.209 34.9642Z" fill="white"/>
</svg>
