<svg width="92" height="55" viewBox="0 0 92 55" fill="none" xmlns="http://www.w3.org/2000/svg">
<path d="M14.0142 23.0044C14.498 22.4385 15.1459 21.9957 15.9085 21.7497L36.3531 15.3039L77.9312 2.19078C80.0962 1.51012 82.4088 2.70743 83.0895 4.88064L90.38 27.9905C91.0606 30.1555 89.8633 32.4681 87.6901 33.1488L25.6675 52.7077C24.8392 52.9701 23.9781 52.9537 23.2073 52.7077" stroke="#224492" stroke-width="2.5" stroke-linecap="round" stroke-linejoin="round"/>
<path d="M51.8281 38.9386C58.178 38.9386 63.3256 33.791 63.3256 27.4411C63.3256 21.0912 58.178 15.9436 51.8281 15.9436C45.4782 15.9436 40.3306 21.0912 40.3306 27.4411C40.3306 33.791 45.4782 38.9386 51.8281 38.9386Z" stroke="#62B4E3" stroke-width="2.5" stroke-miterlimit="10"/>
<path d="M57.5111 21.9465L56.568 22.2417C55.7726 19.9291 53.6814 19.1418 50.6717 20.0931L45.8496 21.6103C45.538 21.7087 45.3166 22.0777 45.374 22.3975L45.8988 25.604L44.8655 25.9321C44.2915 26.1125 43.7584 26.8342 43.865 27.4902C43.9716 28.1627 44.6687 28.4415 45.2427 28.2611L46.276 27.9413L47.457 35.158C47.5308 35.6008 47.9326 35.855 48.359 35.7238L49.2857 35.4286C49.5974 35.3302 49.8188 34.9612 49.7614 34.6413L49.2693 31.5824C49.2119 31.2626 49.4334 30.8936 49.7614 30.7869L52.279 29.9915C55.1821 29.073 56.8141 27.1376 56.9043 24.6117L57.8884 24.3001C58.4624 24.1197 58.9545 23.4226 58.8397 22.7584C58.7249 22.0941 58.077 21.7579 57.5111 21.9383V21.9465ZM47.9982 23.8327C47.9572 23.5046 48.1622 23.1438 48.4903 23.0372L50.9259 22.2663C52.5579 21.7497 53.7142 21.9629 54.2882 22.9552L48.1622 24.8824L47.99 23.8245L47.9982 23.8327ZM51.8526 27.8757L49.6056 28.5809C49.1791 28.7121 48.7609 28.4661 48.6871 28.0233L48.5559 27.2278L54.6327 25.3252C54.3784 26.5307 53.4107 27.3836 51.8526 27.8757Z" fill="#224492"/>
<path d="M4.56689 30.8278L24.9377 24.5295" stroke="#F16730" stroke-width="2.5" stroke-miterlimit="10" stroke-linecap="round"/>
<path d="M11.8738 34.1738L32.2446 27.8838" stroke="#F16730" stroke-width="2.5" stroke-miterlimit="10" stroke-linecap="round"/>
<path d="M2 42.8337L22.379 36.5437" stroke="#F16730" stroke-width="2.5" stroke-miterlimit="10" stroke-linecap="round"/>
<path d="M9.30688 46.1879L29.6859 39.8896" stroke="#F16730" stroke-width="2.5" stroke-miterlimit="10" stroke-linecap="round"/>
<path d="M5.16553 53.0765L25.5363 46.7783" stroke="#F16730" stroke-width="2.5" stroke-miterlimit="10" stroke-linecap="round"/>
</svg>
