<svg width="52" height="92" viewBox="0 0 52 92" fill="none" xmlns="http://www.w3.org/2000/svg">
<path d="M50.5181 33.5813V86.5174C50.5181 88.7562 48.7057 90.5768 46.4587 90.5768H5.56134C3.32253 90.5768 1.50195 88.7644 1.50195 86.5174V6.0594C1.50195 3.82059 3.31433 2 5.56134 2H46.4587C48.6975 2 50.5181 3.81239 50.5181 6.0594V12.5872" stroke="#224492" stroke-width="2.5" stroke-miterlimit="10" stroke-linecap="round"/>
<path d="M17.3376 8.79858H19.2484H34.6741" stroke="#62B4E3" stroke-width="2.5" stroke-miterlimit="10" stroke-linecap="round"/>
<path d="M50.5181 19.8613V25.8397" stroke="#62B4E3" stroke-width="2.5" stroke-miterlimit="10" stroke-linecap="round"/>
<path d="M26.0059 85.5743C27.496 85.5743 28.704 84.3664 28.704 82.8763C28.704 81.3862 27.496 80.1782 26.0059 80.1782C24.5158 80.1782 23.3079 81.3862 23.3079 82.8763C23.3079 84.3664 24.5158 85.5743 26.0059 85.5743Z" stroke="#62B4E3" stroke-width="2.5" stroke-miterlimit="10"/>
<path d="M26.0059 57.9296C32.4283 57.9296 37.6347 52.7232 37.6347 46.3008C37.6347 39.8785 32.4283 34.6721 26.0059 34.6721C19.5836 34.6721 14.3772 39.8785 14.3772 46.3008C14.3772 52.7232 19.5836 57.9296 26.0059 57.9296Z" stroke="#62B4E3" stroke-width="2.5" stroke-miterlimit="10"/>
<path d="M32.911 42.7251H31.9105C31.8449 40.2485 30.0653 38.8625 26.8752 38.8625H21.7579C21.4299 38.8625 21.1019 39.1496 21.0609 39.4776L20.5934 42.7251H19.5027C18.8959 42.7251 18.166 43.2582 18.0676 43.9224C17.9692 44.6031 18.5514 45.0869 19.1583 45.0869H20.249L19.1911 52.4185C19.1255 52.8695 19.4371 53.2385 19.8882 53.2385H20.8722C21.2003 53.2385 21.5283 52.9515 21.5693 52.6235L22.0204 49.5236C22.0614 49.1955 22.3894 48.9085 22.742 48.9085H25.4155C28.4908 48.9085 30.6558 47.5308 31.5169 45.128H32.5584C33.1652 45.128 33.8541 44.6031 33.9443 43.9306C34.0345 43.2582 33.5179 42.7333 32.911 42.7333V42.7251ZM23.1603 41.6508C23.2259 41.3228 23.5293 41.0358 23.8819 41.0358H26.4734C28.2038 41.0358 29.2535 41.5852 29.5077 42.7251H23.0127L23.1685 41.6508H23.1603ZM25.6451 46.7271H23.2587C22.8076 46.7271 22.4796 46.3581 22.537 45.907L22.6518 45.0951L29.0976 45.1116C28.4826 46.1941 27.2935 46.7271 25.6369 46.7271H25.6451Z" fill="#224492"/>
</svg>
