<svg width="81" height="92" viewBox="0 0 81 92" fill="none" xmlns="http://www.w3.org/2000/svg">
<path d="M21.4238 69.2382V39.7153" stroke="#224492" stroke-width="2.5" stroke-miterlimit="10" stroke-linecap="round"/>
<path d="M12.042 39.7153V69.2382" stroke="#224492" stroke-width="2.5" stroke-miterlimit="10" stroke-linecap="round"/>
<path d="M36.0703 39.7153V69.2382" stroke="#224492" stroke-width="2.5" stroke-miterlimit="10" stroke-linecap="round"/>
<path d="M45.4521 69.2382V39.7153" stroke="#224492" stroke-width="2.5" stroke-miterlimit="10" stroke-linecap="round"/>
<path d="M60.1069 39.7153V69.2382" stroke="#224492" stroke-width="2.5" stroke-miterlimit="10" stroke-linecap="round"/>
<path d="M69.4885 69.2382V39.7153" stroke="#224492" stroke-width="2.5" stroke-miterlimit="10" stroke-linecap="round"/>
<path d="M5.95703 78.6527V76.2007C5.96523 75.8235 6.26866 75.52 6.6459 75.52H74.8847C75.262 75.52 75.5654 75.8235 75.5654 76.2007V78.6527" stroke="#224492" stroke-width="2.5" stroke-miterlimit="10" stroke-linecap="round"/>
<path d="M54.0546 15.4082L78.698 29.489C78.9686 29.6448 79.1326 29.9318 79.1326 30.2352V32.4085C79.1326 32.8841 78.7472 33.2695 78.2715 33.2695H2.96364C2.48799 33.2695 2.10254 32.8841 2.10254 32.4085V30.2352C2.10254 29.9236 2.26655 29.6366 2.53718 29.489L27.1806 15.4082L27.73 15.0884" stroke="#224492" stroke-width="2.5" stroke-miterlimit="10"/>
<path d="M78.5997 90.5686H3.16056C2.72592 90.5686 2.37329 90.0519 2.37329 89.4123V84.8936C2.37329 84.2539 2.72592 83.7373 3.16056 83.7373H78.5997C79.0343 83.7373 79.387 84.2539 79.387 84.8936V89.4123C79.387 90.0519 79.0343 90.5686 78.5997 90.5686Z" stroke="#224492" stroke-width="2.5" stroke-miterlimit="10" stroke-linecap="round"/>
<path d="M53.8415 15.0803C53.8415 22.3052 47.9861 28.1605 40.7612 28.1605C33.9135 28.1605 28.3042 22.9038 27.7301 16.2038C27.6973 15.8347 27.6809 15.4575 27.6809 15.0803C27.6809 7.85538 33.5363 2 40.7612 2C47.9861 2 53.8415 7.85538 53.8415 15.0803V15.0803Z" stroke="#62B4E3" stroke-width="2.5" stroke-miterlimit="10"/>
<path d="M48.5273 11.062H47.4038C47.33 8.28193 45.329 6.71558 41.7453 6.71558H35.9965C35.6275 6.71558 35.2585 7.03542 35.2093 7.40445L34.6844 11.062H33.4543C32.7736 11.062 31.9453 11.6689 31.8387 12.4069C31.7321 13.1696 32.38 13.7109 33.0688 13.7109H34.299L33.1099 21.9527C33.0442 22.4611 33.3887 22.8793 33.8971 22.8793H35.0042C35.3733 22.8793 35.7423 22.5595 35.7915 22.1905L36.2999 18.7051C36.3492 18.3361 36.7182 18.0163 37.1118 18.0163H40.1133C43.574 18.0163 46.0097 16.4745 46.9692 13.7601H48.1419C48.8308 13.7601 49.6016 13.1696 49.7 12.4151C49.7985 11.6607 49.2162 11.0702 48.5355 11.0702L48.5273 11.062ZM37.5629 9.85648C37.6285 9.48745 37.9811 9.16762 38.3747 9.16762H41.286C43.2296 9.16762 44.4105 9.79088 44.6976 11.0702H37.3906L37.5629 9.86469V9.85648ZM40.3594 15.556H37.6777C37.1692 15.556 36.8002 15.1378 36.8658 14.6294L36.997 13.7191L44.2465 13.7355C43.5577 14.9574 42.2209 15.5478 40.3511 15.5478L40.3594 15.556Z" fill="#224492"/>
</svg>
