<svg width="67" height="92" viewBox="0 0 67 92" fill="none" xmlns="http://www.w3.org/2000/svg">
<path d="M11.4688 9.83838C9.90246 9.83838 8.63135 11.1095 8.63135 12.6759" stroke="#224492" stroke-width="2.5" stroke-miterlimit="10" stroke-linecap="round"/>
<path d="M33.7996 9.83838H62.2974C63.8637 9.83838 65.1348 11.1095 65.1348 12.6759V87.7295C65.1348 89.2959 63.8637 90.567 62.2974 90.567H11.4688C9.90246 90.567 8.63135 89.2959 8.63135 87.7295V32.7514" stroke="#224492" stroke-width="2.5" stroke-miterlimit="10" stroke-linecap="round"/>
<path d="M10.2059 20.2536L5.70367 16.8666C5.26082 16.5304 4.62936 16.6206 4.29313 17.0634L2.32494 19.6795C1.98871 20.1223 2.07891 20.7538 2.52175 21.09L11.1326 27.5687C11.5754 27.9049 12.2069 27.8147 12.5431 27.3718L13.9701 25.4775L15.1182 23.9521L25.1477 10.6258L29.0103 5.49212C29.3466 5.04928 29.2563 4.41782 28.8135 4.08158L26.3205 2.20359C25.8776 1.86736 25.2462 1.95759 24.9099 2.40043L11.6164 20.0567C11.2802 20.4996 10.6488 20.5898 10.2059 20.2536V20.2536Z" stroke="#F16730" stroke-width="2.5" stroke-miterlimit="10"/>
<path d="M50.6194 40.9195C55.4068 40.9195 59.2876 37.0386 59.2876 32.2513C59.2876 27.4639 55.4068 23.583 50.6194 23.583C45.8321 23.583 41.9512 27.4639 41.9512 32.2513C41.9512 37.0386 45.8321 40.9195 50.6194 40.9195Z" stroke="#62B4E3" stroke-width="2.5" stroke-miterlimit="10"/>
<path d="M55.7695 29.5943H55.0232C54.974 27.7491 53.6454 26.7158 51.2754 26.7158H47.462C47.216 26.7158 46.97 26.929 46.9454 27.1751L46.5928 29.5943H45.7809C45.3298 29.5943 44.7804 29.9961 44.7148 30.4882C44.641 30.9966 45.0756 31.3575 45.5266 31.3575H46.3385L45.5512 36.8192C45.502 37.1554 45.7317 37.4343 46.0679 37.4343H46.806C47.052 37.4343 47.298 37.221 47.3226 36.975L47.6589 34.6624C47.6917 34.4164 47.9377 34.2032 48.1919 34.2032H50.1847C52.4809 34.2032 54.0883 33.178 54.7279 31.3821H55.507C55.9581 31.3821 56.4747 30.9966 56.5403 30.4882C56.6059 29.9879 56.2205 29.5943 55.7695 29.5943ZM48.5035 28.7988C48.5527 28.5528 48.7824 28.3396 49.0366 28.3396H50.9638C52.2513 28.3396 53.0386 28.7496 53.2272 29.5943H48.3887L48.5035 28.7988ZM50.3569 32.5794H48.5856C48.2493 32.5794 48.0033 32.3006 48.0525 31.9643L48.1427 31.3657L52.9484 31.3821C52.4891 32.1858 51.6034 32.5876 50.3651 32.5876L50.3569 32.5794Z" fill="#224492"/>
<path d="M24.7295 20.5979H34.6279" stroke="#62B4E3" stroke-width="2.5" stroke-miterlimit="10" stroke-linecap="round"/>
<path d="M14.5522 32.2512H34.6278" stroke="#62B4E3" stroke-width="2.5" stroke-miterlimit="10" stroke-linecap="round"/>
<path d="M14.5522 43.9045H34.6278" stroke="#62B4E3" stroke-width="2.5" stroke-miterlimit="10" stroke-linecap="round"/>
<path d="M14.5522 55.5579H59.2876" stroke="#62B4E3" stroke-width="2.5" stroke-miterlimit="10" stroke-linecap="round"/>
<path d="M14.5522 67.2114H59.2876" stroke="#62B4E3" stroke-width="2.5" stroke-miterlimit="10" stroke-linecap="round"/>
<path d="M14.5522 78.8564H59.2876" stroke="#62B4E3" stroke-width="2.5" stroke-miterlimit="10" stroke-linecap="round"/>
</svg>
