<svg width="92" height="78" viewBox="0 0 92 78" fill="none" xmlns="http://www.w3.org/2000/svg">
<path d="M36.3129 15.8762C35.3452 14.7609 34.6563 13.375 34.3857 11.8086C33.5984 7.249 36.6573 2.91078 41.217 2.1235C45.7766 1.33623 50.1148 4.39511 50.9021 8.95475C51.1973 10.6687 50.9513 12.3417 50.2871 13.8178" stroke="#F16730" stroke-width="2.5" stroke-linecap="round" stroke-linejoin="round"/>
<path d="M47.2855 6.96183L46.572 7.08484C46.2194 5.33807 44.7843 4.56719 42.5208 4.96083L38.8879 5.59229C38.6583 5.63329 38.4533 5.87933 38.4697 6.11715L38.5353 8.47898L37.7562 8.6102C37.3297 8.684 36.8705 9.15965 36.8869 9.6353C36.9033 10.1273 37.3707 10.398 37.8054 10.3242L38.5845 10.1929L38.7321 15.5235C38.7403 15.8515 39.0109 16.0729 39.3307 16.0237L40.0278 15.9007C40.2574 15.8597 40.4624 15.6137 40.446 15.3759L40.3886 13.1206C40.3804 12.8828 40.5773 12.6368 40.8233 12.5958L42.7177 12.2677C44.9073 11.8905 46.2686 10.6522 46.5802 8.83161L47.3183 8.7086C47.753 8.6348 48.1712 8.17555 48.1548 7.6835C48.1384 7.19146 47.7038 6.88802 47.2691 6.96183H47.2855ZM40.2246 7.39647C40.2246 7.15865 40.4132 6.91261 40.6593 6.87161L42.4962 6.55179C43.7264 6.33857 44.5382 6.601 44.8581 7.38008L40.241 8.17556L40.2164 7.39647H40.2246ZM42.6111 10.6932L40.9217 10.9884C40.6019 11.0458 40.323 10.8244 40.3066 10.4964L40.2902 9.90591L44.8663 9.12683C44.5628 9.97151 43.7838 10.4964 42.6029 10.6932H42.6111Z" fill="#F38F2F"/>
<path d="M31.3022 18.033C13.08 27.3655 13.8591 42.2007 13.8591 42.2007C13.8755 59.7504 26.6523 65.1793 26.6523 65.1793C27.1772 65.4992 27.5544 66.0158 27.6774 66.6145L29.375 74.5364C29.5964 75.5615 30.4985 76.2914 31.54 76.2914H36.7557C37.7644 76.2914 38.6419 75.6108 38.8961 74.6431L39.7818 71.3135C40.036 70.3376 40.9217 69.6652 41.9222 69.6652H53.7806C54.7893 69.6652 55.6667 70.3458 55.921 71.3135L56.8067 74.6431C57.0609 75.619 57.9466 76.2914 58.9471 76.2914H64.1628C65.2125 76.2914 66.1146 75.5615 66.3278 74.5364L68.0253 66.6145C68.1566 66.0158 68.5256 65.491 69.0504 65.1793C69.0504 65.1793 78.6536 62.8257 82.3685 54.3871C82.8852 53.2144 83.9349 52.8453 84.8534 52.3697C86.0261 51.7628 89.1834 50.1391 89.1834 50.1391C89.9215 49.7618 90.3889 48.9992 90.3889 48.1627V40.5688C90.3889 39.6667 89.8395 38.8466 89.003 38.5104L85.1896 36.9768C84.6402 36.7554 84.2055 36.3289 83.9759 35.7877C83.9759 35.7877 82.8032 32.9748 82.3849 32.0481C80.1215 27.0538 77.2676 23.3963 74.0119 20.731C73.8889 17.1801 73.7905 12.7599 73.7905 12.7599C73.7577 11.661 72.5522 11.0049 71.6091 11.5707C71.6091 11.5707 67.6317 13.908 64.54 15.7532C62.293 15.0643 59.9722 14.605 57.5939 14.3098C57.0117 14.236 56.3474 14.1786 55.6667 14.1294" stroke="#224492" stroke-width="2.5" stroke-linecap="round" stroke-linejoin="round"/>
<path d="M75.2749 35.509C76.5928 35.509 77.6613 34.4405 77.6613 33.1225C77.6613 31.8045 76.5928 30.7361 75.2749 30.7361C73.9569 30.7361 72.8884 31.8045 72.8884 33.1225C72.8884 34.4405 73.9569 35.509 75.2749 35.509Z" stroke="#62B4E3" stroke-width="2.5" stroke-linejoin="round"/>
<path d="M1.82031 41.4954C1.82031 41.4954 6.97041 41.0772 6.97041 37.3622C6.97041 34.0655 2.60759 34.0901 2.99303 37.3622C3.44407 41.1674 9.84889 40.3555 9.84889 40.3555" stroke="#224492" stroke-width="2.5" stroke-linecap="round" stroke-linejoin="round"/>
<path d="M37.1494 19.4108C37.1494 19.4108 43.0622 16.9669 51.0334 17.8198" stroke="#62B4E3" stroke-width="2.5" stroke-miterlimit="10" stroke-linecap="round"/>
</svg>
