<svg width="92" height="84" viewBox="0 0 92 84" fill="none" xmlns="http://www.w3.org/2000/svg">
<path d="M2.49778 45.9615C1.20206 43.8949 1.81712 41.1641 3.89192 39.8683L63.0607 2.67771C65.1273 1.38199 67.8581 1.99705 69.1539 4.07185L80.553 22.212" stroke="#F16730" stroke-width="2.5" stroke-miterlimit="10" stroke-linecap="round"/>
<path d="M30.4052 37.4655C29.8885 32.8484 32.0043 28.133 36.2195 25.5497C42.0339 21.9824 49.6442 23.803 53.2116 29.6173C53.3674 29.8715 53.515 30.134 53.6544 30.3964" stroke="#F38F2F" stroke-width="2.5" stroke-miterlimit="10" stroke-linecap="round"/>
<path d="M43.9446 38.5561C45.4454 37.5966 46.4623 36.4321 46.9871 35.1363C47.4218 34.0538 47.512 32.8811 47.2332 31.6756L48.168 31.0769C48.7175 30.7243 49.0291 29.8632 48.7257 29.2072C48.4223 28.5511 47.6514 28.3789 47.1101 28.7315L46.2163 29.3056C44.7401 27.1324 42.3537 26.9027 39.4998 28.7315L34.9238 31.6592C34.6285 31.8478 34.4973 32.2907 34.6531 32.6105L36.0965 35.7842L35.1206 36.4075C34.5793 36.7519 34.2267 37.654 34.5219 38.3018C34.6367 38.5479 34.8171 38.7201 35.0304 38.8185C35.383 38.9825 35.8258 38.9333 36.1703 38.7201L36.9083 38.2526L37.1462 38.0968L37.179 38.1624L38.1221 40.2454M37.7776 33.3568C37.6464 33.0287 37.753 32.5941 38.0647 32.3973L40.3773 30.9129C41.9272 29.9206 43.182 29.814 44.0594 30.6833L38.2451 34.4065L37.7694 33.3568H37.7776ZM42.9031 36.4731L40.7709 37.8344C40.3691 38.0968 39.8606 37.9492 39.6556 37.5146L39.6064 37.4162L39.2948 36.7273L45.0681 33.0533C45.1337 34.3081 44.4531 35.4152 43.1164 36.3336C43.0425 36.3829 42.9769 36.4321 42.8949 36.4813L42.9031 36.4731Z" fill="#F16730"/>
<path d="M20.4904 82.3811C18.1614 83.1028 15.6848 81.7907 14.9631 79.4616L7.27896 54.5804C6.55729 52.2514 7.86942 49.7748 10.1984 49.0531L32.2094 42.2628L76.9775 28.4445C79.3065 27.7228 81.7832 29.0349 82.5049 31.364L90.189 56.2452C90.9107 58.5742 89.5985 61.0509 87.2695 61.7725L20.4904 82.3811V82.3811Z" stroke="#224492" stroke-width="2.5" stroke-miterlimit="10"/>
<path d="M48.7668 67.7592C55.5923 67.7592 61.1254 62.226 61.1254 55.4006C61.1254 48.5751 55.5923 43.042 48.7668 43.042C41.9413 43.042 36.4082 48.5751 36.4082 55.4006C36.4082 62.226 41.9413 67.7592 48.7668 67.7592Z" stroke="#62B4E3" stroke-width="2.5" stroke-miterlimit="10"/>
<path d="M54.9091 49.5289L53.8922 49.8405C53.0557 47.3474 50.8087 46.4946 47.5694 47.4951L42.3783 49.0942C42.0421 49.2008 41.8042 49.5945 41.8616 49.9389L42.4029 53.3832L41.2958 53.7277C40.6807 53.9163 40.1067 54.6954 40.2133 55.3924C40.3281 56.1141 41.0662 56.4175 41.6894 56.2289L42.8047 55.8927L44.0267 63.6588C44.1087 64.1345 44.5351 64.4133 44.9944 64.2739L45.9948 63.9623C46.3311 63.8556 46.5689 63.462 46.5115 63.1176L45.9948 59.8291C45.9374 59.4846 46.1753 59.091 46.5279 58.9762L49.2342 58.1397C52.3587 57.172 54.1218 55.1054 54.2367 52.3909L55.2946 52.0629C55.9096 51.8743 56.4427 51.128 56.3279 50.4145C56.2048 49.7011 55.516 49.332 54.9009 49.5207L54.9091 49.5289ZM44.6745 51.497C44.6335 51.1444 44.8549 50.759 45.2076 50.6442L47.8318 49.8323C49.5868 49.291 50.8251 49.5207 51.4402 50.595L44.8467 52.6288L44.6663 51.4889L44.6745 51.497ZM48.7831 55.8681L46.3639 56.6143C45.9046 56.7538 45.4536 56.4831 45.3798 56.0075L45.2486 55.1464L51.7928 53.1454C51.5058 54.4411 50.4725 55.3432 48.7831 55.8681Z" fill="#224492"/>
</svg>
