<svg width="55" height="56" viewBox="0 0 55 56" fill="none" xmlns="http://www.w3.org/2000/svg">
<g clip-path="url(#clip0_110_769)">
<path d="M27.5007 0.5C12.3118 0.5 0 12.8118 0 28.0007C0 43.1897 12.3118 55.5015 27.5007 55.5015C42.6897 55.5015 55.0015 43.1897 55.0015 28.0007C55.0015 12.8118 42.6882 0.5 27.5007 0.5ZM19.314 41.4439H13.8483V23.0919H19.314V41.4439ZM16.5473 20.393C14.7249 20.393 13.3091 18.908 13.3091 17.0871C13.3091 15.2662 14.7264 13.7811 16.5473 13.7811C18.3682 13.7811 19.8532 15.2662 19.8532 17.0871C19.8532 18.908 18.3682 20.393 16.5473 20.393ZM40.8364 31.8635V41.4439H35.4385V31.5262C35.3707 29.4342 33.9535 27.8151 31.863 27.8151C29.7725 27.8151 28.0178 29.4342 27.9501 31.5262V41.4439H22.5522V23.0919H27.9501V25.6554C29.0977 23.9685 30.9864 22.8886 33.1447 22.8886H34.6297C38.0711 22.8886 40.8364 25.7231 40.8364 29.0953V31.8621V31.8635Z" fill="white"/>
</g>
<defs>
<clipPath id="clip0_110_769">
<rect width="55" height="55" fill="white" transform="translate(0 0.5)"/>
</clipPath>
</defs>
</svg>
