<svg width="55" height="56" viewBox="0 0 55 56" fill="none" xmlns="http://www.w3.org/2000/svg">
<path d="M27.5392 22.3545H27.4626C24.3321 22.3545 21.7363 24.9502 21.7363 28.0808C21.7363 31.2113 24.3321 33.8837 27.4626 33.8837H27.5392C30.6697 33.8837 33.2655 31.2879 33.2655 28.0808C33.2655 24.8736 30.6697 22.3545 27.5392 22.3545Z" fill="white"/>
<path d="M27.5 0.5C12.3114 0.5 0 12.8114 0 28C0 43.1886 12.3114 55.5 27.5 55.5C42.6886 55.5 55 43.1886 55 28C55 12.8114 42.6871 0.5 27.5 0.5ZM43.4973 35.4131C43.4973 40.1479 39.6037 44.0415 34.8689 44.0415H20.1311C15.3963 44.0415 11.5027 40.1479 11.5027 35.4131V20.7519C11.5027 16.0171 15.3963 12.1235 20.1311 12.1235H34.8689C39.6037 12.1235 43.4973 16.0171 43.4973 20.7519V35.4131Z" fill="white"/>
<path d="M34.7926 14.8721H20.2081C16.9243 14.8721 14.252 17.5444 14.252 20.8282V35.3361C14.252 38.6199 16.9243 41.2922 20.2081 41.2922H34.7926C38.0763 41.2922 40.7487 38.6199 40.7487 35.3361V20.8282C40.7487 17.5444 38.0763 14.8721 34.7926 14.8721ZM27.5386 36.7872H27.462C22.7272 36.7872 18.8336 32.8936 18.8336 28.0821C18.8336 23.2707 22.7272 19.3771 27.462 19.3771H27.5386C32.2735 19.3771 36.2437 23.3473 36.2437 28.0821C36.2437 32.817 32.2735 36.7872 27.5386 36.7872ZM36.0905 21.3629C35.021 21.3629 34.2578 20.5232 34.2578 19.5303C34.2578 18.5374 35.021 17.6976 36.0905 17.6976C37.0834 17.6976 37.9231 18.5374 37.9231 19.5303C37.9231 20.5232 37.0834 21.3629 36.0905 21.3629Z" fill="white"/>
</svg>
