<svg width="354" height="266" viewBox="0 0 354 266" fill="none" xmlns="http://www.w3.org/2000/svg">
<g clip-path="url(#clip0_110_326)">
<path d="M287.812 75.7051H287.738L245.537 93.7497L187.798 118.439C187.573 118.534 187.33 118.583 187.086 118.584C186.841 118.586 186.598 118.539 186.372 118.446L126.802 93.6981L83.5644 75.7345L83.4984 75.7051H83.4248C82.7426 75.7058 82.0885 75.9775 81.6061 76.4606C81.1237 76.9437 80.8523 77.5987 80.8516 78.2818V190.186C80.8523 190.869 81.1237 191.524 81.6061 192.007C82.0885 192.491 82.7426 192.762 83.4248 192.763H287.812C288.494 192.762 289.148 192.491 289.63 192.007C290.113 191.524 290.384 190.869 290.385 190.186V78.2818C290.384 77.5987 290.113 76.9437 289.63 76.4606C289.148 75.9775 288.494 75.7058 287.812 75.7051Z" fill="white"/>
<path d="M287.992 76.4413C287.917 76.4414 287.844 76.4183 287.782 76.3754L186.119 5.47668C185.809 5.26193 185.442 5.14716 185.065 5.1478C184.689 5.14844 184.322 5.26446 184.013 5.48027L83.0816 76.3746C83.0017 76.4303 82.9031 76.452 82.8073 76.435C82.7115 76.4179 82.6264 76.3636 82.5705 76.2838C82.5147 76.2041 82.4927 76.1054 82.5093 76.0094C82.526 75.9135 82.5799 75.828 82.6593 75.7718L183.591 4.87745C184.023 4.57537 184.537 4.41298 185.064 4.41211C185.591 4.41125 186.106 4.57194 186.539 4.8726L288.203 75.7711C288.267 75.8159 288.315 75.8801 288.34 75.9542C288.366 76.0284 288.367 76.1088 288.343 76.1835C288.32 76.2583 288.273 76.3236 288.21 76.37C288.147 76.4164 288.071 76.4414 287.992 76.4413Z" fill="#BDBDBD"/>
<path d="M88.8516 78.9547L185.167 7.47461L282.215 84.0406L190.13 138.704L140.136 127.293L88.8516 78.9547Z" fill="#E6E6E6"/>
<path d="M144.356 172.468H96.7732C96.1836 172.469 95.6178 172.235 95.2003 171.818C94.7828 171.401 94.5477 170.835 94.5469 170.245C94.546 169.655 94.7794 169.088 95.1957 168.67C95.6119 168.252 96.177 168.016 96.7666 168.016H144.356C144.945 168.015 145.511 168.248 145.929 168.665C146.346 169.082 146.581 169.648 146.582 170.238C146.583 170.829 146.35 171.395 145.933 171.813C145.517 172.232 144.952 172.467 144.362 172.468H144.356Z" fill="#E9ECF4"/>
<path d="M113.843 162.897H96.7716C96.1823 162.897 95.6169 162.664 95.1998 162.247C94.7826 161.83 94.5477 161.264 94.5469 160.674C94.546 160.084 94.7792 159.518 95.1951 159.1C95.6111 158.682 96.1758 158.446 96.7651 158.445H113.843C114.135 158.444 114.425 158.501 114.695 158.613C114.965 158.724 115.21 158.888 115.417 159.094C115.624 159.3 115.788 159.546 115.9 159.816C116.013 160.086 116.071 160.375 116.071 160.668C116.071 160.96 116.014 161.25 115.903 161.52C115.792 161.79 115.628 162.036 115.422 162.243C115.215 162.45 114.97 162.615 114.701 162.727C114.431 162.839 114.142 162.897 113.85 162.897H113.843Z" fill="#E9ECF4"/>
<path d="M186.52 118.768C186.159 118.769 185.8 118.698 185.466 118.561L126.064 93.8801V16.6241C126.065 15.941 126.337 15.286 126.819 14.803C127.301 14.3199 127.955 14.0482 128.638 14.0474H242.594C243.277 14.0482 243.931 14.3199 244.413 14.803C244.895 15.286 245.167 15.941 245.168 16.6241V93.9341L245.056 93.9819L187.607 118.549C187.263 118.694 186.893 118.768 186.52 118.768Z" fill="white"/>
<path d="M186.521 118.952C186.135 118.952 185.753 118.878 185.396 118.732L125.881 94.0031V16.6241C125.882 15.8921 126.172 15.1904 126.689 14.6728C127.206 14.1552 127.907 13.8641 128.638 13.8633H242.595C243.326 13.8641 244.026 14.1552 244.543 14.6728C245.06 15.1904 245.351 15.8921 245.352 16.6241V94.0556L187.679 118.718C187.313 118.873 186.919 118.952 186.521 118.952ZM126.616 93.5113L185.676 118.051C186.227 118.275 186.844 118.271 187.392 118.041L244.616 93.5695V16.6241C244.616 16.0873 244.403 15.5727 244.024 15.1932C243.645 14.8137 243.131 14.6002 242.595 14.5995H128.638C128.102 14.6002 127.588 14.8137 127.209 15.1932C126.83 15.5727 126.617 16.0873 126.616 16.6241L126.616 93.5113Z" fill="#3F3D56"/>
<path d="M287.259 75.7051H287.185L244.985 93.7497L187.245 118.439C187.02 118.534 186.778 118.583 186.533 118.584C186.288 118.586 186.046 118.539 185.819 118.446L126.249 93.6981L83.0117 75.7345L82.9456 75.7051H82.872C82.1898 75.7058 81.5358 75.9775 81.0533 76.4606C80.5709 76.9437 80.2996 77.5987 80.2988 78.2818V190.186C80.2996 190.869 80.5709 191.524 81.0533 192.007C81.5358 192.491 82.1898 192.762 82.872 192.763H287.259C287.941 192.762 288.595 192.491 289.078 192.007C289.56 191.524 289.831 190.869 289.832 190.186V78.2818C289.831 77.5987 289.56 76.9437 289.078 76.4606C288.595 75.9775 287.941 75.7058 287.259 75.7051ZM289.097 190.186C289.097 190.674 288.903 191.142 288.558 191.488C288.214 191.833 287.746 192.027 287.259 192.027H82.872C82.3846 192.027 81.9172 191.833 81.5726 191.488C81.2279 191.142 81.0342 190.674 81.034 190.186V78.2818C81.0347 77.8059 81.219 77.3486 81.5486 77.0056C81.8781 76.6626 82.3273 76.4604 82.8022 76.4413L126.249 94.4932L185.536 119.127C186.178 119.388 186.897 119.384 187.536 119.116L244.985 94.5485L287.333 76.4413C287.807 76.4618 288.255 76.6645 288.583 77.0074C288.912 77.3502 289.096 77.8066 289.097 78.2818V190.186Z" fill="#BDBDBD"/>
<path d="M177.273 42.9258H136.837C136.058 42.9247 135.311 42.614 134.76 42.0618C134.21 41.5097 133.9 40.7613 133.9 39.981C133.9 39.2007 134.21 38.4523 134.76 37.9001C135.311 37.348 136.058 37.0372 136.837 37.0361H177.273C178.053 37.0372 178.799 37.348 179.35 37.9001C179.901 38.4523 180.21 39.2007 180.21 39.981C180.21 40.7613 179.901 41.5097 179.35 42.0618C178.799 42.614 178.053 42.9247 177.273 42.9258Z" fill="#E9ECF4"/>
<path d="M156.32 30.4102H136.837C136.057 30.4102 135.309 30.1 134.758 29.5477C134.206 28.9954 133.896 28.2464 133.896 27.4654C133.896 26.6843 134.206 25.9353 134.758 25.383C135.309 24.8308 136.057 24.5205 136.837 24.5205H156.32C157.1 24.5205 157.848 24.8308 158.4 25.383C158.951 25.9353 159.261 26.6843 159.261 27.4654C159.261 28.2464 158.951 28.9954 158.4 29.5477C157.848 30.1 157.1 30.4102 156.32 30.4102Z" fill="#E9ECF4"/>
<path d="M215.86 72.3741H154.103C153.323 72.373 152.576 72.0622 152.026 71.5101C151.475 70.9579 151.166 70.2095 151.166 69.4292C151.166 68.6489 151.475 67.9005 152.026 67.3484C152.576 66.7962 153.323 66.4855 154.103 66.4844H215.86C216.639 66.4855 217.386 66.7962 217.937 67.3484C218.487 67.9005 218.796 68.6489 218.796 69.4292C218.796 70.2095 218.487 70.9579 217.937 71.5101C217.386 72.0622 216.639 72.373 215.86 72.3741Z" fill="#CCCCCC"/>
<path d="M215.86 85.9942H154.103C153.323 85.9942 152.575 85.6839 152.023 85.1317C151.472 84.5794 151.162 83.8304 151.162 83.0494C151.162 82.2683 151.472 81.5193 152.023 80.967C152.575 80.4148 153.323 80.1045 154.103 80.1045H215.86C216.64 80.1045 217.388 80.4148 217.94 80.967C218.491 81.5193 218.801 82.2683 218.801 83.0494C218.801 83.8304 218.491 84.5794 217.94 85.1317C217.388 85.6839 216.64 85.9942 215.86 85.9942Z" fill="#CCCCCC"/>
<path d="M286.12 104.774C301.563 104.774 314.083 92.2372 314.083 76.7722C314.083 61.3073 301.563 48.7705 286.12 48.7705C270.676 48.7705 258.156 61.3073 258.156 76.7722C258.156 92.2372 270.676 104.774 286.12 104.774Z" fill="#F1652F"/>
<path d="M283.455 88.5927L275.086 77.8162L279.953 74.0254L283.916 79.1279L297.303 64.9761L301.78 69.2232L283.455 88.5927Z" fill="white"/>
<path d="M26.0801 27.9471C25.8892 27.8342 25.6704 27.7773 25.4487 27.7831C25.2271 27.7889 25.0115 27.8572 24.8268 27.98C24.6421 28.1028 24.4957 28.2753 24.4044 28.4776C24.3131 28.68 24.2805 28.904 24.3105 29.124L25.2218 35.8173C25.2343 35.916 25.2276 36.0162 25.202 36.1123C25.1734 36.2069 25.1257 36.2947 25.0619 36.3701L19.9577 42.4252C19.7872 42.6201 19.6871 42.8668 19.6735 43.1255C19.6599 43.3843 19.7335 43.6401 19.8826 43.8519L19.888 43.8596C20.0308 44.0737 20.2411 44.2337 20.4853 44.3143C20.7294 44.3948 20.9935 44.3913 21.2354 44.3041L24.9216 43.0513C25.0438 43.0108 25.1746 43.0044 25.3002 43.0327C25.4258 43.0609 25.5413 43.1229 25.6344 43.2119C25.7039 43.2763 25.7593 43.3544 25.7971 43.4413C25.8349 43.5283 25.8544 43.6221 25.8543 43.7169L25.9983 56.8685C25.9998 57.0589 26.0476 57.246 26.1375 57.4138C26.2274 57.5815 26.3568 57.7249 26.5144 57.8314C26.6714 57.9376 26.8516 58.0045 27.0398 58.0265C27.2281 58.0484 27.4189 58.0248 27.5961 57.9575L55.1083 47.4212C55.3157 47.3422 55.4967 47.2061 55.6304 47.0287C55.764 46.8512 55.845 46.6396 55.8639 46.4182C55.8828 46.1967 55.8389 45.9744 55.7372 45.7768C55.6356 45.5792 55.4803 45.4144 55.2892 45.3013L54.9146 45.0785L26.0801 27.9471ZM24.7763 29.0597C24.7586 28.9276 24.7784 28.7931 24.8334 28.6718C24.8885 28.5504 24.9765 28.447 25.0875 28.3735C25.1985 28.2999 25.328 28.2591 25.461 28.2558C25.5941 28.2525 25.7254 28.2867 25.8399 28.3547L54.6653 45.4809L55.049 45.7087C55.163 45.7769 55.2556 45.8759 55.3162 45.9942C55.3767 46.1126 55.4029 46.2456 55.3916 46.3781C55.3804 46.5107 55.3322 46.6374 55.2526 46.7438C55.173 46.8502 55.0651 46.9321 54.9412 46.9802L27.429 57.5164C27.3226 57.557 27.208 57.5712 27.0949 57.5579C26.9819 57.5445 26.8737 57.5041 26.7796 57.4399C26.6855 57.3758 26.6082 57.2898 26.5544 57.1894C26.5005 57.0889 26.4717 56.9769 26.4703 56.863L26.3263 43.7115C26.3264 43.5813 26.3041 43.4522 26.2603 43.3296L54.2703 46.5523C54.3795 46.566 54.49 46.541 54.5828 46.4817C54.6756 46.4224 54.7448 46.3325 54.7784 46.2275C54.8119 46.1225 54.8078 46.0091 54.7667 45.9068C54.7257 45.8046 54.6502 45.7199 54.5533 45.6675C54.5299 45.6544 54.5051 45.6436 54.4796 45.6353L25.696 36.0141C25.703 35.927 25.7002 35.8394 25.6876 35.753L24.7763 29.0597Z" fill="#F1F1F1"/>
<path d="M26.0801 27.9471C25.8892 27.8342 25.6704 27.7773 25.4487 27.7831C25.2271 27.7889 25.0115 27.8572 24.8268 27.98C24.6421 28.1028 24.4957 28.2753 24.4044 28.4776C24.3131 28.68 24.2805 28.904 24.3105 29.124L25.2218 35.8173C25.2343 35.916 25.2276 36.0162 25.202 36.1123C25.1734 36.2069 25.1257 36.2947 25.0619 36.3701L19.9577 42.4252C19.7872 42.6201 19.6871 42.8668 19.6735 43.1255C19.6599 43.3843 19.7335 43.6401 19.8826 43.8519L19.888 43.8596C20.0308 44.0737 20.2411 44.2337 20.4853 44.3143C20.7294 44.3948 20.9935 44.3913 21.2354 44.3041L24.9216 43.0513C25.0438 43.0108 25.1746 43.0044 25.3002 43.0327C25.4258 43.0609 25.5413 43.1229 25.6344 43.2119C25.7039 43.2763 25.7593 43.3544 25.7971 43.4413C25.8349 43.5283 25.8544 43.6221 25.8543 43.7169L25.9983 56.8685C25.9998 57.0589 26.0476 57.246 26.1375 57.4138C26.2274 57.5815 26.3568 57.7249 26.5144 57.8314C26.6714 57.9376 26.8516 58.0045 27.0398 58.0265C27.2281 58.0484 27.4189 58.0248 27.5961 57.9575L55.1083 47.4212C55.3157 47.3422 55.4967 47.2061 55.6304 47.0287C55.764 46.8512 55.845 46.6396 55.8639 46.4182C55.8828 46.1967 55.8389 45.9744 55.7372 45.7768C55.6356 45.5792 55.4803 45.4144 55.2892 45.3013L54.9146 45.0785L26.0801 27.9471ZM24.7763 29.0597C24.7586 28.9276 24.7784 28.7931 24.8334 28.6718C24.8885 28.5504 24.9765 28.447 25.0875 28.3735C25.1985 28.2999 25.328 28.2591 25.461 28.2558C25.5941 28.2525 25.7254 28.2867 25.8399 28.3547L54.6653 45.4809L55.049 45.7087C55.163 45.7769 55.2556 45.8759 55.3162 45.9942C55.3767 46.1126 55.4029 46.2456 55.3916 46.3781C55.3804 46.5107 55.3322 46.6374 55.2526 46.7438C55.173 46.8502 55.0651 46.9321 54.9412 46.9802L27.429 57.5164C27.3226 57.557 27.208 57.5712 27.0949 57.5579C26.9819 57.5445 26.8737 57.5041 26.7796 57.4399C26.6855 57.3758 26.6082 57.2898 26.5544 57.1894C26.5005 57.0889 26.4717 56.9769 26.4703 56.8629L26.3263 43.7115C26.3264 43.5813 26.304 43.4521 26.2603 43.3296C26.1986 43.1531 26.0949 42.9944 25.9581 42.8672C25.9395 42.8486 25.9189 42.8312 25.8984 42.8138L25.897 42.812C25.7425 42.6842 25.5579 42.5981 25.3608 42.5618C25.1637 42.5255 24.9606 42.5403 24.7708 42.6047L21.0827 43.8589C20.9374 43.9117 20.7784 43.9138 20.6317 43.8649C20.485 43.8159 20.3591 43.7188 20.2745 43.5892L20.2718 43.5853C20.1813 43.4587 20.1365 43.3051 20.1448 43.1496C20.153 42.9942 20.2139 42.8462 20.3173 42.73L25.4216 36.675C25.4761 36.6116 25.5234 36.5422 25.5625 36.4682L25.5644 36.4669C25.6022 36.396 25.6323 36.3213 25.6542 36.2441C25.6763 36.1692 25.6903 36.0921 25.696 36.0142C25.703 35.9271 25.7002 35.8395 25.6876 35.753L24.7763 29.0597Z" fill="#E5E5E5"/>
<path d="M25.6973 36.0139L54.4808 45.635C54.5064 45.6433 54.5311 45.6541 54.5546 45.6672C54.6514 45.7196 54.7269 45.8043 54.768 45.9066C54.8091 46.0088 54.8132 46.1222 54.7796 46.2272C54.746 46.3322 54.6769 46.4221 54.5841 46.4814C54.4913 46.5407 54.3808 46.5657 54.2715 46.552L26.2615 43.3293L25.7669 43.2729L25.8217 42.8045L25.8983 42.8117L25.8996 42.8135L54.325 46.0817L25.5657 36.4666L25.5638 36.4679L25.4395 36.4249L25.5887 35.9771L25.6973 36.0139Z" fill="#E5E5E5"/>
<path d="M347.073 0.164933L318.239 17.2963L317.864 17.519C317.673 17.6322 317.518 17.797 317.416 17.9946C317.314 18.1922 317.271 18.4145 317.289 18.6359C317.308 18.8574 317.389 19.069 317.523 19.2465C317.657 19.4239 317.838 19.56 318.045 19.639L345.557 30.1753C345.734 30.2426 345.925 30.2662 346.113 30.2443C346.302 30.2223 346.482 30.1554 346.639 30.0491C346.797 29.9426 346.926 29.7993 347.016 29.6316C347.106 29.4638 347.153 29.2766 347.155 29.0863L347.299 15.9347C347.299 15.8399 347.318 15.746 347.356 15.6591C347.394 15.5722 347.449 15.4941 347.519 15.4297C347.612 15.3407 347.728 15.2787 347.853 15.2504C347.979 15.2221 348.11 15.2286 348.232 15.2691L351.918 16.5219C352.16 16.609 352.424 16.6126 352.668 16.5321C352.912 16.4515 353.122 16.2915 353.265 16.0774L353.271 16.0696C353.42 15.8579 353.493 15.602 353.48 15.3433C353.466 15.0845 353.366 14.8379 353.196 14.643L348.091 8.58786C348.028 8.51245 347.98 8.42471 347.951 8.33009C347.926 8.23397 347.919 8.13378 347.932 8.03509L348.843 1.34174C348.873 1.12174 348.84 0.897744 348.749 0.695414C348.658 0.493084 348.511 0.32062 348.326 0.197783C348.142 0.0749456 347.926 0.00670422 347.705 0.000893109C347.483 -0.004918 347.264 0.0519427 347.073 0.164933ZM348.377 1.27746L347.466 7.97078C347.453 8.05723 347.45 8.14483 347.457 8.23192L318.674 17.8531C318.648 17.8614 318.623 17.8721 318.6 17.8852C318.503 17.9377 318.428 18.0223 318.387 18.1246C318.346 18.2269 318.341 18.3403 318.375 18.4452C318.409 18.5502 318.478 18.6401 318.571 18.6995C318.663 18.7588 318.774 18.7837 318.883 18.7701L346.893 15.5474C346.849 15.6699 346.827 15.7991 346.827 15.9292L346.683 29.0807C346.682 29.1947 346.653 29.3067 346.599 29.4071C346.545 29.5076 346.468 29.5935 346.374 29.6577C346.28 29.7218 346.172 29.7623 346.058 29.7756C345.945 29.7889 345.831 29.7747 345.724 29.7342L318.212 19.1979C318.088 19.1499 317.98 19.068 317.901 18.9616C317.821 18.8551 317.773 18.7284 317.762 18.5959C317.75 18.4634 317.777 18.3303 317.837 18.212C317.898 18.0936 317.99 17.9947 318.104 17.9264L318.488 17.6986L347.313 0.572414C347.428 0.504487 347.559 0.47023 347.692 0.473558C347.825 0.476887 347.955 0.51767 348.066 0.591238C348.177 0.664805 348.265 0.768181 348.32 0.889535C348.375 1.01089 348.395 1.14536 348.377 1.27746Z" fill="#F1F1F1"/>
<path d="M347.073 0.164933L318.239 17.2963L317.864 17.519C317.673 17.6322 317.518 17.797 317.416 17.9946C317.314 18.1922 317.271 18.4145 317.289 18.6359C317.308 18.8574 317.389 19.069 317.523 19.2465C317.657 19.4239 317.838 19.56 318.045 19.639L345.557 30.1753C345.734 30.2426 345.925 30.2662 346.113 30.2443C346.302 30.2223 346.482 30.1554 346.639 30.0491C346.797 29.9426 346.926 29.7993 347.016 29.6316C347.106 29.4638 347.153 29.2766 347.155 29.0863L347.299 15.9347C347.299 15.8399 347.318 15.746 347.356 15.6591C347.394 15.5722 347.449 15.4941 347.519 15.4297C347.612 15.3407 347.728 15.2787 347.853 15.2504C347.979 15.2221 348.11 15.2286 348.232 15.2691L351.918 16.5219C352.16 16.609 352.424 16.6126 352.668 16.5321C352.912 16.4515 353.122 16.2915 353.265 16.0774L353.271 16.0696C353.42 15.8579 353.493 15.602 353.48 15.3433C353.466 15.0845 353.366 14.8379 353.196 14.643L348.091 8.58786C348.028 8.51245 347.98 8.42471 347.951 8.33009C347.926 8.23397 347.919 8.13378 347.932 8.03509L348.843 1.34174C348.873 1.12174 348.84 0.897744 348.749 0.695414C348.658 0.493084 348.511 0.32062 348.326 0.197783C348.142 0.0749456 347.926 0.00670422 347.705 0.000893109C347.483 -0.004918 347.264 0.0519427 347.073 0.164933ZM348.377 1.27746L347.466 7.9708C347.453 8.05725 347.45 8.14484 347.457 8.23193C347.463 8.30985 347.477 8.38694 347.499 8.46187C347.521 8.5391 347.551 8.61378 347.589 8.68463L347.591 8.68597C347.63 8.75996 347.677 8.82932 347.732 8.89273L352.836 14.9478C352.939 15.064 353 15.212 353.009 15.3674C353.017 15.5229 352.972 15.6765 352.882 15.8031L352.879 15.8069C352.794 15.9365 352.668 16.0337 352.522 16.0826C352.375 16.1316 352.216 16.1295 352.071 16.0767L348.383 14.8225C348.193 14.7581 347.99 14.7433 347.793 14.7796C347.595 14.8158 347.411 14.9019 347.256 15.0297L347.255 15.0316C347.234 15.049 347.214 15.0663 347.195 15.085C347.058 15.2122 346.955 15.3709 346.893 15.5474C346.849 15.6699 346.827 15.7991 346.827 15.9292L346.683 29.0807C346.682 29.1947 346.653 29.3067 346.599 29.4071C346.545 29.5076 346.468 29.5935 346.374 29.6577C346.28 29.7218 346.171 29.7623 346.058 29.7756C345.945 29.7889 345.831 29.7747 345.724 29.7342L318.212 19.1979C318.088 19.1499 317.98 19.068 317.901 18.9616C317.821 18.8551 317.773 18.7284 317.762 18.5959C317.75 18.4634 317.777 18.3304 317.837 18.212C317.898 18.0936 317.99 17.9947 318.104 17.9264L318.488 17.6987L347.313 0.572423C347.428 0.504496 347.559 0.470239 347.692 0.473567C347.825 0.476896 347.955 0.517679 348.066 0.591247C348.177 0.664814 348.265 0.76819 348.32 0.889544C348.375 1.0109 348.395 1.14536 348.377 1.27746Z" fill="#E5E5E5"/>
<path d="M347.565 8.19482L347.714 8.64269L347.59 8.68567L347.588 8.68434L318.829 18.2995L347.254 15.0313L347.255 15.0294L347.332 15.0222L347.387 15.4907L346.892 15.5471L318.882 18.7698C318.773 18.7835 318.662 18.7585 318.57 18.6992C318.477 18.6399 318.408 18.55 318.374 18.445C318.34 18.34 318.345 18.2266 318.386 18.1243C318.427 18.0221 318.502 17.9374 318.599 17.885C318.623 17.8719 318.647 17.8611 318.673 17.8528L347.456 8.23166L347.565 8.19482Z" fill="#E5E5E5"/>
<path d="M100.336 239.531C100.138 239.632 99.9734 239.787 99.8599 239.977C99.7463 240.168 99.6887 240.387 99.6937 240.609C99.6986 240.831 99.766 241.047 99.8879 241.232C100.01 241.418 100.182 241.565 100.383 241.657L106.52 244.463C106.61 244.505 106.691 244.565 106.758 244.638C106.823 244.712 106.871 244.8 106.901 244.894L109.284 252.45C109.357 252.698 109.512 252.915 109.723 253.065C109.934 253.215 110.19 253.289 110.448 253.276L110.458 253.276C110.715 253.269 110.962 253.177 111.161 253.013C111.359 252.849 111.497 252.624 111.553 252.373L112.465 248.583C112.497 248.458 112.561 248.344 112.652 248.253C112.743 248.162 112.857 248.097 112.982 248.066C113.073 248.041 113.169 248.036 113.263 248.051C113.356 248.065 113.446 248.099 113.526 248.15L124.703 255.056C124.865 255.157 125.048 255.216 125.238 255.23C125.428 255.243 125.618 255.21 125.792 255.134C125.965 255.058 126.118 254.941 126.237 254.793C126.357 254.646 126.439 254.472 126.476 254.286L132.286 225.369C132.331 225.152 132.312 224.926 132.234 224.718C132.156 224.51 132.02 224.328 131.844 224.194C131.667 224.059 131.456 223.978 131.235 223.958C131.013 223.939 130.791 223.982 130.594 224.083L130.205 224.281L100.336 239.531ZM100.578 241.229C100.457 241.173 100.354 241.085 100.281 240.973C100.208 240.862 100.168 240.732 100.165 240.599C100.162 240.465 100.197 240.334 100.265 240.22C100.334 240.105 100.433 240.012 100.551 239.952L130.412 224.707L130.809 224.504C130.928 224.444 131.061 224.419 131.193 224.431C131.325 224.443 131.451 224.492 131.557 224.572C131.663 224.652 131.744 224.761 131.792 224.885C131.839 225.009 131.85 225.145 131.825 225.275L126.015 254.192C125.992 254.303 125.943 254.408 125.871 254.496C125.8 254.585 125.708 254.655 125.603 254.7C125.499 254.746 125.385 254.765 125.271 254.757C125.158 254.749 125.048 254.713 124.951 254.654L113.773 247.747C113.663 247.678 113.543 247.627 113.416 247.599L131.105 225.614C131.175 225.529 131.213 225.422 131.212 225.312C131.212 225.202 131.173 225.095 131.102 225.011C131.032 224.926 130.934 224.869 130.826 224.849C130.717 224.829 130.605 224.848 130.509 224.902C130.486 224.915 130.464 224.93 130.443 224.947L106.939 244.167C106.87 244.115 106.794 244.07 106.715 244.035L100.578 241.229Z" fill="#F1F1F1"/>
<path d="M100.336 239.531C100.138 239.632 99.9734 239.787 99.8599 239.977C99.7463 240.168 99.6887 240.387 99.6937 240.609C99.6986 240.831 99.766 241.047 99.8879 241.232C100.01 241.418 100.182 241.565 100.383 241.657L106.52 244.463C106.61 244.505 106.691 244.565 106.758 244.638C106.823 244.712 106.871 244.8 106.901 244.894L109.284 252.45C109.357 252.698 109.512 252.915 109.723 253.065C109.934 253.215 110.19 253.289 110.448 253.276L110.458 253.276C110.715 253.269 110.962 253.177 111.161 253.013C111.359 252.849 111.497 252.624 111.553 252.373L112.465 248.583C112.497 248.458 112.561 248.344 112.652 248.253C112.743 248.162 112.857 248.097 112.982 248.066C113.073 248.041 113.169 248.036 113.263 248.051C113.356 248.065 113.446 248.099 113.526 248.15L124.703 255.056C124.865 255.157 125.048 255.216 125.238 255.23C125.428 255.243 125.618 255.21 125.792 255.134C125.965 255.058 126.118 254.941 126.237 254.793C126.357 254.646 126.439 254.472 126.476 254.286L132.286 225.369C132.331 225.152 132.312 224.926 132.234 224.718C132.156 224.51 132.02 224.328 131.844 224.194C131.667 224.059 131.456 223.978 131.235 223.958C131.013 223.939 130.791 223.982 130.594 224.083L130.205 224.281L100.336 239.531ZM100.578 241.229C100.457 241.173 100.354 241.085 100.281 240.973C100.208 240.862 100.168 240.732 100.165 240.599C100.162 240.465 100.197 240.334 100.265 240.22C100.334 240.105 100.433 240.012 100.551 239.952L130.412 224.707L130.809 224.504C130.928 224.444 131.061 224.419 131.193 224.431C131.325 224.443 131.451 224.492 131.557 224.572C131.663 224.652 131.744 224.761 131.792 224.885C131.839 225.009 131.85 225.145 131.825 225.275L126.015 254.192C125.992 254.303 125.943 254.408 125.871 254.496C125.8 254.585 125.708 254.655 125.603 254.7C125.499 254.746 125.385 254.765 125.271 254.757C125.158 254.749 125.048 254.713 124.951 254.654L113.773 247.747C113.663 247.678 113.542 247.627 113.416 247.599C113.234 247.557 113.044 247.56 112.864 247.608C112.838 247.613 112.813 247.622 112.787 247.63L112.785 247.63C112.594 247.692 112.423 247.802 112.287 247.95C112.151 248.097 112.055 248.277 112.008 248.472L111.095 252.264C111.062 252.415 110.979 252.551 110.859 252.649C110.74 252.747 110.59 252.802 110.436 252.804L110.431 252.804C110.276 252.813 110.122 252.769 109.995 252.679C109.869 252.589 109.776 252.458 109.734 252.309L107.351 244.752C107.326 244.672 107.293 244.595 107.251 244.523L107.251 244.52C107.212 244.451 107.165 244.385 107.111 244.325C107.06 244.267 107.002 244.213 106.939 244.167C106.87 244.115 106.794 244.07 106.715 244.035L100.578 241.229Z" fill="#E5E5E5"/>
<path d="M106.939 244.167L130.442 224.948C130.463 224.93 130.485 224.915 130.509 224.902C130.605 224.848 130.716 224.83 130.825 224.85C130.933 224.869 131.031 224.927 131.102 225.011C131.172 225.096 131.211 225.202 131.212 225.312C131.212 225.423 131.174 225.53 131.104 225.615L113.415 247.599L113.103 247.988L112.737 247.691L112.784 247.63L112.786 247.63L130.736 225.318L107.25 244.521L107.251 244.523L107.148 244.605L106.85 244.24L106.939 244.167Z" fill="#E5E5E5"/>
</g>
<defs>
<clipPath id="clip0_110_326">
<rect width="353" height="266" fill="white" transform="translate(0.5)"/>
</clipPath>
</defs>
</svg>
