<svg width="55" height="56" viewBox="0 0 55 56" fill="none" xmlns="http://www.w3.org/2000/svg">
<g clip-path="url(#clip0_110_766)">
<path d="M27.5007 0.260742C12.3118 0.260742 0 12.6796 0 28.0006C0 43.3217 12.3118 55.7405 27.5007 55.7405C42.6897 55.7405 55.0015 43.3217 55.0015 28.0006C55.0015 12.6796 42.6882 0.260742 27.5007 0.260742ZM40.9837 20.9939V24.9513C38.3231 25.1519 35.6639 24.2811 33.6691 22.4696V33.4707C33.6691 38.8368 29.3467 43.1968 23.9606 43.1968C21.8995 43.1968 19.9711 42.5266 18.3741 41.4522C15.8475 39.7076 14.1842 36.7564 14.1842 33.4707C14.1842 28.0378 18.573 23.6777 23.9591 23.6777C24.4246 23.6777 24.8239 23.7446 25.2894 23.8115V29.1776C24.8239 29.0438 24.4246 28.9769 23.9591 28.9769C21.4325 28.9769 19.4378 30.989 19.4378 33.4707C19.4378 35.147 20.4351 36.691 21.8318 37.428C22.4962 37.7639 23.1621 37.9645 23.9591 37.9645C26.4194 37.9645 28.4141 35.9524 28.4141 33.4707V12.3422H33.6677C33.6677 12.8118 33.734 13.2145 33.8003 13.6841C34.1332 15.6962 35.4621 17.7083 37.1916 18.7812C38.3216 19.5198 39.6519 19.921 40.9822 19.6535V20.9954L40.9837 20.9939Z" fill="white"/>
</g>
<defs>
<clipPath id="clip0_110_766">
<rect width="55" height="55.4783" fill="white" transform="translate(0 0.260742)"/>
</clipPath>
</defs>
</svg>
