<svg width="55" height="56" viewBox="0 0 55 56" fill="none" xmlns="http://www.w3.org/2000/svg">
<g clip-path="url(#clip0_110_763)">
<path d="M27.5007 0.5C12.3118 0.5 0 12.8118 0 28.0007C0 43.1897 12.3118 55.5015 27.5007 55.5015C42.6897 55.5015 55.0015 43.1897 55.0015 28.0007C55.0015 12.8118 42.6882 0.5 27.5007 0.5ZM41.0721 21.6202C42.1918 37.2158 25.3896 46.6945 11.7755 38.9395C11.7755 38.9395 18.4964 39.2842 21.3397 36.0092C21.3397 36.0092 17.2044 36.3539 15.1359 31.3568C15.1359 31.3568 16.6873 31.9593 18.2386 31.1844C18.2386 31.1844 13.4137 30.4095 12.9821 24.6359C12.9821 24.6359 14.5334 25.8425 16.2571 25.4108C16.2571 25.4108 10.9151 22.2227 13.9308 16.4492C13.9308 16.4492 19.6175 23.6871 27.8042 23.4293C26.5122 16.6215 34.6975 12.5716 39.5223 17.4834C39.5223 17.4834 41.6761 16.8808 43.5722 15.6742C43.5722 15.6742 42.8827 18.0005 40.5565 19.4649C40.5565 19.4649 43.142 19.1201 44.2617 18.4307C44.2617 18.4307 43.142 20.7569 41.0736 21.6187L41.0721 21.6202Z" fill="white"/>
</g>
<defs>
<clipPath id="clip0_110_763">
<rect width="55" height="55" fill="white" transform="translate(0 0.5)"/>
</clipPath>
</defs>
</svg>
